Sura-Bold.ufo
<glyph name="percent" format="1">
  <advance width="898"/>
  <unicode hex="0025"/>
  <outline>
    <contour>
      <point x="509" y="303"/>
      <point x="560" y="397"/>
      <point x="691" y="397" type="curve" smooth="yes"/>
      <point x="822" y="397"/>
      <point x="873" y="303"/>
      <point x="873" y="194" type="curve" smooth="yes"/>
      <point x="873" y="86"/>
      <point x="822" y="-8"/>
      <point x="691" y="-8" type="curve" smooth="yes"/>
      <point x="560" y="-8"/>
      <point x="509" y="86"/>
      <point x="509" y="194" type="curve" smooth="yes"/>
    </contour>
    <contour>
      <point x="757" y="256"/>
      <point x="746" y="328"/>
      <point x="691" y="328" type="curve" smooth="yes"/>
      <point x="636" y="328"/>
      <point x="625" y="256"/>
      <point x="625" y="194" type="curve" smooth="yes"/>
      <point x="625" y="133"/>
      <point x="636" y="61"/>
      <point x="691" y="61" type="curve" smooth="yes"/>
      <point x="746" y="61"/>
      <point x="757" y="133"/>
      <point x="757" y="194" type="curve" smooth="yes"/>
    </contour>
    <contour>
      <point x="18" y="621"/>
      <point x="67" y="712"/>
      <point x="192" y="712" type="curve" smooth="yes"/>
      <point x="317" y="712"/>
      <point x="366" y="621"/>
      <point x="366" y="516" type="curve" smooth="yes"/>
      <point x="366" y="411"/>
      <point x="317" y="319"/>
      <point x="192" y="319" type="curve" smooth="yes"/>
      <point x="67" y="319"/>
      <point x="18" y="411"/>
      <point x="18" y="516" type="curve" smooth="yes"/>
    </contour>
    <contour>
      <point x="255" y="576"/>
      <point x="244" y="646"/>
      <point x="192" y="646" type="curve" smooth="yes"/>
      <point x="140" y="646"/>
      <point x="130" y="576"/>
      <point x="130" y="516" type="curve" smooth="yes"/>
      <point x="130" y="456"/>
      <point x="140" y="386"/>
      <point x="192" y="386" type="curve" smooth="yes"/>
      <point x="244" y="386"/>
      <point x="255" y="456"/>
      <point x="255" y="516" type="curve" smooth="yes"/>
    </contour>
    <contour>
      <point x="592" y="720" type="line"/>
      <point x="167" y="-4" type="line"/>
      <point x="238" y="-49" type="line"/>
      <point x="662" y="675" type="line"/>
    </contour>
  </outline>
</glyph>
<glyph name="ampersand" format="1">
  <advance width="758"/>
  <unicode hex="0026"/>
  <outline>
    <contour>
      <point x="509" y="297"/>
      <point x="504" y="339"/>
      <point x="504" y="339" type="curve"/>
      <point x="620" y="339" type="line"/>
      <point x="620" y="339"/>
      <point x="619" y="332"/>
      <point x="613" y="267" type="curve" smooth="yes"/>
      <point x="596" y="95"/>
      <point x="474" y="-10"/>
      <point x="283" y="-10" type="curve" smooth="yes"/>
      <point x="146" y="-10"/>
      <point x="40" y="44"/>
      <point x="40" y="174" type="curve" smooth="yes"/>
      <point x="40" y="290"/>
      <point x="124" y="356"/>
      <point x="264" y="410" type="curve"/>
      <point x="297" y="326" type="line"/>
      <point x="219" y="273"/>
      <point x="203" y="226"/>
      <point x="203" y="190" type="curve" smooth="yes"/>
      <point x="203" y="122"/>
      <point x="262" y="95"/>
      <point x="318" y="95" type="curve" smooth="yes"/>
      <point x="406" y="95"/>
      <point x="509" y="160"/>
      <point x="509" y="272" type="curve" smooth="yes"/>
    </contour>
    <contour>
      <point x="382" y="562"/>
      <point x="354" y="569"/>
      <point x="330" y="569" type="curve" smooth="yes"/>
      <point x="286" y="569"/>
      <point x="270" y="544"/>
      <point x="270" y="510" type="curve" smooth="yes"/>
      <point x="270" y="427"/>
      <point x="362" y="349"/>
      <point x="609" y="134" type="curve" smooth="yes"/>
      <point x="628" y="118"/>
      <point x="685" y="74"/>
      <point x="685" y="74" type="curve"/>
      <point x="527" y="0" type="line"/>
      <point x="379" y="174"/>
      <point x="102" y="332"/>
      <point x="102" y="506" type="curve" smooth="yes"/>
      <point x="102" y="611"/>
      <point x="204" y="662"/>
      <point x="314" y="662" type="curve" smooth="yes"/>
      <point x="384" y="662"/>
      <point x="454" y="641"/>
      <point x="482" y="631" type="curve"/>
      <point x="470" y="474" type="line"/>
      <point x="405" y="478" type="line"/>
      <point x="405" y="521" type="line" smooth="yes"/>
      <point x="405" y="526"/>
      <point x="391" y="560"/>
      <point x="391" y="560" type="curve"/>
    </contour>
    <contour>
      <point x="668" y="77" type="line"/>
      <point x="733" y="71" type="line"/>
      <point x="728" y="0" type="line"/>
      <point x="728" y="0"/>
      <point x="656" y="0"/>
      <point x="543" y="0" type="curve" smooth="yes"/>
      <point x="527" y="0" type="line"/>
    </contour>
    <contour>
      <point x="618" y="330" type="line"/>
      <point x="520" y="330" type="line"/>
      <point x="455" y="342" type="line"/>
      <point x="460" y="407" type="line"/>
      <point x="460" y="407"/>
      <point x="515" y="402"/>
      <point x="545" y="402" type="curve" smooth="yes"/>
      <point x="585" y="402"/>
      <point x="679" y="407"/>
      <point x="679" y="407" type="curve"/>
      <point x="684" y="336" type="line"/>
    </contour>
  </outline>
</glyph>
<glyph name="quotesingle" format="1">
  <advance width="199"/>
  <unicode hex="0027"/>
  <outline>
    <contour>
      <point x="159" y="756" type="line"/>
      <point x="146" y="512" type="line"/>
      <point x="58" y="517" type="line"/>
      <point x="59" y="610" type="line"/>
      <point x="58" y="629"/>
      <point x="40" y="756"/>
      <point x="40" y="756" type="curve"/>
    </contour>
  </outline>
</glyph>
<glyph name="parenright" format="1">
  <advance width="318"/>
  <unicode hex="0029"/>
  <outline>
    <contour>
      <point x="151" y="185"/>
      <point x="124" y="90"/>
      <point x="94" y="10" type="curve" smooth="yes"/>
      <point x="87" y="-10"/>
      <point x="30" y="-91"/>
      <point x="30" y="-91" type="curve"/>
      <point x="84" y="-135" type="line"/>
      <point x="219" y="-10"/>
      <point x="278" y="147"/>
      <point x="278" y="317" type="curve" smooth="yes"/>
      <point x="278" y="487"/>
      <point x="219" y="644"/>
      <point x="84" y="769" type="curve"/>
      <point x="30" y="725" type="line"/>
      <point x="30" y="725"/>
      <point x="87" y="644"/>
      <point x="94" y="624" type="curve" smooth="yes"/>
      <point x="124" y="544"/>
      <point x="151" y="449"/>
      <point x="151" y="317" type="curve" smooth="yes"/>
    </contour>
  </outline>
</glyph>
<glyph name="asterisk" format="1">
  <advance width="409"/>
  <unicode hex="002A"/>
  <outline>
    <contour>
      <point x="171" y="396" type="line"/>
      <point x="244" y="404" type="line"/>
      <point x="244" y="456" type="line" smooth="yes"/>
      <point x="244" y="463"/>
      <point x="255" y="535"/>
      <point x="257" y="547" type="curve"/>
      <point x="237" y="746" type="line"/>
      <point x="164" y="738" type="line"/>
      <point x="164" y="685" type="line" smooth="yes"/>
      <point x="164" y="678"/>
      <point x="153" y="608"/>
      <point x="151" y="597" type="curve"/>
    </contour>
    <contour>
      <point x="339" y="455" type="line"/>
      <point x="369" y="522" type="line"/>
      <point x="324" y="548" type="line" smooth="yes"/>
      <point x="318" y="552"/>
      <point x="261" y="597"/>
      <point x="251" y="605" type="curve"/>
      <point x="69" y="687" type="line"/>
      <point x="39" y="620" type="line"/>
      <point x="85" y="593" type="line" smooth="yes"/>
      <point x="91" y="590"/>
      <point x="146" y="545"/>
      <point x="155" y="538" type="curve"/>
    </contour>
    <contour>
      <point x="372" y="630" type="line"/>
      <point x="329" y="689" type="line"/>
      <point x="284" y="663" type="line" smooth="yes"/>
      <point x="277" y="660"/>
      <point x="210" y="633"/>
      <point x="198" y="629" type="curve"/>
      <point x="36" y="512" type="line"/>
      <point x="79" y="453" type="line"/>
      <point x="125" y="479" type="line" smooth="yes"/>
      <point x="131" y="483"/>
      <point x="198" y="508"/>
      <point x="208" y="512" type="curve"/>
    </contour>
  </outline>
</glyph>
<glyph name="comma" format="1">
  <advance width="239"/>
  <unicode hex="002C"/>
  <outline>
    <contour>
      <point x="67" y="-7"/>
      <point x="45" y="30"/>
      <point x="45" y="71" type="curve" smooth="yes"/>
      <point x="45" y="121"/>
      <point x="70" y="154"/>
      <point x="120" y="154" type="curve" smooth="yes"/>
      <point x="178" y="154"/>
      <point x="196" y="107"/>
      <point x="196" y="52" type="curve" smooth="yes"/>
      <point x="196" y="-27"/>
      <point x="146" y="-117"/>
      <point x="39" y="-136" type="curve"/>
      <point x="27" y="-104" type="line"/>
      <point x="79" y="-86"/>
      <point x="108" y="-55"/>
      <point x="113" y="-10" type="curve"/>
    </contour>
  </outline>
</glyph>
<glyph name="two" format="1">
  <advance width="547"/>
  <unicode hex="0032"/>
  <outline>
    <contour>
      <point x="174" y="662"/>
      <point x="109" y="651"/>
      <point x="42" y="627" type="curve"/>
      <point x="49" y="454" type="line"/>
      <point x="128" y="459" type="line"/>
      <point x="128" y="502" type="line"/>
      <point x="128" y="509"/>
      <point x="130" y="521"/>
      <point x="136" y="540" type="curve"/>
      <point x="165" y="556"/>
      <point x="194" y="564"/>
      <point x="223" y="564" type="curve" smooth="yes"/>
      <point x="277" y="564"/>
      <point x="313" y="534"/>
      <point x="313" y="477" type="curve" smooth="yes"/>
      <point x="313" y="387"/>
      <point x="251" y="309"/>
      <point x="19" y="99" type="curve"/>
      <point x="33" y="0" type="line"/>
      <point x="359" y="0" type="line" smooth="yes"/>
      <point x="378" y="0"/>
      <point x="468" y="-3"/>
      <point x="468" y="-3" type="curve"/>
      <point x="498" y="17" type="line"/>
      <point x="506" y="210" type="line"/>
      <point x="428" y="216" type="line"/>
      <point x="421" y="179" type="line" smooth="yes"/>
      <point x="419" y="171"/>
      <point x="406" y="131"/>
      <point x="405" y="128" type="curve"/>
      <point x="401" y="127"/>
      <point x="348" y="118"/>
      <point x="318" y="118" type="curve" smooth="yes"/>
      <point x="198" y="118" type="line"/>
      <point x="418" y="304"/>
      <point x="474" y="388"/>
      <point x="474" y="490" type="curve" smooth="yes"/>
      <point x="474" y="599"/>
      <point x="392" y="662"/>
      <point x="244" y="662" type="curve" smooth="yes"/>
    </contour>
  </outline>
</glyph>
<glyph name="four" format="1">
  <advance width="563"/>
  <unicode hex="0034"/>
  <outline>
    <contour>
      <point x="364" y="739" type="line"/>
      <point x="10" y="274" type="line"/>
      <point x="84" y="182" type="line"/>
      <point x="294" y="182" type="line"/>
      <point x="294" y="161" type="line" smooth="yes"/>
      <point x="294" y="142"/>
      <point x="290" y="98"/>
      <point x="288" y="77" type="curve"/>
      <point x="179" y="65" type="line"/>
      <point x="184" y="-5" type="line"/>
      <point x="184" y="-5"/>
      <point x="266" y="0"/>
      <point x="311" y="0" type="curve" smooth="yes"/>
      <point x="421" y="0"/>
      <point x="525" y="0"/>
      <point x="525" y="0" type="curve"/>
      <point x="530" y="71" type="line"/>
      <point x="440" y="77" type="line"/>
      <point x="437" y="102"/>
      <point x="434" y="129"/>
      <point x="434" y="160" type="curve" smooth="yes"/>
      <point x="434" y="182" type="line"/>
      <point x="528" y="182" type="line"/>
      <point x="528" y="287" type="line"/>
      <point x="434" y="282" type="line"/>
      <point x="434" y="418" type="line"/>
      <point x="294" y="370" type="line"/>
      <point x="294" y="273" type="line"/>
      <point x="155" y="273" type="line"/>
      <point x="345" y="530" type="line" smooth="yes"/>
      <point x="360" y="553"/>
      <point x="464" y="655"/>
      <point x="464" y="655" type="curve"/>
    </contour>
  </outline>
</glyph>
<glyph name="seven" format="1">
  <advance width="511"/>
  <unicode hex="0037"/>
  <outline>
    <contour>
      <point x="46" y="641" type="line"/>
      <point x="35" y="431" type="line"/>
      <point x="114" y="428" type="line"/>
      <point x="122" y="474" type="line"/>
      <point x="127" y="488"/>
      <point x="133" y="502"/>
      <point x="137" y="516" type="curve"/>
      <point x="159" y="518"/>
      <point x="183" y="520"/>
      <point x="193" y="520" type="curve" smooth="yes"/>
      <point x="346" y="520" type="line"/>
      <point x="333" y="472"/>
      <point x="309" y="393"/>
      <point x="302" y="379" type="curve" smooth="yes"/>
      <point x="77" y="-62" type="line"/>
      <point x="202" y="-105" type="line"/>
      <point x="518" y="583" type="line"/>
      <point x="502" y="652" type="line"/>
      <point x="184" y="652" type="line" smooth="yes"/>
      <point x="161" y="652"/>
      <point x="64" y="661"/>
      <point x="64" y="661" type="curve"/>
    </contour>
  </outline>
</glyph>
<glyph name="equal" format="1">
  <advance width="585"/>
  <unicode hex="003D"/>
  <outline>
    <contour>
      <point x="65" y="288" type="line"/>
      <point x="65" y="394" type="line"/>
      <point x="520" y="394" type="line"/>
      <point x="520" y="293" type="line"/>
    </contour>
    <contour>
      <point x="65" y="98" type="line"/>
      <point x="65" y="204" type="line"/>
      <point x="520" y="204" type="line"/>
      <point x="520" y="103" type="line"/>
    </contour>
  </outline>
</glyph>
<glyph name="B" format="1">
  <advance width="651"/>
  <unicode hex="0042"/>
  <outline>
    <contour>
      <point x="199" y="620"/>
      <point x="265" y="628"/>
      <point x="323" y="628" type="curve" smooth="yes"/>
      <point x="393" y="628"/>
      <point x="428" y="586"/>
      <point x="428" y="521" type="curve" smooth="yes"/>
      <point x="428" y="451"/>
      <point x="392" y="407"/>
      <point x="322" y="407" type="curve" smooth="yes"/>
      <point x="316" y="407" type="line"/>
      <point x="309" y="320" type="line"/>
      <point x="319" y="320" type="line" smooth="yes"/>
      <point x="394" y="320"/>
      <point x="451" y="292"/>
      <point x="451" y="203" type="curve" smooth="yes"/>
      <point x="451" y="124"/>
      <point x="402" y="77"/>
      <point x="330" y="77" type="curve" smooth="yes"/>
      <point x="311" y="77"/>
      <point x="292" y="78"/>
      <point x="274" y="80" type="curve"/>
      <point x="196" y="0" type="line"/>
      <point x="246" y="0"/>
      <point x="315" y="-5"/>
      <point x="365" y="-5" type="curve" smooth="yes"/>
      <point x="494" y="-5"/>
      <point x="604" y="56"/>
      <point x="604" y="189" type="curve" smooth="yes"/>
      <point x="604" y="293"/>
      <point x="532" y="349"/>
      <point x="434" y="364" type="curve"/>
      <point x="434" y="371" type="line"/>
      <point x="515" y="391"/>
      <point x="573" y="455"/>
      <point x="573" y="543" type="curve" smooth="yes"/>
      <point x="573" y="648"/>
      <point x="468" y="710"/>
      <point x="348" y="710" type="curve" smooth="yes"/>
      <point x="298" y="710"/>
      <point x="217" y="705"/>
      <point x="167" y="705" type="curve"/>
      <point x="121" y="614" type="line"/>
    </contour>
    <contour>
      <point x="167" y="705" type="line"/>
      <point x="137" y="705"/>
      <point x="47" y="710"/>
      <point x="47" y="710" type="curve"/>
      <point x="42" y="635" type="line"/>
      <point x="107" y="623" type="line"/>
      <point x="109" y="607"/>
      <point x="116" y="562"/>
      <point x="116" y="542" type="curve" smooth="yes"/>
      <point x="116" y="163" type="line" smooth="yes"/>
      <point x="116" y="143"/>
      <point x="108" y="87"/>
      <point x="107" y="77" type="curve"/>
      <point x="41" y="65" type="line"/>
      <point x="46" y="-5" type="line"/>
      <point x="46" y="-5"/>
      <point x="166" y="0"/>
      <point x="196" y="0" type="curve"/>
      <point x="280" y="57" type="line"/>
      <point x="278" y="81"/>
      <point x="271" y="153"/>
      <point x="271" y="193" type="curve" smooth="yes"/>
      <point x="271" y="512" type="line" smooth="yes"/>
      <point x="271" y="552"/>
      <point x="275" y="618"/>
      <point x="278" y="643" type="curve"/>
    </contour>
  </outline>
</glyph>
<glyph name="D" format="1">
  <advance width="758"/>
  <unicode hex="0044"/>
  <outline>
    <contour>
      <point x="265" y="624" type="line"/>
      <point x="288" y="626"/>
      <point x="322" y="627"/>
      <point x="342" y="627" type="curve" smooth="yes"/>
      <point x="489" y="627"/>
      <point x="541" y="501"/>
      <point x="541" y="354" type="curve" smooth="yes"/>
      <point x="541" y="200"/>
      <point x="490" y="78"/>
      <point x="340" y="78" type="curve" smooth="yes"/>
      <point x="313" y="78"/>
      <point x="276" y="79"/>
      <point x="265" y="80" type="curve"/>
      <point x="196" y="0" type="line"/>
      <point x="246" y="0"/>
      <point x="306" y="-5"/>
      <point x="356" y="-5" type="curve" smooth="yes"/>
      <point x="588" y="-5"/>
      <point x="708" y="142"/>
      <point x="708" y="352" type="curve" smooth="yes"/>
      <point x="708" y="562"/>
      <point x="588" y="710"/>
      <point x="356" y="710" type="curve" smooth="yes"/>
      <point x="306" y="710"/>
      <point x="217" y="705"/>
      <point x="167" y="705" type="curve"/>
    </contour>
    <contour>
      <point x="167" y="705" type="line"/>
      <point x="137" y="705"/>
      <point x="47" y="710"/>
      <point x="47" y="710" type="curve"/>
      <point x="42" y="635" type="line"/>
      <point x="107" y="623" type="line"/>
      <point x="109" y="607"/>
      <point x="116" y="562"/>
      <point x="116" y="542" type="curve" smooth="yes"/>
      <point x="116" y="163" type="line" smooth="yes"/>
      <point x="116" y="143"/>
      <point x="108" y="87"/>
      <point x="107" y="77" type="curve"/>
      <point x="41" y="65" type="line"/>
      <point x="46" y="-5" type="line"/>
      <point x="46" y="-5"/>
      <point x="166" y="0"/>
      <point x="196" y="0" type="curve"/>
      <point x="280" y="57" type="line"/>
      <point x="278" y="81"/>
      <point x="271" y="153"/>
      <point x="271" y="193" type="curve" smooth="yes"/>
      <point x="271" y="512" type="line" smooth="yes"/>
      <point x="271" y="552"/>
      <point x="275" y="618"/>
      <point x="278" y="643" type="curve"/>
    </contour>
    <contour>
      <point x="366" y="353" type="move" name="center"/>
    </contour>
    <contour>
      <point x="346" y="705" type="move" name="top"/>
    </contour>
  </outline>
</glyph>
<glyph name="F" format="1">
  <advance width="582"/>
  <unicode hex="0046"/>
  <outline>
    <contour>
      <point x="275" y="623" type="line"/>
      <point x="385" y="623" type="line" smooth="yes"/>
      <point x="415" y="623"/>
      <point x="445" y="620"/>
      <point x="465" y="618" type="curve"/>
      <point x="469" y="608"/>
      <point x="473" y="599"/>
      <point x="474" y="595" type="curve"/>
      <point x="478" y="580"/>
      <point x="481" y="552"/>
      <point x="483" y="536" type="curve"/>
      <point x="555" y="541" type="line"/>
      <point x="548" y="692" type="line"/>
      <point x="529" y="710" type="line"/>
      <point x="529" y="710"/>
      <point x="435" y="705"/>
      <point x="415" y="705" type="curve" smooth="yes"/>
      <point x="167" y="705" type="line"/>
    </contour>
    <contour>
      <point x="333" y="305" type="line"/>
      <point x="353" y="305"/>
      <point x="397" y="299"/>
      <point x="397" y="299" type="curve"/>
      <point x="406" y="239" type="line"/>
      <point x="470" y="245" type="line"/>
      <point x="470" y="245"/>
      <point x="467" y="322"/>
      <point x="467" y="372" type="curve" smooth="yes"/>
      <point x="467" y="392"/>
      <point x="468" y="455"/>
      <point x="468" y="455" type="curve"/>
      <point x="406" y="460" type="line"/>
      <point x="397" y="396" type="line"/>
      <point x="397" y="396"/>
      <point x="373" y="387"/>
      <point x="353" y="387" type="curve"/>
      <point x="261" y="387" type="line"/>
      <point x="261" y="305" type="line"/>
    </contour>
    <contour>
      <point x="167" y="705" type="line"/>
      <point x="137" y="705"/>
      <point x="47" y="710"/>
      <point x="47" y="710" type="curve"/>
      <point x="42" y="635" type="line"/>
      <point x="107" y="623" type="line"/>
      <point x="109" y="607"/>
      <point x="116" y="562"/>
      <point x="116" y="542" type="curve" smooth="yes"/>
      <point x="116" y="163" type="line" smooth="yes"/>
      <point x="116" y="143"/>
      <point x="108" y="87"/>
      <point x="107" y="77" type="curve"/>
      <point x="41" y="65" type="line"/>
      <point x="46" y="-5" type="line"/>
      <point x="46" y="-5"/>
      <point x="166" y="0"/>
      <point x="196" y="0" type="curve"/>
      <point x="370" y="0" type="line"/>
      <point x="375" y="71" type="line"/>
      <point x="280" y="77" type="line"/>
      <point x="278" y="91"/>
      <point x="271" y="153"/>
      <point x="271" y="193" type="curve" smooth="yes"/>
      <point x="271" y="512" type="line" smooth="yes"/>
      <point x="271" y="552"/>
      <point x="275" y="618"/>
      <point x="278" y="643" type="curve"/>
    </contour>
  </outline>
</glyph>
<glyph name="G" format="1">
  <advance width="732"/>
  <unicode hex="0047"/>
  <outline>
    <contour>
      <point x="548" y="600"/>
      <point x="555" y="578"/>
      <point x="555" y="572" type="curve" smooth="yes"/>
      <point x="558" y="525" type="line"/>
      <point x="635" y="521" type="line"/>
      <point x="647" y="686" type="line"/>
      <point x="578" y="704"/>
      <point x="509" y="720"/>
      <point x="418" y="720" type="curve" smooth="yes"/>
      <point x="175" y="720"/>
      <point x="51" y="570"/>
      <point x="51" y="352" type="curve" smooth="yes"/>
      <point x="51" y="134"/>
      <point x="175" y="-15"/>
      <point x="418" y="-15" type="curve" smooth="yes"/>
      <point x="508" y="-15"/>
      <point x="587" y="3"/>
      <point x="656" y="19" type="curve"/>
      <point x="656" y="196" type="line" smooth="yes"/>
      <point x="656" y="246"/>
      <point x="665" y="341"/>
      <point x="665" y="341" type="curve"/>
      <point x="637" y="366" type="line"/>
      <point x="637" y="366"/>
      <point x="555" y="363"/>
      <point x="522" y="363" type="curve"/>
      <point x="411" y="363" type="line"/>
      <point x="406" y="265" type="line"/>
      <point x="512" y="257" type="line"/>
      <point x="512" y="257"/>
      <point x="522" y="216"/>
      <point x="522" y="196" type="curve" smooth="yes"/>
      <point x="522" y="128" type="line" smooth="yes"/>
      <point x="522" y="120"/>
      <point x="519" y="104"/>
      <point x="515" y="86" type="curve"/>
      <point x="482" y="81"/>
      <point x="451" y="78"/>
      <point x="417" y="78" type="curve" smooth="yes"/>
      <point x="283" y="78"/>
      <point x="231" y="200"/>
      <point x="231" y="353" type="curve" smooth="yes"/>
      <point x="231" y="506"/>
      <point x="284" y="627"/>
      <point x="418" y="627" type="curve" smooth="yes"/>
      <point x="460" y="627"/>
      <point x="499" y="622"/>
      <point x="543" y="613" type="curve"/>
    </contour>
    <contour>
      <point x="417" y="705" type="move" name="top"/>
    </contour>
    <contour>
      <point x="420" y="0" type="move" name="bottom"/>
    </contour>
  </outline>
</glyph>
<glyph name="H" format="1">
  <advance width="827"/>
  <unicode hex="0048"/>
  <outline>
    <contour>
      <point x="777" y="710" type="line"/>
      <point x="777" y="710"/>
      <point x="696" y="705"/>
      <point x="583" y="705" type="curve" smooth="yes"/>
      <point x="536" y="705"/>
      <point x="483" y="710"/>
      <point x="483" y="710" type="curve"/>
      <point x="478" y="635" type="line"/>
      <point x="543" y="623" type="line"/>
      <point x="545" y="607"/>
      <point x="552" y="562"/>
      <point x="552" y="512" type="curve" smooth="yes"/>
      <point x="552" y="393" type="line"/>
      <point x="275" y="389" type="line"/>
      <point x="275" y="542" type="line" smooth="yes"/>
      <point x="275" y="562"/>
      <point x="281" y="608"/>
      <point x="284" y="623" type="curve"/>
      <point x="350" y="629" type="line"/>
      <point x="345" y="710" type="line"/>
      <point x="345" y="710"/>
      <point x="264" y="705"/>
      <point x="151" y="705" type="curve" smooth="yes"/>
      <point x="104" y="705"/>
      <point x="51" y="710"/>
      <point x="51" y="710" type="curve"/>
      <point x="46" y="635" type="line"/>
      <point x="111" y="623" type="line"/>
      <point x="113" y="607"/>
      <point x="120" y="562"/>
      <point x="120" y="512" type="curve" smooth="yes"/>
      <point x="120" y="163" type="line" smooth="yes"/>
      <point x="120" y="143"/>
      <point x="112" y="87"/>
      <point x="111" y="77" type="curve"/>
      <point x="45" y="65" type="line"/>
      <point x="50" y="-5" type="line"/>
      <point x="50" y="-5"/>
      <point x="103" y="0"/>
      <point x="150" y="0" type="curve" smooth="yes"/>
      <point x="263" y="0"/>
      <point x="344" y="-5"/>
      <point x="344" y="-5" type="curve"/>
      <point x="349" y="71" type="line"/>
      <point x="284" y="77" type="line"/>
      <point x="282" y="91"/>
      <point x="275" y="143"/>
      <point x="275" y="193" type="curve" smooth="yes"/>
      <point x="275" y="302" type="line"/>
      <point x="552" y="302" type="line"/>
      <point x="552" y="163" type="line" smooth="yes"/>
      <point x="552" y="143"/>
      <point x="544" y="87"/>
      <point x="543" y="77" type="curve"/>
      <point x="477" y="65" type="line"/>
      <point x="482" y="-5" type="line"/>
      <point x="482" y="-5"/>
      <point x="535" y="0"/>
      <point x="582" y="0" type="curve" smooth="yes"/>
      <point x="695" y="0"/>
      <point x="776" y="-5"/>
      <point x="776" y="-5" type="curve"/>
      <point x="781" y="71" type="line"/>
      <point x="716" y="77" type="line"/>
      <point x="714" y="91"/>
      <point x="707" y="143"/>
      <point x="707" y="193" type="curve" smooth="yes"/>
      <point x="707" y="542" type="line" smooth="yes"/>
      <point x="707" y="562"/>
      <point x="713" y="608"/>
      <point x="716" y="623" type="curve"/>
      <point x="782" y="629" type="line"/>
    </contour>
    <contour>
      <point x="414" y="353" type="move" name="center"/>
    </contour>
    <contour>
      <point x="414" y="705" type="move" name="top"/>
    </contour>
  </outline>
</glyph>
<glyph name="K" format="1">
  <advance width="771"/>
  <unicode hex="004B"/>
  <outline>
    <contour>
      <point x="506" y="705"/>
      <point x="439" y="710"/>
      <point x="439" y="710" type="curve"/>
      <point x="434" y="635" type="line"/>
      <point x="465" y="629" type="line"/>
      <point x="437" y="577" type="line" smooth="yes"/>
      <point x="275" y="353" type="line"/>
      <point x="275" y="353"/>
      <point x="404" y="188"/>
      <point x="425" y="164" type="curve"/>
      <point x="439" y="145"/>
      <point x="466" y="102"/>
      <point x="484" y="73" type="curve"/>
      <point x="445" y="65" type="line"/>
      <point x="450" y="-5" type="line"/>
      <point x="450" y="-5"/>
      <point x="560" y="0"/>
      <point x="610" y="0" type="curve"/>
      <point x="747" y="0" type="line"/>
      <point x="752" y="71" type="line"/>
      <point x="704" y="77" type="line"/>
      <point x="684" y="95"/>
      <point x="659" y="117"/>
      <point x="649" y="129" type="curve"/>
      <point x="582" y="209"/>
      <point x="512" y="290"/>
      <point x="444" y="370" type="curve"/>
      <point x="573" y="546" type="line"/>
      <point x="594" y="569"/>
      <point x="624" y="599"/>
      <point x="649" y="623" type="curve"/>
      <point x="707" y="629" type="line"/>
      <point x="702" y="710" type="line"/>
      <point x="702" y="710"/>
      <point x="616" y="705"/>
      <point x="536" y="705" type="curve" smooth="yes"/>
    </contour>
    <contour>
      <point x="341" y="710" type="line"/>
      <point x="341" y="710"/>
      <point x="247" y="705"/>
      <point x="167" y="705" type="curve" smooth="yes"/>
      <point x="137" y="705"/>
      <point x="47" y="710"/>
      <point x="47" y="710" type="curve"/>
      <point x="42" y="635" type="line"/>
      <point x="107" y="623" type="line"/>
      <point x="109" y="607"/>
      <point x="116" y="562"/>
      <point x="116" y="542" type="curve" smooth="yes"/>
      <point x="116" y="163" type="line" smooth="yes"/>
      <point x="116" y="143"/>
      <point x="108" y="87"/>
      <point x="107" y="77" type="curve"/>
      <point x="41" y="65" type="line"/>
      <point x="46" y="-5" type="line"/>
      <point x="46" y="-5"/>
      <point x="166" y="0"/>
      <point x="196" y="0" type="curve"/>
      <point x="340" y="0" type="line"/>
      <point x="345" y="71" type="line"/>
      <point x="280" y="77" type="line"/>
      <point x="278" y="91"/>
      <point x="271" y="153"/>
      <point x="271" y="193" type="curve" smooth="yes"/>
      <point x="271" y="512" type="line" smooth="yes"/>
      <point x="271" y="552"/>
      <point x="277" y="608"/>
      <point x="280" y="623" type="curve"/>
      <point x="346" y="629" type="line"/>
    </contour>
    <contour>
      <point x="372" y="705" type="move" name="top"/>
    </contour>
    <contour>
      <point x="372" y="0" type="move" name="bottom"/>
    </contour>
  </outline>
</glyph>
<glyph name="L" format="1">
  <advance width="577"/>
  <unicode hex="004C"/>
  <outline>
    <contour>
      <point x="196" y="0" type="line"/>
      <point x="403" y="0" type="line" smooth="yes"/>
      <point x="423" y="0"/>
      <point x="517" y="-4"/>
      <point x="517" y="-4" type="curve"/>
      <point x="536" y="14" type="line"/>
      <point x="551" y="190" type="line"/>
      <point x="481" y="195" type="line"/>
      <point x="479" y="179"/>
      <point x="473" y="153"/>
      <point x="469" y="138" type="curve"/>
      <point x="468" y="132"/>
      <point x="459" y="114"/>
      <point x="450" y="95" type="curve"/>
      <point x="431" y="91"/>
      <point x="402" y="87"/>
      <point x="373" y="87" type="curve" smooth="yes"/>
      <point x="189" y="87" type="line"/>
    </contour>
    <contour>
      <point x="351" y="710" type="line"/>
      <point x="351" y="710"/>
      <point x="247" y="705"/>
      <point x="167" y="705" type="curve" smooth="yes"/>
      <point x="137" y="705"/>
      <point x="47" y="710"/>
      <point x="47" y="710" type="curve"/>
      <point x="42" y="635" type="line"/>
      <point x="107" y="623" type="line"/>
      <point x="109" y="607"/>
      <point x="116" y="562"/>
      <point x="116" y="542" type="curve" smooth="yes"/>
      <point x="116" y="163" type="line" smooth="yes"/>
      <point x="116" y="143"/>
      <point x="108" y="87"/>
      <point x="107" y="77" type="curve"/>
      <point x="41" y="65" type="line"/>
      <point x="46" y="-5" type="line"/>
      <point x="46" y="-5"/>
      <point x="166" y="0"/>
      <point x="196" y="0" type="curve"/>
      <point x="280" y="77" type="line"/>
      <point x="278" y="91"/>
      <point x="271" y="153"/>
      <point x="271" y="193" type="curve" smooth="yes"/>
      <point x="271" y="512" type="line" smooth="yes"/>
      <point x="271" y="552"/>
      <point x="277" y="608"/>
      <point x="280" y="623" type="curve"/>
      <point x="356" y="629" type="line"/>
    </contour>
    <contour>
      <point x="179" y="705" type="move" name="top"/>
    </contour>
    <contour>
      <point x="279" y="0" type="move" name="bottom"/>
    </contour>
  </outline>
</glyph>
<glyph name="M" format="1">
  <advance width="952"/>
  <unicode hex="004D"/>
  <outline>
    <contour>
      <point x="651" y="705" type="line"/>
      <point x="631" y="685" type="line"/>
      <point x="631" y="685"/>
      <point x="598" y="572"/>
      <point x="590" y="549" type="curve" smooth="yes"/>
      <point x="478" y="221" type="line"/>
      <point x="375" y="534" type="line" smooth="yes"/>
      <point x="363" y="571"/>
      <point x="332" y="685"/>
      <point x="332" y="685" type="curve"/>
      <point x="312" y="705" type="line"/>
      <point x="185" y="705" type="line"/>
      <point x="165" y="705"/>
      <point x="65" y="710"/>
      <point x="65" y="710" type="curve"/>
      <point x="60" y="635" type="line"/>
      <point x="127" y="623" type="line"/>
      <point x="128" y="605"/>
      <point x="132" y="562"/>
      <point x="131" y="542" type="curve" smooth="yes"/>
      <point x="107" y="163" type="line" smooth="yes"/>
      <point x="106" y="143"/>
      <point x="97" y="95"/>
      <point x="92" y="77" type="curve"/>
      <point x="23" y="65" type="line"/>
      <point x="28" y="-5" type="line"/>
      <point x="28" y="-5"/>
      <point x="118" y="0"/>
      <point x="148" y="0" type="curve"/>
      <point x="283" y="0" type="line"/>
      <point x="289" y="71" type="line"/>
      <point x="221" y="77" type="line"/>
      <point x="219" y="100"/>
      <point x="217" y="153"/>
      <point x="219" y="193" type="curve" smooth="yes"/>
      <point x="236" y="518" type="line"/>
      <point x="415" y="0" type="line"/>
      <point x="507" y="0" type="line"/>
      <point x="691" y="518" type="line"/>
      <point x="707" y="163" type="line" smooth="yes"/>
      <point x="708" y="143"/>
      <point x="705" y="100"/>
      <point x="703" y="77" type="curve"/>
      <point x="637" y="65" type="line"/>
      <point x="642" y="-5" type="line"/>
      <point x="642" y="-5"/>
      <point x="752" y="0"/>
      <point x="782" y="0" type="curve"/>
      <point x="924" y="0" type="line"/>
      <point x="929" y="71" type="line"/>
      <point x="862" y="77" type="line"/>
      <point x="858" y="95"/>
      <point x="848" y="152"/>
      <point x="845" y="192" type="curve" smooth="yes"/>
      <point x="821" y="512" type="line" smooth="yes"/>
      <point x="818" y="552"/>
      <point x="819" y="595"/>
      <point x="820" y="623" type="curve"/>
      <point x="885" y="629" type="line"/>
      <point x="880" y="710" type="line"/>
      <point x="880" y="710"/>
      <point x="803" y="705"/>
      <point x="748" y="705" type="curve" smooth="yes"/>
    </contour>
  </outline>
</glyph>
<glyph name="N" format="1">
  <advance width="810"/>
  <unicode hex="004E"/>
  <outline>
    <contour>
      <point x="778" y="629" type="line"/>
      <point x="712" y="623" type="line"/>
      <point x="710" y="611"/>
      <point x="703" y="552"/>
      <point x="703" y="512" type="curve" smooth="yes"/>
      <point x="703" y="0" type="line"/>
      <point x="568" y="0" type="line"/>
      <point x="243" y="450" type="line"/>
      <point x="243" y="193" type="line" smooth="yes"/>
      <point x="243" y="153"/>
      <point x="251" y="87"/>
      <point x="252" y="77" type="curve"/>
      <point x="317" y="71" type="line"/>
      <point x="312" y="0" type="line"/>
      <point x="176" y="0" type="line"/>
      <point x="146" y="0"/>
      <point x="46" y="-5"/>
      <point x="46" y="-5" type="curve"/>
      <point x="41" y="65" type="line"/>
      <point x="107" y="77" type="line"/>
      <point x="109" y="88"/>
      <point x="116" y="143"/>
      <point x="116" y="163" type="curve" smooth="yes"/>
      <point x="116" y="542" type="line" smooth="yes"/>
      <point x="116" y="562"/>
      <point x="109" y="612"/>
      <point x="107" y="623" type="curve"/>
      <point x="42" y="635" type="line"/>
      <point x="47" y="710" type="line"/>
      <point x="47" y="710"/>
      <point x="137" y="705"/>
      <point x="157" y="705" type="curve" smooth="yes"/>
      <point x="249" y="705" type="line"/>
      <point x="268" y="685" type="line"/>
      <point x="268" y="685"/>
      <point x="341" y="559"/>
      <point x="356" y="537" type="curve" smooth="yes"/>
      <point x="576" y="230" type="line"/>
      <point x="576" y="542" type="line" smooth="yes"/>
      <point x="576" y="562"/>
      <point x="569" y="607"/>
      <point x="567" y="623" type="curve"/>
      <point x="502" y="635" type="line"/>
      <point x="507" y="710" type="line"/>
      <point x="542" y="708"/>
      <point x="591" y="705"/>
      <point x="611" y="705" type="curve"/>
      <point x="681" y="705"/>
      <point x="773" y="710"/>
      <point x="773" y="710" type="curve"/>
    </contour>
    <contour>
      <point x="397" y="705" type="move" name="top"/>
    </contour>
    <contour>
      <point x="397" y="0" type="move" name="bottom"/>
    </contour>
  </outline>
</glyph>
<glyph name="O" format="1">
  <advance width="812"/>
  <unicode hex="004F"/>
  <outline>
    <contour>
      <point x="763" y="574"/>
      <point x="623" y="720"/>
      <point x="406" y="720" type="curve" smooth="yes"/>
      <point x="189" y="720"/>
      <point x="49" y="574"/>
      <point x="49" y="352" type="curve" smooth="yes"/>
      <point x="49" y="131"/>
      <point x="189" y="-15"/>
      <point x="406" y="-15" type="curve" smooth="yes"/>
      <point x="623" y="-15"/>
      <point x="763" y="131"/>
      <point x="763" y="352" type="curve" smooth="yes"/>
    </contour>
    <contour>
      <point x="229" y="535"/>
      <point x="286" y="623"/>
      <point x="406" y="623" type="curve" smooth="yes"/>
      <point x="526" y="623"/>
      <point x="583" y="535"/>
      <point x="583" y="352" type="curve" smooth="yes"/>
      <point x="583" y="170"/>
      <point x="526" y="82"/>
      <point x="406" y="82" type="curve" smooth="yes"/>
      <point x="286" y="82"/>
      <point x="229" y="170"/>
      <point x="229" y="352" type="curve" smooth="yes"/>
    </contour>
    <contour>
      <point x="559" y="10" type="move" name="ogonek"/>
    </contour>
    <contour>
      <point x="405" y="705" type="move" name="top"/>
    </contour>
    <contour>
      <point x="666" y="567" type="move" name="horn"/>
    </contour>
    <contour>
      <point x="406" y="0" type="move" name="bottom"/>
    </contour>
  </outline>
</glyph>
<glyph name="P" format="1">
  <advance width="630"/>
  <unicode hex="0050"/>
  <outline>
    <contour>
      <point x="306" y="710"/>
      <point x="222" y="705"/>
      <point x="167" y="705" type="curve"/>
      <point x="121" y="614" type="line"/>
      <point x="169" y="618"/>
      <point x="283" y="628"/>
      <point x="303" y="628" type="curve" smooth="yes"/>
      <point x="396" y="628"/>
      <point x="436" y="586"/>
      <point x="436" y="497" type="curve" smooth="yes"/>
      <point x="436" y="405"/>
      <point x="379" y="353"/>
      <point x="288" y="353" type="curve" smooth="yes"/>
      <point x="251" y="353"/>
      <point x="165" y="353"/>
      <point x="165" y="353" type="curve"/>
      <point x="165" y="271" type="line"/>
      <point x="165" y="271"/>
      <point x="252" y="271"/>
      <point x="326" y="271" type="curve" smooth="yes"/>
      <point x="468" y="271"/>
      <point x="597" y="354"/>
      <point x="597" y="496" type="curve" smooth="yes"/>
      <point x="597" y="631"/>
      <point x="501" y="710"/>
      <point x="361" y="710" type="curve" smooth="yes"/>
    </contour>
    <contour>
      <point x="167" y="705" type="line"/>
      <point x="137" y="705"/>
      <point x="47" y="710"/>
      <point x="47" y="710" type="curve"/>
      <point x="42" y="635" type="line"/>
      <point x="107" y="623" type="line"/>
      <point x="109" y="607"/>
      <point x="116" y="562"/>
      <point x="116" y="542" type="curve" smooth="yes"/>
      <point x="116" y="163" type="line" smooth="yes"/>
      <point x="116" y="143"/>
      <point x="108" y="87"/>
      <point x="107" y="77" type="curve"/>
      <point x="41" y="65" type="line"/>
      <point x="46" y="-5" type="line"/>
      <point x="46" y="-5"/>
      <point x="166" y="0"/>
      <point x="196" y="0" type="curve"/>
      <point x="350" y="0" type="line"/>
      <point x="355" y="71" type="line"/>
      <point x="280" y="77" type="line"/>
      <point x="278" y="91"/>
      <point x="271" y="153"/>
      <point x="271" y="193" type="curve" smooth="yes"/>
      <point x="271" y="512" type="line" smooth="yes"/>
      <point x="271" y="552"/>
      <point x="275" y="618"/>
      <point x="278" y="643" type="curve"/>
    </contour>
  </outline>
</glyph>
<glyph name="Q" format="1">
  <advance width="774"/>
  <unicode hex="0051"/>
  <outline>
    <contour>
      <point x="683" y="-224" type="line"/>
      <point x="773" y="-100" type="line"/>
      <point x="773" y="-100"/>
      <point x="631" y="-42"/>
      <point x="615" y="-32" type="curve" smooth="yes"/>
      <point x="546" y="14" type="line"/>
      <point x="668" y="69"/>
      <point x="741" y="190"/>
      <point x="741" y="352" type="curve" smooth="yes"/>
      <point x="741" y="578"/>
      <point x="601" y="724"/>
      <point x="384" y="724" type="curve" smooth="yes"/>
      <point x="167" y="724"/>
      <point x="27" y="578"/>
      <point x="27" y="352" type="curve" smooth="yes"/>
      <point x="27" y="127"/>
      <point x="167" y="-19"/>
      <point x="384" y="-19" type="curve" smooth="yes"/>
      <point x="391" y="-19"/>
      <point x="398" y="-19"/>
      <point x="405" y="-19" type="curve"/>
    </contour>
    <contour>
      <point x="207" y="539"/>
      <point x="264" y="627"/>
      <point x="384" y="627" type="curve" smooth="yes"/>
      <point x="504" y="627"/>
      <point x="561" y="539"/>
      <point x="561" y="352" type="curve" smooth="yes"/>
      <point x="561" y="166"/>
      <point x="504" y="78"/>
      <point x="384" y="78" type="curve" smooth="yes"/>
      <point x="264" y="78"/>
      <point x="207" y="166"/>
      <point x="207" y="352" type="curve" smooth="yes"/>
    </contour>
  </outline>
</glyph>
<glyph name="T" format="1">
  <advance width="663"/>
  <unicode hex="0054"/>
  <outline>
    <contour>
      <point x="54" y="710"/>
      <point x="148" y="705"/>
      <point x="168" y="705" type="curve" smooth="yes"/>
      <point x="494" y="705" type="line"/>
      <point x="514" y="705"/>
      <point x="579" y="708"/>
      <point x="609" y="710" type="curve"/>
      <point x="628" y="692" type="line"/>
      <point x="636" y="512" type="line"/>
      <point x="566" y="507" type="line"/>
      <point x="564" y="524"/>
      <point x="559" y="568"/>
      <point x="557" y="583" type="curve"/>
      <point x="544" y="619" type="line"/>
      <point x="524" y="621"/>
      <point x="499" y="623"/>
      <point x="469" y="623" type="curve"/>
      <point x="198" y="623" type="line"/>
      <point x="168" y="623"/>
      <point x="138" y="621"/>
      <point x="118" y="619" type="curve"/>
      <point x="108" y="583" type="line"/>
      <point x="104" y="568"/>
      <point x="99" y="524"/>
      <point x="97" y="507" type="curve"/>
      <point x="27" y="512" type="line"/>
      <point x="34" y="692" type="line"/>
      <point x="54" y="710" type="line"/>
    </contour>
    <contour>
      <point x="413" y="621"/>
      <point x="409" y="552"/>
      <point x="409" y="512" type="curve" smooth="yes"/>
      <point x="409" y="193" type="line" smooth="yes"/>
      <point x="409" y="153"/>
      <point x="416" y="91"/>
      <point x="418" y="77" type="curve"/>
      <point x="503" y="71" type="line"/>
      <point x="498" y="0" type="line"/>
      <point x="334" y="0" type="line"/>
      <point x="304" y="0"/>
      <point x="164" y="-5"/>
      <point x="164" y="-5" type="curve"/>
      <point x="159" y="65" type="line"/>
      <point x="245" y="77" type="line"/>
      <point x="246" y="87"/>
      <point x="254" y="143"/>
      <point x="254" y="163" type="curve" smooth="yes"/>
      <point x="254" y="542" type="line" smooth="yes"/>
      <point x="254" y="562"/>
      <point x="249" y="620"/>
      <point x="247" y="643" type="curve"/>
      <point x="416" y="643" type="line"/>
    </contour>
    <contour>
      <point x="331" y="353" type="move" name="center"/>
    </contour>
    <contour>
      <point x="331" y="0" type="move" name="bottom"/>
    </contour>
    <contour>
      <point x="331" y="705" type="move" name="top"/>
    </contour>
  </outline>
</glyph>
<glyph name="U" format="1">
  <advance width="779"/>
  <unicode hex="0055"/>
  <outline>
    <contour>
      <point x="123" y="705"/>
      <point x="50" y="709"/>
      <point x="31" y="710" type="curve"/>
      <point x="26" y="635" type="line"/>
      <point x="91" y="623" type="line"/>
      <point x="94" y="609"/>
      <point x="99" y="562"/>
      <point x="99" y="542" type="curve" smooth="yes"/>
      <point x="99" y="268" type="line" smooth="yes"/>
      <point x="99" y="97"/>
      <point x="197" y="-15"/>
      <point x="388" y="-15" type="curve" smooth="yes"/>
      <point x="578" y="-15"/>
      <point x="678" y="97"/>
      <point x="678" y="268" type="curve" smooth="yes"/>
      <point x="678" y="512" type="line" smooth="yes"/>
      <point x="678" y="552"/>
      <point x="684" y="609"/>
      <point x="687" y="623" type="curve"/>
      <point x="753" y="629" type="line"/>
      <point x="748" y="710" type="line"/>
      <point x="748" y="710"/>
      <point x="667" y="705"/>
      <point x="587" y="705" type="curve" smooth="yes"/>
      <point x="557" y="705"/>
      <point x="477" y="710"/>
      <point x="477" y="710" type="curve"/>
      <point x="472" y="635" type="line"/>
      <point x="537" y="623" type="line"/>
      <point x="539" y="608"/>
      <point x="546" y="562"/>
      <point x="546" y="542" type="curve" smooth="yes"/>
      <point x="546" y="260" type="line" smooth="yes"/>
      <point x="546" y="160"/>
      <point x="510" y="99"/>
      <point x="405" y="99" type="curve" smooth="yes"/>
      <point x="310" y="99"/>
      <point x="259" y="170"/>
      <point x="259" y="260" type="curve" smooth="yes"/>
      <point x="259" y="512" type="line" smooth="yes"/>
      <point x="259" y="552"/>
      <point x="264" y="612"/>
      <point x="267" y="623" type="curve"/>
      <point x="333" y="629" type="line"/>
      <point x="328" y="710" type="line"/>
      <point x="328" y="710"/>
      <point x="233" y="705"/>
      <point x="153" y="705" type="curve"/>
    </contour>
    <contour>
      <point x="526" y="10" type="move" name="ogonek"/>
    </contour>
    <contour>
      <point x="399" y="705" type="move" name="top"/>
    </contour>
    <contour>
      <point x="657" y="467" type="move" name="horn"/>
    </contour>
    <contour>
      <point x="387" y="0" type="move" name="bottom"/>
    </contour>
  </outline>
</glyph>
<glyph name="V" format="1">
  <advance width="731"/>
  <unicode hex="0056"/>
  <outline>
    <contour>
      <point x="308" y="0" type="line"/>
      <point x="423" y="0" type="line"/>
      <point x="611" y="512" type="line" smooth="yes"/>
      <point x="622" y="542"/>
      <point x="666" y="624"/>
      <point x="666" y="624" type="curve"/>
      <point x="718" y="629" type="line"/>
      <point x="713" y="710" type="line"/>
      <point x="713" y="710"/>
      <point x="636" y="705"/>
      <point x="566" y="705" type="curve" smooth="yes"/>
      <point x="536" y="705"/>
      <point x="456" y="710"/>
      <point x="456" y="710" type="curve"/>
      <point x="451" y="635" type="line"/>
      <point x="515" y="623" type="line"/>
      <point x="509" y="596"/>
      <point x="498" y="557"/>
      <point x="493" y="542" type="curve" smooth="yes"/>
      <point x="381" y="207" type="line"/>
      <point x="285" y="512" type="line" smooth="yes"/>
      <point x="279" y="532"/>
      <point x="258" y="606"/>
      <point x="256" y="623" type="curve"/>
      <point x="322" y="629" type="line"/>
      <point x="317" y="710" type="line"/>
      <point x="317" y="710"/>
      <point x="217" y="705"/>
      <point x="137" y="705" type="curve" smooth="yes"/>
      <point x="117" y="705"/>
      <point x="17" y="710"/>
      <point x="17" y="710" type="curve"/>
      <point x="12" y="635" type="line"/>
      <point x="76" y="623" type="line"/>
      <point x="89" y="599"/>
      <point x="103" y="568"/>
      <point x="110" y="548" type="curve" smooth="yes"/>
    </contour>
  </outline>
</glyph>
<glyph name="W" format="1">
  <advance width="1047"/>
  <unicode hex="0057"/>
  <outline>
    <contour>
      <point x="1034" y="629" type="line"/>
      <point x="1029" y="710" type="line"/>
      <point x="1029" y="710"/>
      <point x="952" y="705"/>
      <point x="882" y="705" type="curve" smooth="yes"/>
      <point x="852" y="705"/>
      <point x="772" y="710"/>
      <point x="772" y="710" type="curve"/>
      <point x="767" y="635" type="line"/>
      <point x="834" y="623" type="line"/>
      <point x="832" y="600"/>
      <point x="820" y="553"/>
      <point x="817" y="543" type="curve" smooth="yes"/>
      <point x="728" y="207" type="line"/>
      <point x="597" y="675" type="line"/>
      <point x="484" y="675" type="line"/>
      <point x="351" y="207" type="line"/>
      <point x="276" y="512" type="line" smooth="yes"/>
      <point x="270" y="538"/>
      <point x="256" y="606"/>
      <point x="256" y="623" type="curve"/>
      <point x="322" y="629" type="line"/>
      <point x="317" y="710" type="line"/>
      <point x="317" y="710"/>
      <point x="219" y="705"/>
      <point x="139" y="705" type="curve" smooth="yes"/>
      <point x="109" y="705"/>
      <point x="17" y="710"/>
      <point x="17" y="710" type="curve"/>
      <point x="12" y="635" type="line"/>
      <point x="72" y="624" type="line"/>
      <point x="86" y="601"/>
      <point x="100" y="561"/>
      <point x="106" y="543" type="curve" smooth="yes"/>
      <point x="278" y="0" type="line"/>
      <point x="393" y="0" type="line"/>
      <point x="527" y="423" type="line"/>
      <point x="655" y="0" type="line"/>
      <point x="770" y="0" type="line"/>
      <point x="934" y="512" type="line" smooth="yes"/>
      <point x="944" y="544"/>
      <point x="974" y="608"/>
      <point x="984" y="624" type="curve"/>
    </contour>
    <contour>
      <point x="525" y="705" type="move" name="top"/>
    </contour>
  </outline>
</glyph>
<glyph name="X" format="1">
  <advance width="742"/>
  <unicode hex="0058"/>
  <outline>
    <contour>
      <point x="284" y="343" type="line"/>
      <point x="160" y="164" type="line" smooth="yes"/>
      <point x="146" y="144"/>
      <point x="105" y="102"/>
      <point x="78" y="74" type="curve"/>
      <point x="25" y="65" type="line"/>
      <point x="30" y="-5" type="line"/>
      <point x="30" y="-5"/>
      <point x="140" y="0"/>
      <point x="170" y="0" type="curve"/>
      <point x="275" y="0" type="line"/>
      <point x="280" y="71" type="line"/>
      <point x="234" y="76" type="line"/>
      <point x="244" y="97"/>
      <point x="256" y="119"/>
      <point x="265" y="132" type="curve" smooth="yes"/>
      <point x="347" y="253" type="line"/>
      <point x="425" y="142" type="line" smooth="yes"/>
      <point x="437" y="127"/>
      <point x="452" y="97"/>
      <point x="464" y="72" type="curve"/>
      <point x="426" y="65" type="line"/>
      <point x="431" y="-5" type="line"/>
      <point x="431" y="-5"/>
      <point x="572" y="0"/>
      <point x="612" y="0" type="curve"/>
      <point x="714" y="0" type="line"/>
      <point x="719" y="71" type="line"/>
      <point x="668" y="79" type="line"/>
      <point x="649" y="99"/>
      <point x="630" y="118"/>
      <point x="620" y="132" type="curve" smooth="yes"/>
      <point x="446" y="378" type="line"/>
      <point x="571" y="569" type="line" smooth="yes"/>
      <point x="582" y="583"/>
      <point x="607" y="603"/>
      <point x="631" y="623" type="curve"/>
      <point x="696" y="629" type="line"/>
      <point x="691" y="710" type="line"/>
      <point x="691" y="710"/>
      <point x="614" y="705"/>
      <point x="544" y="705" type="curve" smooth="yes"/>
      <point x="524" y="705"/>
      <point x="443" y="710"/>
      <point x="443" y="710" type="curve"/>
      <point x="438" y="635" type="line"/>
      <point x="476" y="627" type="line"/>
      <point x="467" y="608"/>
      <point x="459" y="592"/>
      <point x="450" y="578" type="curve" smooth="yes"/>
      <point x="382" y="469" type="line"/>
      <point x="325" y="555" type="line" smooth="yes"/>
      <point x="313" y="572"/>
      <point x="296" y="601"/>
      <point x="285" y="625" type="curve"/>
      <point x="328" y="629" type="line"/>
      <point x="323" y="710" type="line"/>
      <point x="323" y="710"/>
      <point x="234" y="705"/>
      <point x="154" y="705" type="curve" smooth="yes"/>
      <point x="134" y="705"/>
      <point x="34" y="710"/>
      <point x="34" y="710" type="curve"/>
      <point x="29" y="635" type="line"/>
      <point x="83" y="625" type="line"/>
      <point x="100" y="602"/>
      <point x="121" y="576"/>
      <point x="134" y="558" type="curve" smooth="yes"/>
    </contour>
  </outline>
</glyph>
<glyph name="Y" format="1">
  <advance width="724"/>
  <unicode hex="0059"/>
  <outline>
    <contour>
      <point x="712" y="629" type="line"/>
      <point x="707" y="710" type="line"/>
      <point x="707" y="710"/>
      <point x="638" y="705"/>
      <point x="568" y="705" type="curve" smooth="yes"/>
      <point x="538" y="705"/>
      <point x="458" y="710"/>
      <point x="458" y="710" type="curve"/>
      <point x="453" y="635" type="line"/>
      <point x="502" y="627" type="line"/>
      <point x="502" y="627"/>
      <point x="497" y="598"/>
      <point x="493" y="590" type="curve" smooth="yes"/>
      <point x="383" y="369" type="line"/>
      <point x="278" y="576" type="line" smooth="yes"/>
      <point x="268" y="595"/>
      <point x="262" y="624"/>
      <point x="262" y="624" type="curve"/>
      <point x="314" y="629" type="line"/>
      <point x="309" y="710" type="line"/>
      <point x="309" y="710"/>
      <point x="217" y="705"/>
      <point x="137" y="705" type="curve" smooth="yes"/>
      <point x="117" y="705"/>
      <point x="17" y="710"/>
      <point x="17" y="710" type="curve"/>
      <point x="12" y="635" type="line"/>
      <point x="77" y="623" type="line"/>
      <point x="77" y="623"/>
      <point x="98" y="601"/>
      <point x="112" y="577" type="curve" smooth="yes"/>
      <point x="310" y="212" type="line"/>
      <point x="425" y="212" type="line"/>
      <point x="598" y="544" type="line" smooth="yes"/>
      <point x="615" y="576"/>
      <point x="660" y="623"/>
      <point x="660" y="623" type="curve"/>
    </contour>
    <contour>
      <point x="290" y="163" type="line" smooth="yes"/>
      <point x="290" y="143"/>
      <point x="284" y="87"/>
      <point x="283" y="77" type="curve"/>
      <point x="215" y="65" type="line"/>
      <point x="220" y="-5" type="line"/>
      <point x="220" y="-5"/>
      <point x="340" y="0"/>
      <point x="370" y="0" type="curve"/>
      <point x="514" y="0" type="line"/>
      <point x="519" y="71" type="line"/>
      <point x="452" y="77" type="line"/>
      <point x="450" y="91"/>
      <point x="445" y="153"/>
      <point x="445" y="193" type="curve" smooth="yes"/>
      <point x="445" y="304" type="line"/>
      <point x="290" y="304" type="line"/>
    </contour>
    <contour>
      <point x="366" y="705" type="move" name="top"/>
    </contour>
    <contour>
      <point x="360" y="0" type="move" name="bottom"/>
    </contour>
  </outline>
</glyph>
<glyph name="backslash" format="1">
  <advance width="398"/>
  <unicode hex="005C"/>
  <outline>
    <contour>
      <point x="392" y="-35" type="line"/>
      <point x="86" y="773" type="line"/>
      <point x="-7" y="743" type="line"/>
      <point x="298" y="-65" type="line"/>
    </contour>
  </outline>
</glyph>
<glyph name="asciicircum" format="1">
  <advance width="588"/>
  <unicode hex="005E"/>
  <outline>
    <contour>
      <point x="568" y="373" type="line"/>
      <point x="479" y="314" type="line"/>
      <point x="294" y="578" type="line"/>
      <point x="109" y="314" type="line"/>
      <point x="20" y="373" type="line"/>
      <point x="294" y="732" type="line"/>
    </contour>
  </outline>
</glyph>
<glyph name="grave" format="1">
  <advance width="360"/>
  <unicode hex="0060"/>
  <outline>
    <contour>
      <point x="260" y="565" type="line"/>
      <point x="303" y="618" type="line"/>
      <point x="96" y="750" type="line"/>
      <point x="53" y="679" type="line"/>
    </contour>
    <contour>
      <point x="200" y="494" type="move" name="_top"/>
    </contour>
  </outline>
</glyph>
<glyph name="a" format="1">
  <advance width="528"/>
  <unicode hex="0061"/>
  <outline>
    <contour>
      <point x="334" y="0" type="line"/>
      <point x="469" y="0"/>
      <point x="518" y="0"/>
      <point x="518" y="0" type="curve"/>
      <point x="524" y="71" type="line"/>
      <point x="464" y="77" type="line"/>
      <point x="464" y="77"/>
      <point x="455" y="143"/>
      <point x="455" y="193" type="curve" smooth="yes"/>
      <point x="455" y="323" type="line" smooth="yes"/>
      <point x="455" y="437"/>
      <point x="378" y="503"/>
      <point x="246" y="503" type="curve" smooth="yes"/>
      <point x="202" y="503"/>
      <point x="123" y="491"/>
      <point x="63" y="476" type="curve"/>
      <point x="78" y="307" type="line"/>
      <point x="153" y="310" type="line"/>
      <point x="152" y="353" type="line"/>
      <point x="159" y="393" type="line"/>
      <point x="182" y="404"/>
      <point x="216" y="412"/>
      <point x="240" y="412" type="curve" smooth="yes"/>
      <point x="294" y="412"/>
      <point x="315" y="387"/>
      <point x="315" y="322" type="curve" smooth="yes"/>
      <point x="315" y="293" type="line"/>
      <point x="173" y="270" type="line" smooth="yes"/>
      <point x="85" y="256"/>
      <point x="41" y="210"/>
      <point x="41" y="132" type="curve" smooth="yes"/>
      <point x="41" y="44"/>
      <point x="97" y="-10"/>
      <point x="188" y="-10" type="curve" smooth="yes"/>
      <point x="251" y="-10"/>
      <point x="295" y="16"/>
      <point x="326" y="72" type="curve"/>
    </contour>
    <contour>
      <point x="315" y="228" type="line"/>
      <point x="315" y="157" type="line"/>
      <point x="305" y="117"/>
      <point x="278" y="93"/>
      <point x="243" y="93" type="curve" smooth="yes"/>
      <point x="206" y="93"/>
      <point x="189" y="113"/>
      <point x="189" y="154" type="curve" smooth="yes"/>
      <point x="189" y="191"/>
      <point x="204" y="209"/>
      <point x="241" y="216" type="curve" smooth="yes"/>
    </contour>
    <contour>
      <point x="518" y="0" type="move" name="ogonek"/>
    </contour>
    <contour>
      <point x="263" y="0" type="move" name="bottom"/>
    </contour>
    <contour>
      <point x="245" y="494" type="move" name="top"/>
    </contour>
  </outline>
</glyph>
<glyph name="d" format="1">
  <advance width="619"/>
  <unicode hex="0064"/>
  <outline>
    <contour>
      <point x="591" y="71" type="line"/>
      <point x="531" y="77" type="line"/>
      <point x="531" y="77"/>
      <point x="522" y="143"/>
      <point x="522" y="193" type="curve" smooth="yes"/>
      <point x="522" y="557" type="line" smooth="yes"/>
      <point x="522" y="607"/>
      <point x="532" y="737"/>
      <point x="532" y="737" type="curve"/>
      <point x="511" y="756" type="line"/>
      <point x="423" y="756" type="line" smooth="yes"/>
      <point x="381" y="756"/>
      <point x="306" y="766"/>
      <point x="306" y="766" type="curve"/>
      <point x="297" y="691" type="line"/>
      <point x="372" y="674" type="line"/>
      <point x="372" y="674"/>
      <point x="382" y="607"/>
      <point x="382" y="587" type="curve" smooth="yes"/>
      <point x="382" y="498" type="line"/>
      <point x="353" y="501"/>
      <point x="325" y="503"/>
      <point x="301" y="503" type="curve" smooth="yes"/>
      <point x="141" y="503"/>
      <point x="50" y="407"/>
      <point x="50" y="239" type="curve" smooth="yes"/>
      <point x="50" y="80"/>
      <point x="118" y="-10"/>
      <point x="240" y="-10" type="curve" smooth="yes"/>
      <point x="305" y="-10"/>
      <point x="351" y="15"/>
      <point x="393" y="75" type="curve"/>
      <point x="401" y="0" type="line"/>
      <point x="536" y="0"/>
      <point x="585" y="0"/>
      <point x="585" y="0" type="curve"/>
    </contour>
    <contour>
      <point x="382" y="233" type="line"/>
      <point x="377" y="147"/>
      <point x="347" y="103"/>
      <point x="294" y="103" type="curve" smooth="yes"/>
      <point x="236" y="103"/>
      <point x="209" y="150"/>
      <point x="209" y="252" type="curve" smooth="yes"/>
      <point x="209" y="362"/>
      <point x="240" y="408"/>
      <point x="313" y="408" type="curve" smooth="yes"/>
      <point x="331" y="408"/>
      <point x="354" y="404"/>
      <point x="382" y="395" type="curve"/>
    </contour>
    <contour>
      <point x="320" y="247" type="move" name="center"/>
    </contour>
  </outline>
</glyph>
<glyph name="e" format="1">
  <advance width="498"/>
  <unicode hex="0065"/>
  <outline>
    <contour>
      <point x="122" y="503"/>
      <point x="25" y="410"/>
      <point x="25" y="242" type="curve" smooth="yes"/>
      <point x="25" y="79"/>
      <point x="117" y="-15"/>
      <point x="270" y="-15" type="curve" smooth="yes"/>
      <point x="348" y="-15"/>
      <point x="414" y="9"/>
      <point x="466" y="56" type="curve"/>
      <point x="431" y="114" type="line"/>
      <point x="431" y="114"/>
      <point x="383" y="81"/>
      <point x="310" y="81" type="curve" smooth="yes"/>
      <point x="223" y="81"/>
      <point x="184" y="126"/>
      <point x="184" y="256" type="curve" smooth="yes"/>
      <point x="184" y="351"/>
      <point x="195" y="424"/>
      <point x="255" y="424" type="curve" smooth="yes"/>
      <point x="298" y="424"/>
      <point x="318" y="386"/>
      <point x="318" y="310" type="curve" smooth="yes"/>
      <point x="318" y="308"/>
      <point x="317" y="302"/>
      <point x="317" y="302" type="curve"/>
      <point x="174" y="294" type="line"/>
      <point x="173" y="221" type="line"/>
      <point x="454" y="221" type="line"/>
      <point x="475" y="260" type="line"/>
      <point x="484" y="412"/>
      <point x="408" y="503"/>
      <point x="266" y="503" type="curve" smooth="yes"/>
    </contour>
    <contour>
      <point x="411" y="10" type="move" name="ogonek"/>
    </contour>
    <contour>
      <point x="267" y="0" type="move" name="bottom"/>
    </contour>
    <contour>
      <point x="261" y="494" type="move" name="top"/>
    </contour>
  </outline>
</glyph>
<glyph name="i" format="1">
  <advance width="353"/>
  <unicode hex="0069"/>
  <outline>
    <component base="dotlessi"/>
    <component base="dotaccent" xOffset="1"/>
    <contour>
      <point x="322" y="0" type="move" name="ogonek"/>
    </contour>
    <contour>
      <point x="182" y="0" type="move" name="bottom"/>
    </contour>
  </outline>
</glyph>
<glyph name="j" format="1">
  <advance width="308"/>
  <unicode hex="006A"/>
  <outline>
    <contour>
      <point x="5" y="429" type="line"/>
      <point x="80" y="412" type="line"/>
      <point x="80" y="412"/>
      <point x="90" y="345"/>
      <point x="90" y="325" type="curve" smooth="yes"/>
      <point x="90" y="117" type="line" smooth="yes"/>
      <point x="90" y="67"/>
      <point x="90" y="21"/>
      <point x="90" y="21" type="curve"/>
      <point x="90" y="-19"/>
      <point x="15" y="-209"/>
      <point x="15" y="-209" type="curve"/>
      <point x="62" y="-235" type="line"/>
      <point x="62" y="-235"/>
      <point x="230" y="-50"/>
      <point x="230" y="-10" type="curve" smooth="yes"/>
      <point x="230" y="295" type="line" smooth="yes"/>
      <point x="230" y="345"/>
      <point x="240" y="477"/>
      <point x="240" y="477" type="curve"/>
      <point x="219" y="496" type="line"/>
      <point x="131" y="494" type="line" smooth="yes"/>
      <point x="89" y="494"/>
      <point x="14" y="503"/>
      <point x="14" y="503" type="curve"/>
    </contour>
    <contour>
      <point x="100" y="735"/>
      <point x="72" y="702"/>
      <point x="72" y="655" type="curve" smooth="yes"/>
      <point x="72" y="608"/>
      <point x="100" y="576"/>
      <point x="151" y="576" type="curve" smooth="yes"/>
      <point x="202" y="576"/>
      <point x="230" y="608"/>
      <point x="230" y="655" type="curve" smooth="yes"/>
      <point x="230" y="705"/>
      <point x="200" y="735"/>
      <point x="151" y="735" type="curve" smooth="yes"/>
    </contour>
  </outline>
</glyph>
<glyph name="l" format="1">
  <advance width="336"/>
  <unicode hex="006C"/>
  <outline>
    <contour>
      <point x="13" y="691" type="line"/>
      <point x="88" y="674" type="line"/>
      <point x="88" y="674"/>
      <point x="98" y="607"/>
      <point x="98" y="587" type="curve" smooth="yes"/>
      <point x="98" y="163" type="line" smooth="yes"/>
      <point x="98" y="143"/>
      <point x="91" y="88"/>
      <point x="89" y="77" type="curve"/>
      <point x="23" y="65" type="line"/>
      <point x="28" y="-5" type="line"/>
      <point x="28" y="-5"/>
      <point x="128" y="0"/>
      <point x="148" y="0" type="curve" smooth="yes"/>
      <point x="261" y="0"/>
      <point x="307" y="0"/>
      <point x="307" y="0" type="curve"/>
      <point x="312" y="71" type="line"/>
      <point x="247" y="77" type="line"/>
      <point x="247" y="77"/>
      <point x="238" y="143"/>
      <point x="238" y="193" type="curve" smooth="yes"/>
      <point x="238" y="557" type="line" smooth="yes"/>
      <point x="238" y="607"/>
      <point x="244" y="694"/>
      <point x="248" y="737" type="curve"/>
      <point x="227" y="756" type="line"/>
      <point x="139" y="756" type="line" smooth="yes"/>
      <point x="97" y="756"/>
      <point x="22" y="766"/>
      <point x="22" y="766" type="curve"/>
    </contour>
    <contour>
      <point x="141" y="756" type="move" name="top"/>
    </contour>
    <contour>
      <point x="166" y="0" type="move" name="bottom"/>
    </contour>
    <contour>
      <point x="310" y="494" type="move" name="topright"/>
    </contour>
  </outline>
</glyph>
<glyph name="m" format="1">
  <advance width="941"/>
  <unicode hex="006D"/>
  <outline>
    <contour>
      <point x="600" y="503"/>
      <point x="547" y="444"/>
      <point x="505" y="362" type="curve"/>
      <point x="551" y="265" type="line"/>
      <point x="551" y="355"/>
      <point x="596" y="403"/>
      <point x="642" y="403" type="curve" smooth="yes"/>
      <point x="689" y="403"/>
      <point x="708" y="363"/>
      <point x="708" y="311" type="curve" smooth="yes"/>
      <point x="708" y="163" type="line" smooth="yes"/>
      <point x="708" y="153"/>
      <point x="705" y="113"/>
      <point x="703" y="77" type="curve"/>
      <point x="647" y="65" type="line"/>
      <point x="652" y="-5" type="line"/>
      <point x="652" y="-5"/>
      <point x="752" y="0"/>
      <point x="772" y="0" type="curve" smooth="yes"/>
      <point x="885" y="0"/>
      <point x="917" y="0"/>
      <point x="917" y="0" type="curve"/>
      <point x="922" y="71" type="line"/>
      <point x="857" y="77" type="line"/>
      <point x="857" y="77"/>
      <point x="848" y="143"/>
      <point x="848" y="193" type="curve" smooth="yes"/>
      <point x="848" y="325" type="line" smooth="yes"/>
      <point x="848" y="441"/>
      <point x="793" y="503"/>
      <point x="689" y="503" type="curve" smooth="yes"/>
    </contour>
    <contour>
      <point x="29" y="429" type="line"/>
      <point x="104" y="412" type="line"/>
      <point x="104" y="412"/>
      <point x="114" y="345"/>
      <point x="114" y="325" type="curve" smooth="yes"/>
      <point x="114" y="163" type="line"/>
      <point x="114" y="143"/>
      <point x="105" y="77"/>
      <point x="105" y="77" type="curve"/>
      <point x="39" y="65" type="line"/>
      <point x="44" y="-5" type="line"/>
      <point x="44" y="-5"/>
      <point x="144" y="0"/>
      <point x="164" y="0" type="curve" smooth="yes"/>
      <point x="277" y="0"/>
      <point x="323" y="0"/>
      <point x="323" y="0" type="curve"/>
      <point x="328" y="71" type="line"/>
      <point x="263" y="77" type="line"/>
      <point x="263" y="77"/>
      <point x="254" y="143"/>
      <point x="254" y="193" type="curve" smooth="yes"/>
      <point x="254" y="265" type="line"/>
      <point x="224" y="475" type="line"/>
      <point x="203" y="494" type="line"/>
      <point x="155" y="494" type="line" smooth="yes"/>
      <point x="113" y="494"/>
      <point x="38" y="503"/>
      <point x="38" y="503" type="curve"/>
    </contour>
    <contour>
      <point x="303" y="503"/>
      <point x="250" y="444"/>
      <point x="208" y="362" type="curve"/>
      <point x="254" y="265" type="line"/>
      <point x="254" y="355"/>
      <point x="299" y="403"/>
      <point x="345" y="403" type="curve" smooth="yes"/>
      <point x="392" y="403"/>
      <point x="411" y="363"/>
      <point x="411" y="311" type="curve" smooth="yes"/>
      <point x="411" y="163" type="line" smooth="yes"/>
      <point x="411" y="153"/>
      <point x="408" y="113"/>
      <point x="406" y="77" type="curve"/>
      <point x="350" y="65" type="line"/>
      <point x="355" y="-5" type="line"/>
      <point x="355" y="-5"/>
      <point x="455" y="0"/>
      <point x="475" y="0" type="curve" smooth="yes"/>
      <point x="588" y="0"/>
      <point x="620" y="0"/>
      <point x="620" y="0" type="curve"/>
      <point x="625" y="71" type="line"/>
      <point x="560" y="77" type="line"/>
      <point x="560" y="77"/>
      <point x="551" y="143"/>
      <point x="551" y="193" type="curve" smooth="yes"/>
      <point x="551" y="325" type="line" smooth="yes"/>
      <point x="551" y="441"/>
      <point x="496" y="503"/>
      <point x="392" y="503" type="curve" smooth="yes"/>
    </contour>
  </outline>
</glyph>
<glyph name="s" format="1">
  <advance width="487"/>
  <unicode hex="0073"/>
  <outline>
    <contour>
      <point x="140" y="503"/>
      <point x="65" y="456"/>
      <point x="65" y="354" type="curve" smooth="yes"/>
      <point x="65" y="163"/>
      <point x="306" y="191"/>
      <point x="306" y="112" type="curve" smooth="yes"/>
      <point x="306" y="84"/>
      <point x="277" y="69"/>
      <point x="242" y="69" type="curve" smooth="yes"/>
      <point x="214" y="69"/>
      <point x="181" y="80"/>
      <point x="154" y="91" type="curve"/>
      <point x="154" y="90"/>
      <point x="145" y="123"/>
      <point x="145" y="128" type="curve" smooth="yes"/>
      <point x="145" y="133"/>
      <point x="145" y="173"/>
      <point x="145" y="173" type="curve"/>
      <point x="74" y="178" type="line"/>
      <point x="62" y="13" type="line"/>
      <point x="62" y="13"/>
      <point x="166" y="-10"/>
      <point x="239" y="-10" type="curve" smooth="yes"/>
      <point x="356" y="-10"/>
      <point x="434" y="44"/>
      <point x="434" y="146" type="curve" smooth="yes"/>
      <point x="434" y="335"/>
      <point x="184" y="311"/>
      <point x="184" y="385" type="curve" smooth="yes"/>
      <point x="184" y="405"/>
      <point x="202" y="423"/>
      <point x="249" y="423" type="curve" smooth="yes"/>
      <point x="280" y="423"/>
      <point x="301" y="415"/>
      <point x="319" y="407" type="curve"/>
      <point x="324" y="397"/>
      <point x="333" y="374"/>
      <point x="333" y="369" type="curve" smooth="yes"/>
      <point x="333" y="326" type="line"/>
      <point x="400" y="321" type="line"/>
      <point x="412" y="479" type="line"/>
      <point x="371" y="492"/>
      <point x="323" y="503"/>
      <point x="252" y="503" type="curve" smooth="yes"/>
    </contour>
    <contour>
      <point x="247" y="494" type="move" name="top"/>
    </contour>
    <contour>
      <point x="245" y="0" type="move" name="bottom"/>
    </contour>
  </outline>
</glyph>
<glyph name="v" format="1">
  <advance width="559"/>
  <unicode hex="0076"/>
  <outline>
    <contour>
      <point x="551" y="428" type="line"/>
      <point x="546" y="499" type="line"/>
      <point x="546" y="499"/>
      <point x="498" y="494"/>
      <point x="458" y="494" type="curve" smooth="yes"/>
      <point x="388" y="494"/>
      <point x="329" y="499"/>
      <point x="329" y="499" type="curve"/>
      <point x="324" y="428" type="line"/>
      <point x="369" y="424" type="line"/>
      <point x="363" y="398"/>
      <point x="355" y="366"/>
      <point x="351" y="354" type="curve" smooth="yes"/>
      <point x="283" y="148" type="line"/>
      <point x="227" y="354" type="line" smooth="yes"/>
      <point x="224" y="366"/>
      <point x="219" y="393"/>
      <point x="215" y="424" type="curve"/>
      <point x="260" y="428" type="line"/>
      <point x="255" y="499" type="line"/>
      <point x="255" y="499"/>
      <point x="191" y="494"/>
      <point x="151" y="494" type="curve" smooth="yes"/>
      <point x="81" y="494"/>
      <point x="2" y="503"/>
      <point x="2" y="503" type="curve"/>
      <point x="-3" y="434" type="line"/>
      <point x="62" y="423" type="line"/>
      <point x="76" y="392"/>
      <point x="88" y="357"/>
      <point x="92" y="344" type="curve" smooth="yes"/>
      <point x="100" y="322"/>
      <point x="212" y="0"/>
      <point x="212" y="0" type="curve"/>
      <point x="339" y="0" type="line"/>
      <point x="459" y="319" type="line" smooth="yes"/>
      <point x="464" y="333"/>
      <point x="487" y="382"/>
      <point x="506" y="422" type="curve"/>
    </contour>
  </outline>
</glyph>
<glyph name="z" format="1">
  <advance width="523"/>
  <unicode hex="007A"/>
  <outline>
    <contour>
      <point x="57" y="477" type="line"/>
      <point x="52" y="307" type="line"/>
      <point x="128" y="304" type="line"/>
      <point x="132" y="361" type="line" smooth="yes"/>
      <point x="132" y="368"/>
      <point x="141" y="394"/>
      <point x="145" y="403" type="curve"/>
      <point x="167" y="406"/>
      <point x="204" y="414"/>
      <point x="210" y="414" type="curve" smooth="yes"/>
      <point x="289" y="414" type="line"/>
      <point x="277" y="388"/>
      <point x="263" y="362"/>
      <point x="256" y="352" type="curve" smooth="yes"/>
      <point x="134" y="168" type="line" smooth="yes"/>
      <point x="120" y="146"/>
      <point x="50" y="70"/>
      <point x="50" y="70" type="curve"/>
      <point x="64" y="0" type="line"/>
      <point x="355" y="0" type="line" smooth="yes"/>
      <point x="375" y="0"/>
      <point x="449" y="-3"/>
      <point x="449" y="-3" type="curve"/>
      <point x="469" y="17" type="line"/>
      <point x="480" y="171" type="line"/>
      <point x="411" y="177" type="line"/>
      <point x="411" y="176"/>
      <point x="405" y="137"/>
      <point x="404" y="133" type="curve" smooth="yes"/>
      <point x="404" y="127"/>
      <point x="391" y="98"/>
      <point x="388" y="91" type="curve"/>
      <point x="365" y="88"/>
      <point x="322" y="80"/>
      <point x="316" y="80" type="curve" smooth="yes"/>
      <point x="235" y="80" type="line"/>
      <point x="247" y="106"/>
      <point x="260" y="132"/>
      <point x="267" y="142" type="curve" smooth="yes"/>
      <point x="387" y="327" type="line"/>
      <point x="464" y="425" type="line"/>
      <point x="457" y="494" type="line"/>
      <point x="170" y="494" type="line" smooth="yes"/>
      <point x="150" y="494"/>
      <point x="78" y="497"/>
      <point x="78" y="497" type="curve"/>
    </contour>
    <contour>
      <point x="249" y="494" type="move" name="top"/>
    </contour>
  </outline>
</glyph>
<glyph name="braceleft" format="1">
  <advance width="289"/>
  <unicode hex="007B"/>
  <outline>
    <contour>
      <point x="191" y="40" type="line"/>
      <point x="191" y="0"/>
      <point x="200" y="-50"/>
      <point x="200" y="-50" type="curve"/>
      <point x="269" y="-59" type="line"/>
      <point x="266" y="-125" type="line"/>
      <point x="266" y="-125"/>
      <point x="167" y="-121"/>
      <point x="98" y="-121" type="curve"/>
      <point x="74" y="-92" type="line"/>
      <point x="103" y="258" type="line"/>
      <point x="86" y="276"/>
      <point x="42" y="296"/>
      <point x="30" y="296" type="curve"/>
      <point x="34" y="345" type="line"/>
      <point x="43" y="345"/>
      <point x="87" y="364"/>
      <point x="104" y="383" type="curve"/>
      <point x="86" y="598"/>
      <point x="74" y="733"/>
      <point x="74" y="733" type="curve"/>
      <point x="98" y="762" type="line"/>
      <point x="167" y="762"/>
      <point x="266" y="766"/>
      <point x="266" y="766" type="curve"/>
      <point x="269" y="700" type="line"/>
      <point x="200" y="691" type="line"/>
      <point x="200" y="691"/>
      <point x="191" y="641"/>
      <point x="191" y="601" type="curve"/>
      <point x="201" y="367" type="line"/>
      <point x="171" y="339"/>
      <point x="132" y="325"/>
      <point x="132" y="325" type="curve"/>
      <point x="132" y="316" type="line"/>
      <point x="132" y="316"/>
      <point x="171" y="302"/>
      <point x="201" y="274" type="curve"/>
    </contour>
  </outline>
</glyph>
<glyph name="sterling" format="1">
  <advance width="616"/>
  <unicode hex="00A3"/>
  <outline>
    <contour>
      <point x="472" y="557"/>
      <point x="479" y="526"/>
      <point x="479" y="520" type="curve" smooth="yes"/>
      <point x="482" y="475" type="line"/>
      <point x="554" y="472" type="line"/>
      <point x="566" y="635" type="line"/>
      <point x="566" y="635"/>
      <point x="468" y="569"/>
      <point x="468" y="569" type="curve"/>
    </contour>
    <contour>
      <point x="47" y="328" type="line"/>
      <point x="457" y="347" type="line"/>
      <point x="455" y="411" type="line"/>
      <point x="45" y="393" type="line"/>
    </contour>
    <contour>
      <point x="52" y="222" type="line"/>
      <point x="462" y="241" type="line"/>
      <point x="460" y="305" type="line"/>
      <point x="50" y="287" type="line"/>
    </contour>
    <contour>
      <point x="134" y="163" type="line" smooth="yes"/>
      <point x="134" y="143"/>
      <point x="126" y="87"/>
      <point x="125" y="77" type="curve"/>
      <point x="59" y="65" type="line"/>
      <point x="64" y="-5" type="line"/>
      <point x="64" y="-5"/>
      <point x="184" y="0"/>
      <point x="214" y="0" type="curve" smooth="yes"/>
      <point x="438" y="0" type="line" smooth="yes"/>
      <point x="458" y="0"/>
      <point x="552" y="-4"/>
      <point x="552" y="-4" type="curve"/>
      <point x="571" y="14" type="line"/>
      <point x="586" y="190" type="line"/>
      <point x="516" y="195" type="line"/>
      <point x="514" y="179"/>
      <point x="508" y="153"/>
      <point x="504" y="138" type="curve"/>
      <point x="503" y="132"/>
      <point x="494" y="114"/>
      <point x="485" y="95" type="curve"/>
      <point x="466" y="91"/>
      <point x="437" y="87"/>
      <point x="408" y="87" type="curve" smooth="yes"/>
      <point x="287" y="87" type="line"/>
      <point x="284" y="108"/>
      <point x="279" y="151"/>
      <point x="279" y="193" type="curve" smooth="yes"/>
      <point x="279" y="488" type="line" smooth="yes"/>
      <point x="279" y="538"/>
      <point x="312" y="579"/>
      <point x="362" y="579" type="curve" smooth="yes"/>
      <point x="402" y="579"/>
      <point x="435" y="574"/>
      <point x="474" y="557" type="curve"/>
      <point x="566" y="635" type="line"/>
      <point x="501" y="651"/>
      <point x="428" y="667"/>
      <point x="363" y="667" type="curve" smooth="yes"/>
      <point x="233" y="667"/>
      <point x="134" y="596"/>
      <point x="134" y="466" type="curve" smooth="yes"/>
    </contour>
  </outline>
</glyph>
<glyph name="yen" format="1">
  <advance width="654"/>
  <unicode hex="00A5"/>
  <outline>
    <contour>
      <point x="397" y="286" type="line"/>
      <point x="256" y="538" type="line"/>
      <point x="246" y="559"/>
      <point x="220" y="640"/>
      <point x="220" y="640" type="curve"/>
      <point x="41" y="601" type="line"/>
      <point x="41" y="601"/>
      <point x="94" y="538"/>
      <point x="106" y="516" type="curve" smooth="yes"/>
      <point x="308" y="157" type="line"/>
    </contour>
    <contour>
      <point x="470" y="639" type="line"/>
      <point x="470" y="639"/>
      <point x="445" y="572"/>
      <point x="437" y="549" type="curve"/>
      <point x="271" y="256" type="line"/>
      <point x="345" y="182" type="line"/>
      <point x="526" y="489" type="line"/>
      <point x="536" y="511"/>
      <point x="616" y="602"/>
      <point x="615" y="601" type="curve"/>
    </contour>
    <contour>
      <point x="247" y="77" type="line"/>
      <point x="181" y="65" type="line"/>
      <point x="186" y="-5" type="line"/>
      <point x="186" y="-5"/>
      <point x="244" y="0"/>
      <point x="291" y="0" type="curve" smooth="yes"/>
      <point x="404" y="0"/>
      <point x="470" y="-5"/>
      <point x="470" y="-5" type="curve"/>
      <point x="475" y="71" type="line"/>
      <point x="410" y="77" type="line"/>
    </contour>
    <contour>
      <point x="256" y="327" type="line"/>
      <point x="256" y="163" type="line" smooth="yes"/>
      <point x="256" y="143"/>
      <point x="247" y="77"/>
      <point x="247" y="77" type="curve"/>
      <point x="410" y="77" type="line"/>
      <point x="410" y="77"/>
      <point x="401" y="143"/>
      <point x="401" y="193" type="curve" smooth="yes"/>
      <point x="401" y="327" type="line"/>
    </contour>
    <contour>
      <point x="231" y="575" type="line"/>
      <point x="296" y="581" type="line"/>
      <point x="291" y="657" type="line"/>
      <point x="291" y="657"/>
      <point x="225" y="652"/>
      <point x="112" y="652" type="curve" smooth="yes"/>
      <point x="65" y="652"/>
      <point x="17" y="657"/>
      <point x="17" y="657" type="curve"/>
      <point x="12" y="587" type="line"/>
      <point x="68" y="575" type="line"/>
    </contour>
    <contour>
      <point x="587" y="575" type="line"/>
      <point x="642" y="581" type="line"/>
      <point x="637" y="657" type="line"/>
      <point x="637" y="657"/>
      <point x="600" y="652"/>
      <point x="487" y="652" type="curve" smooth="yes"/>
      <point x="446" y="652"/>
      <point x="382" y="657"/>
      <point x="382" y="657" type="curve"/>
      <point x="377" y="587" type="line"/>
      <point x="447" y="575" type="line"/>
    </contour>
    <contour>
      <point x="102" y="328" type="line"/>
      <point x="552" y="347" type="line"/>
      <point x="550" y="411" type="line"/>
      <point x="428" y="406" type="line"/>
      <point x="345" y="373" type="line"/>
      <point x="290" y="401" type="line"/>
      <point x="100" y="393" type="line"/>
    </contour>
    <contour>
      <point x="107" y="222" type="line"/>
      <point x="557" y="241" type="line"/>
      <point x="555" y="305" type="line"/>
      <point x="105" y="287" type="line"/>
    </contour>
  </outline>
</glyph>
<glyph name="macron" format="1">
  <advance width="360"/>
  <unicode hex="00AF"/>
  <outline>
    <contour>
      <point x="334" y="594" type="line"/>
      <point x="341" y="671" type="line"/>
      <point x="19" y="671" type="line"/>
      <point x="19" y="594" type="line"/>
    </contour>
    <contour>
      <point x="180" y="494" type="move" name="_top"/>
    </contour>
  </outline>
</glyph>
<glyph name="acute" format="1">
  <advance width="360"/>
  <unicode hex="00B4"/>
  <outline>
    <contour>
      <point x="260" y="750" type="line"/>
      <point x="53" y="618" type="line"/>
      <point x="96" y="565" type="line"/>
      <point x="303" y="679" type="line"/>
    </contour>
    <contour>
      <point x="160" y="494" type="move" name="_top"/>
    </contour>
  </outline>
</glyph>
<glyph name="Oslash" format="1">
  <advance width="812"/>
  <unicode hex="00D8"/>
  <outline>
    <contour>
      <point x="685" y="809" type="line"/>
      <point x="626" y="838" type="line"/>
      <point x="129" y="-108" type="line"/>
      <point x="186" y="-137" type="line"/>
    </contour>
    <component base="O" xOffset="-1"/>
    <contour>
      <point x="401" y="705" type="move" name="top"/>
    </contour>
  </outline>
</glyph>
<glyph name="Thorn" format="1">
  <advance width="629"/>
  <unicode hex="00DE"/>
  <outline>
    <contour>
      <point x="346" y="629" type="line"/>
      <point x="341" y="710" type="line"/>
      <point x="341" y="710"/>
      <point x="260" y="705"/>
      <point x="147" y="705" type="curve" smooth="yes"/>
      <point x="100" y="705"/>
      <point x="47" y="710"/>
      <point x="47" y="710" type="curve"/>
      <point x="42" y="635" type="line"/>
      <point x="107" y="623" type="line"/>
      <point x="109" y="607"/>
      <point x="116" y="562"/>
      <point x="116" y="512" type="curve" smooth="yes"/>
      <point x="116" y="163" type="line" smooth="yes"/>
      <point x="116" y="143"/>
      <point x="108" y="87"/>
      <point x="107" y="77" type="curve"/>
      <point x="41" y="65" type="line"/>
      <point x="46" y="-5" type="line"/>
      <point x="46" y="-5"/>
      <point x="99" y="0"/>
      <point x="146" y="0" type="curve" smooth="yes"/>
      <point x="259" y="0"/>
      <point x="340" y="-5"/>
      <point x="340" y="-5" type="curve"/>
      <point x="345" y="71" type="line"/>
      <point x="280" y="77" type="line"/>
      <point x="279" y="87"/>
      <point x="275" y="114"/>
      <point x="273" y="146" type="curve"/>
      <point x="298" y="146"/>
      <point x="324" y="146"/>
      <point x="347" y="146" type="curve" smooth="yes"/>
      <point x="483" y="146"/>
      <point x="597" y="222"/>
      <point x="597" y="358" type="curve" smooth="yes"/>
      <point x="597" y="492"/>
      <point x="501" y="570"/>
      <point x="361" y="570" type="curve" smooth="yes"/>
      <point x="338" y="570"/>
      <point x="306" y="568"/>
      <point x="272" y="566" type="curve"/>
      <point x="274" y="587"/>
      <point x="278" y="613"/>
      <point x="280" y="623" type="curve"/>
    </contour>
    <contour>
      <point x="271" y="487" type="line"/>
      <point x="285" y="488"/>
      <point x="296" y="488"/>
      <point x="303" y="488" type="curve" smooth="yes"/>
      <point x="396" y="488"/>
      <point x="436" y="446"/>
      <point x="436" y="359" type="curve" smooth="yes"/>
      <point x="436" y="273"/>
      <point x="379" y="228"/>
      <point x="288" y="228" type="curve" smooth="yes"/>
      <point x="283" y="228"/>
      <point x="277" y="228"/>
      <point x="271" y="228" type="curve"/>
    </contour>
  </outline>
</glyph>
<glyph name="germandbls" format="1">
  <advance width="620"/>
  <unicode hex="00DF"/>
  <outline>
    <contour>
      <point x="35" y="65" type="line"/>
      <point x="40" y="-5" type="line"/>
      <point x="40" y="-5"/>
      <point x="99" y="0"/>
      <point x="171" y="0" type="curve" smooth="yes"/>
      <point x="249" y="0" type="line"/>
      <point x="249" y="10"/>
      <point x="240" y="143"/>
      <point x="240" y="193" type="curve" smooth="yes"/>
      <point x="240" y="546" type="line" smooth="yes"/>
      <point x="240" y="633"/>
      <point x="252" y="686"/>
      <point x="332" y="686" type="curve" smooth="yes"/>
      <point x="387" y="686"/>
      <point x="434" y="664"/>
      <point x="434" y="609" type="curve" smooth="yes"/>
      <point x="434" y="494"/>
      <point x="290" y="484"/>
      <point x="290" y="349" type="curve" smooth="yes"/>
      <point x="290" y="188"/>
      <point x="487" y="210"/>
      <point x="487" y="112" type="curve" smooth="yes"/>
      <point x="487" y="84"/>
      <point x="466" y="68"/>
      <point x="441" y="68" type="curve" smooth="yes"/>
      <point x="420" y="68"/>
      <point x="395" y="79"/>
      <point x="376" y="90" type="curve"/>
      <point x="376" y="90"/>
      <point x="370" y="123"/>
      <point x="370" y="128" type="curve" smooth="yes"/>
      <point x="370" y="173" type="line"/>
      <point x="300" y="178" type="line"/>
      <point x="288" y="13" type="line"/>
      <point x="288" y="13"/>
      <point x="378" y="-10"/>
      <point x="442" y="-10" type="curve" smooth="yes"/>
      <point x="544" y="-10"/>
      <point x="610" y="49"/>
      <point x="610" y="151" type="curve" smooth="yes"/>
      <point x="610" y="315"/>
      <point x="406" y="301"/>
      <point x="406" y="375" type="curve" smooth="yes"/>
      <point x="406" y="445"/>
      <point x="547" y="472"/>
      <point x="547" y="613" type="curve" smooth="yes"/>
      <point x="547" y="733"/>
      <point x="452" y="770"/>
      <point x="332" y="770" type="curve" smooth="yes"/>
      <point x="193" y="770"/>
      <point x="101" y="718"/>
      <point x="100" y="580" type="curve" smooth="yes"/>
      <point x="100" y="501" type="line"/>
      <point x="83" y="494"/>
      <point x="64" y="490"/>
      <point x="40" y="482" type="curve"/>
      <point x="43" y="419" type="line"/>
      <point x="100" y="419" type="line"/>
      <point x="100" y="163" type="line" smooth="yes"/>
      <point x="100" y="143"/>
      <point x="93" y="93"/>
      <point x="91" y="77" type="curve"/>
    </contour>
  </outline>
</glyph>
<glyph name="oslash" format="1">
  <advance width="592"/>
  <unicode hex="00F8"/>
  <outline>
    <contour>
      <point x="450" y="598" type="line"/>
      <point x="96" y="-70" type="line"/>
      <point x="153" y="-99" type="line"/>
      <point x="509" y="569" type="line"/>
    </contour>
    <component base="o" xOffset="2"/>
    <contour>
      <point x="296" y="494" type="move" name="top"/>
    </contour>
  </outline>
</glyph>
<glyph name="dotlessi" format="1">
  <advance width="353"/>
  <unicode hex="0131"/>
  <outline>
    <contour>
      <point x="328" y="71" type="line"/>
      <point x="263" y="77" type="line"/>
      <point x="263" y="77"/>
      <point x="254" y="143"/>
      <point x="254" y="193" type="curve" smooth="yes"/>
      <point x="254" y="295" type="line" smooth="yes"/>
      <point x="254" y="345"/>
      <point x="264" y="475"/>
      <point x="264" y="475" type="curve"/>
      <point x="243" y="494" type="line"/>
      <point x="155" y="494" type="line" smooth="yes"/>
      <point x="113" y="494"/>
      <point x="38" y="503"/>
      <point x="38" y="503" type="curve"/>
      <point x="29" y="429" type="line"/>
      <point x="104" y="412" type="line"/>
      <point x="104" y="412"/>
      <point x="114" y="345"/>
      <point x="114" y="325" type="curve" smooth="yes"/>
      <point x="114" y="163" type="line" smooth="yes"/>
      <point x="114" y="143"/>
      <point x="105" y="77"/>
      <point x="105" y="77" type="curve"/>
      <point x="39" y="65" type="line"/>
      <point x="44" y="-5" type="line"/>
      <point x="44" y="-5"/>
      <point x="144" y="0"/>
      <point x="164" y="0" type="curve" smooth="yes"/>
      <point x="277" y="0"/>
      <point x="304" y="0"/>
      <point x="322" y="0" type="curve"/>
    </contour>
    <contour>
      <point x="322" y="0" type="move" name="ogonek"/>
    </contour>
    <contour>
      <point x="167" y="494" type="move" name="top"/>
    </contour>
  </outline>
</glyph>
<glyph name="IJ" format="1">
  <advance width="716"/>
  <unicode hex="0132"/>
  <outline>
    <contour>
      <point x="363" y="632" type="line"/>
      <point x="280" y="623" type="line"/>
      <point x="277" y="609"/>
      <point x="271" y="562"/>
      <point x="271" y="542" type="curve" smooth="yes"/>
      <point x="271" y="193" type="line" smooth="yes"/>
      <point x="271" y="143"/>
      <point x="279" y="86"/>
      <point x="280" y="77" type="curve"/>
      <point x="345" y="71" type="line"/>
      <point x="340" y="0" type="line"/>
      <point x="340" y="0"/>
      <point x="309" y="0"/>
      <point x="196" y="0" type="curve" smooth="yes"/>
      <point x="166" y="0"/>
      <point x="46" y="-5"/>
      <point x="46" y="-5" type="curve"/>
      <point x="41" y="65" type="line"/>
      <point x="107" y="77" type="line"/>
      <point x="109" y="91"/>
      <point x="116" y="143"/>
      <point x="116" y="163" type="curve" smooth="yes"/>
      <point x="116" y="512" type="line" smooth="yes"/>
      <point x="116" y="562"/>
      <point x="110" y="604"/>
      <point x="107" y="623" type="curve"/>
      <point x="42" y="635" type="line"/>
      <point x="47" y="710" type="line"/>
      <point x="47" y="710"/>
      <point x="118" y="705"/>
      <point x="165" y="705" type="curve" smooth="yes"/>
      <point x="363" y="705" type="line"/>
    </contour>
    <contour>
      <point x="475" y="705"/>
      <point x="363" y="705"/>
      <point x="363" y="705" type="curve"/>
      <point x="363" y="632" type="line"/>
      <point x="445" y="623" type="line"/>
      <point x="448" y="608"/>
      <point x="454" y="562"/>
      <point x="454" y="512" type="curve" smooth="yes"/>
      <point x="454" y="11" type="line" smooth="yes"/>
      <point x="454" y="-9"/>
      <point x="378" y="-169"/>
      <point x="378" y="-169" type="curve"/>
      <point x="432" y="-200" type="line"/>
      <point x="528" y="-111"/>
      <point x="609" y="-23"/>
      <point x="609" y="10" type="curve" smooth="yes"/>
      <point x="609" y="542" type="line" smooth="yes"/>
      <point x="609" y="562"/>
      <point x="616" y="614"/>
      <point x="618" y="623" type="curve"/>
      <point x="684" y="629" type="line"/>
      <point x="679" y="710" type="line"/>
      <point x="679" y="710"/>
      <point x="585" y="705"/>
      <point x="505" y="705" type="curve" smooth="yes"/>
    </contour>
    <contour>
      <point x="532" y="705" type="move" name="top"/>
    </contour>
  </outline>
</glyph>
<glyph name="ij" format="1">
  <advance width="589"/>
  <unicode hex="0133"/>
  <outline>
    <contour>
      <point x="318" y="429" type="line"/>
      <point x="393" y="412" type="line"/>
      <point x="393" y="412"/>
      <point x="403" y="345"/>
      <point x="403" y="325" type="curve" smooth="yes"/>
      <point x="403" y="212" type="line" smooth="yes"/>
      <point x="396" y="136"/>
      <point x="351" y="96"/>
      <point x="305" y="96" type="curve" smooth="yes"/>
      <point x="253" y="96"/>
      <point x="231" y="136"/>
      <point x="231" y="188" type="curve" smooth="yes"/>
      <point x="231" y="295" type="line" smooth="yes"/>
      <point x="231" y="345"/>
      <point x="241" y="475"/>
      <point x="241" y="475" type="curve"/>
      <point x="220" y="494" type="line"/>
      <point x="147" y="494" type="line" smooth="yes"/>
      <point x="105" y="494"/>
      <point x="35" y="503"/>
      <point x="35" y="503" type="curve"/>
      <point x="26" y="429" type="line"/>
      <point x="81" y="415" type="line"/>
      <point x="81" y="415"/>
      <point x="91" y="345"/>
      <point x="91" y="325" type="curve" smooth="yes"/>
      <point x="91" y="174" type="line" smooth="yes"/>
      <point x="91" y="58"/>
      <point x="152" y="-4"/>
      <point x="268" y="-4" type="curve" smooth="yes"/>
      <point x="329" y="-4"/>
      <point x="373" y="24"/>
      <point x="408" y="69" type="curve"/>
      <point x="413" y="21" type="line"/>
      <point x="413" y="-19"/>
      <point x="328" y="-209"/>
      <point x="328" y="-209" type="curve"/>
      <point x="375" y="-235" type="line"/>
      <point x="375" y="-235"/>
      <point x="543" y="-50"/>
      <point x="543" y="-10" type="curve" smooth="yes"/>
      <point x="543" y="295" type="line" smooth="yes"/>
      <point x="543" y="345"/>
      <point x="553" y="475"/>
      <point x="553" y="475" type="curve"/>
      <point x="532" y="494" type="line"/>
      <point x="444" y="494" type="line" smooth="yes"/>
      <point x="402" y="494"/>
      <point x="327" y="503"/>
      <point x="327" y="503" type="curve"/>
    </contour>
    <component base="dotaccent" xOffset="-27"/>
    <component base="dotaccent" xOffset="284"/>
  </outline>
</glyph>
<glyph name="Lslash" format="1">
  <advance width="589"/>
  <unicode hex="0141"/>
  <outline>
    <contour>
      <point x="450" y="494" type="line"/>
      <point x="38" y="344" type="line"/>
      <point x="60" y="284" type="line"/>
      <point x="472" y="434" type="line"/>
    </contour>
    <component base="L" xOffset="12"/>
  </outline>
</glyph>
<glyph name="lslash" format="1">
  <advance width="372"/>
  <unicode hex="0142"/>
  <outline>
    <contour>
      <point x="327" y="494" type="line"/>
      <point x="19" y="382" type="line"/>
      <point x="41" y="322" type="line"/>
      <point x="349" y="434" type="line"/>
    </contour>
    <component base="l" xOffset="20"/>
  </outline>
</glyph>
<glyph name="Eng" format="1">
  <advance width="810"/>
  <unicode hex="014A"/>
  <outline>
    <contour>
      <point x="554" y="20"/>
      <point x="554" y="18"/>
      <point x="554" y="16" type="curve" smooth="yes"/>
      <point x="554" y="-19"/>
      <point x="472" y="-169"/>
      <point x="472" y="-169" type="curve"/>
      <point x="526" y="-200" type="line"/>
      <point x="622" y="-111"/>
      <point x="703" y="-23"/>
      <point x="703" y="10" type="curve"/>
      <point x="703" y="512" type="line" smooth="yes"/>
      <point x="703" y="552"/>
      <point x="710" y="611"/>
      <point x="712" y="623" type="curve"/>
      <point x="778" y="629" type="line"/>
      <point x="773" y="710" type="line"/>
      <point x="773" y="710"/>
      <point x="681" y="705"/>
      <point x="611" y="705" type="curve"/>
      <point x="591" y="705"/>
      <point x="542" y="708"/>
      <point x="507" y="710" type="curve"/>
      <point x="502" y="635" type="line"/>
      <point x="567" y="623" type="line"/>
      <point x="569" y="607"/>
      <point x="576" y="562"/>
      <point x="576" y="542" type="curve" smooth="yes"/>
      <point x="576" y="230" type="line"/>
      <point x="356" y="537" type="line" smooth="yes"/>
      <point x="341" y="559"/>
      <point x="268" y="685"/>
      <point x="268" y="685" type="curve"/>
      <point x="249" y="705" type="line"/>
      <point x="157" y="705" type="line" smooth="yes"/>
      <point x="137" y="705"/>
      <point x="47" y="710"/>
      <point x="47" y="710" type="curve"/>
      <point x="42" y="635" type="line"/>
      <point x="107" y="623" type="line"/>
      <point x="109" y="612"/>
      <point x="116" y="562"/>
      <point x="116" y="542" type="curve" smooth="yes"/>
      <point x="116" y="163" type="line" smooth="yes"/>
      <point x="116" y="143"/>
      <point x="109" y="88"/>
      <point x="107" y="77" type="curve"/>
      <point x="41" y="65" type="line"/>
      <point x="46" y="-5" type="line"/>
      <point x="46" y="-5"/>
      <point x="146" y="0"/>
      <point x="176" y="0" type="curve"/>
      <point x="312" y="0" type="line"/>
      <point x="317" y="71" type="line"/>
      <point x="252" y="77" type="line"/>
      <point x="251" y="87"/>
      <point x="243" y="153"/>
      <point x="243" y="193" type="curve" smooth="yes"/>
      <point x="243" y="450" type="line"/>
      <point x="553" y="21" type="line"/>
    </contour>
    <contour>
      <point x="397" y="705" type="move" name="top"/>
    </contour>
    <contour>
      <point x="397" y="0" type="move" name="bottom"/>
    </contour>
  </outline>
</glyph>
<glyph name="OE" format="1">
  <advance width="1042"/>
  <unicode hex="0152"/>
  <outline>
    <contour>
      <point x="838" y="623"/>
      <point x="863" y="621"/>
      <point x="883" y="619" type="curve"/>
      <point x="896" y="583" type="line"/>
      <point x="898" y="568"/>
      <point x="900" y="554"/>
      <point x="902" y="537" type="curve"/>
      <point x="974" y="542" type="line"/>
      <point x="967" y="697" type="line"/>
      <point x="948" y="715" type="line"/>
      <point x="910" y="710"/>
      <point x="853" y="705"/>
      <point x="833" y="705" type="curve"/>
      <point x="444" y="705" type="line"/>
      <point x="574" y="571" type="line"/>
      <point x="574" y="101" type="line"/>
      <point x="444" y="0" type="line"/>
      <point x="848" y="0" type="line" smooth="yes"/>
      <point x="868" y="0"/>
      <point x="962" y="-4"/>
      <point x="962" y="-4" type="curve"/>
      <point x="981" y="14" type="line"/>
      <point x="996" y="190" type="line"/>
      <point x="926" y="195" type="line"/>
      <point x="924" y="179"/>
      <point x="918" y="153"/>
      <point x="914" y="138" type="curve" smooth="yes"/>
      <point x="911" y="128"/>
      <point x="905" y="113"/>
      <point x="895" y="95" type="curve"/>
      <point x="875" y="91"/>
      <point x="847" y="87"/>
      <point x="818" y="87" type="curve" smooth="yes"/>
      <point x="693" y="87" type="line"/>
      <point x="692" y="107"/>
      <point x="690" y="155"/>
      <point x="690" y="193" type="curve" smooth="yes"/>
      <point x="690" y="316" type="line"/>
      <point x="752" y="316" type="line"/>
      <point x="772" y="316"/>
      <point x="816" y="310"/>
      <point x="816" y="310" type="curve"/>
      <point x="825" y="250" type="line"/>
      <point x="889" y="256" type="line"/>
      <point x="889" y="256"/>
      <point x="886" y="333"/>
      <point x="886" y="383" type="curve" smooth="yes"/>
      <point x="886" y="403"/>
      <point x="887" y="466"/>
      <point x="887" y="466" type="curve"/>
      <point x="825" y="471" type="line"/>
      <point x="816" y="407" type="line"/>
      <point x="816" y="407"/>
      <point x="792" y="398"/>
      <point x="772" y="398" type="curve"/>
      <point x="690" y="398" type="line"/>
      <point x="690" y="542" type="line" smooth="yes"/>
      <point x="690" y="558"/>
      <point x="693" y="605"/>
      <point x="694" y="623" type="curve"/>
      <point x="808" y="623" type="line"/>
    </contour>
    <contour>
      <point x="229" y="535"/>
      <point x="280" y="623"/>
      <point x="386" y="623" type="curve" smooth="yes"/>
      <point x="492" y="623"/>
      <point x="543" y="535"/>
      <point x="543" y="352" type="curve" smooth="yes"/>
      <point x="543" y="170"/>
      <point x="492" y="82"/>
      <point x="386" y="82" type="curve" smooth="yes"/>
      <point x="280" y="82"/>
      <point x="229" y="170"/>
      <point x="229" y="352" type="curve" smooth="yes"/>
    </contour>
    <contour>
      <point x="653" y="592" type="line"/>
      <point x="595" y="673"/>
      <point x="502" y="720"/>
      <point x="386" y="720" type="curve" smooth="yes"/>
      <point x="181" y="720"/>
      <point x="49" y="574"/>
      <point x="49" y="352" type="curve" smooth="yes"/>
      <point x="49" y="131"/>
      <point x="181" y="-15"/>
      <point x="386" y="-15" type="curve" smooth="yes"/>
      <point x="502" y="-15"/>
      <point x="595" y="32"/>
      <point x="653" y="113" type="curve"/>
    </contour>
    <contour>
      <point x="525" y="705" type="move" name="top"/>
    </contour>
  </outline>
</glyph>
<glyph name="oe" format="1">
  <advance width="877"/>
  <unicode hex="0153"/>
  <outline>
    <contour>
      <point x="553" y="503"/>
      <point x="500" y="477"/>
      <point x="464" y="425" type="curve"/>
      <point x="416" y="477"/>
      <point x="360" y="503"/>
      <point x="295" y="503" type="curve" smooth="yes"/>
      <point x="136" y="503"/>
      <point x="48" y="411"/>
      <point x="48" y="244" type="curve" smooth="yes"/>
      <point x="48" y="78"/>
      <point x="136" y="-15"/>
      <point x="295" y="-15" type="curve" smooth="yes"/>
      <point x="358" y="-15"/>
      <point x="415" y="11"/>
      <point x="464" y="62" type="curve"/>
      <point x="499" y="10"/>
      <point x="552" y="-15"/>
      <point x="628" y="-15" type="curve" smooth="yes"/>
      <point x="706" y="-15"/>
      <point x="772" y="9"/>
      <point x="824" y="56" type="curve"/>
      <point x="789" y="114" type="line"/>
      <point x="789" y="114"/>
      <point x="741" y="81"/>
      <point x="668" y="81" type="curve" smooth="yes"/>
      <point x="586" y="81"/>
      <point x="549" y="123"/>
      <point x="543" y="221" type="curve"/>
      <point x="812" y="221" type="line"/>
      <point x="833" y="260" type="line"/>
      <point x="842" y="413"/>
      <point x="765" y="503"/>
      <point x="624" y="503" type="curve" smooth="yes"/>
    </contour>
    <contour>
      <point x="357" y="418"/>
      <point x="383" y="367"/>
      <point x="383" y="244" type="curve" smooth="yes"/>
      <point x="383" y="121"/>
      <point x="357" y="70"/>
      <point x="295" y="70" type="curve" smooth="yes"/>
      <point x="233" y="70"/>
      <point x="207" y="121"/>
      <point x="207" y="244" type="curve" smooth="yes"/>
      <point x="207" y="367"/>
      <point x="233" y="418"/>
      <point x="295" y="418" type="curve" smooth="yes"/>
    </contour>
    <contour>
      <point x="655" y="424"/>
      <point x="676" y="386"/>
      <point x="676" y="310" type="curve" smooth="yes"/>
      <point x="676" y="308"/>
      <point x="675" y="302"/>
      <point x="675" y="302" type="curve"/>
      <point x="543" y="295" type="line"/>
      <point x="546" y="383"/>
      <point x="568" y="424"/>
      <point x="613" y="424" type="curve" smooth="yes"/>
    </contour>
    <contour>
      <point x="414" y="494" type="move" name="top"/>
    </contour>
  </outline>
</glyph>
<glyph name="tcaron" format="1">
  <advance width="358"/>
  <unicode hex="0165"/>
  <outline>
    <contour>
      <point x="365" y="756" type="line"/>
      <point x="352" y="551" type="line"/>
      <point x="274" y="555" type="line"/>
      <point x="275" y="640" type="line"/>
      <point x="274" y="655"/>
      <point x="266" y="756"/>
      <point x="266" y="756" type="curve"/>
    </contour>
    <component base="t"/>
  </outline>
</glyph>
<glyph name="circumflex" format="1">
  <advance width="360"/>
  <unicode hex="02C6"/>
  <outline>
    <component base="caron" xOffset="360" yOffset="1310" xScale="-1" yScale="-1"/>
    <contour>
      <point x="180" y="494" type="move" name="_top"/>
    </contour>
  </outline>
</glyph>
<glyph name="caron" format="1">
  <advance width="360"/>
  <unicode hex="02C7"/>
  <outline>
    <contour>
      <point x="194" y="565" type="line"/>
      <point x="228" y="616" type="line"/>
      <point x="34" y="745" type="line"/>
      <point x="-8" y="697" type="line"/>
      <point x="130" y="565" type="line"/>
    </contour>
    <contour>
      <point x="230" y="565" type="line"/>
      <point x="368" y="697" type="line"/>
      <point x="326" y="745" type="line"/>
      <point x="132" y="616" type="line"/>
      <point x="166" y="565" type="line"/>
    </contour>
    <contour>
      <point x="180" y="494" type="move" name="_top"/>
    </contour>
  </outline>
</glyph>
<glyph name="dotaccent" format="1">
  <advance width="360"/>
  <unicode hex="02D9"/>
  <outline>
    <contour>
      <point x="129" y="735"/>
      <point x="101" y="702"/>
      <point x="101" y="655" type="curve" smooth="yes"/>
      <point x="101" y="608"/>
      <point x="129" y="576"/>
      <point x="180" y="576" type="curve" smooth="yes"/>
      <point x="231" y="576"/>
      <point x="259" y="608"/>
      <point x="259" y="655" type="curve" smooth="yes"/>
      <point x="259" y="705"/>
      <point x="229" y="735"/>
      <point x="180" y="735" type="curve" smooth="yes"/>
    </contour>
    <contour>
      <point x="180" y="494" type="move" name="_top"/>
    </contour>
  </outline>
</glyph>
<glyph name="ring" format="1">
  <advance width="360"/>
  <unicode hex="02DA"/>
  <outline>
    <contour>
      <point x="120" y="723"/>
      <point x="80" y="687"/>
      <point x="80" y="627" type="curve" smooth="yes"/>
      <point x="80" y="567"/>
      <point x="120" y="532"/>
      <point x="180" y="532" type="curve" smooth="yes"/>
      <point x="240" y="532"/>
      <point x="279" y="567"/>
      <point x="279" y="627" type="curve" smooth="yes"/>
      <point x="279" y="687"/>
      <point x="240" y="723"/>
      <point x="180" y="723" type="curve" smooth="yes"/>
    </contour>
    <contour>
      <point x="203" y="665"/>
      <point x="212" y="649"/>
      <point x="212" y="627" type="curve" smooth="yes"/>
      <point x="212" y="606"/>
      <point x="203" y="590"/>
      <point x="180" y="590" type="curve" smooth="yes"/>
      <point x="158" y="590"/>
      <point x="149" y="606"/>
      <point x="149" y="627" type="curve" smooth="yes"/>
      <point x="149" y="649"/>
      <point x="158" y="665"/>
      <point x="180" y="665" type="curve" smooth="yes"/>
    </contour>
    <contour>
      <point x="180" y="494" type="move" name="_top"/>
    </contour>
  </outline>
</glyph>
<glyph name="ogonek" format="1">
  <advance width="360"/>
  <unicode hex="02DB"/>
  <outline>
    <contour>
      <point x="145" y="-4"/>
      <point x="85" y="-62"/>
      <point x="85" y="-128" type="curve" smooth="yes"/>
      <point x="85" y="-188"/>
      <point x="130" y="-217"/>
      <point x="194" y="-217" type="curve" smooth="yes"/>
      <point x="235" y="-217"/>
      <point x="271" y="-203"/>
      <point x="289" y="-194" type="curve"/>
      <point x="271" y="-146" type="line"/>
      <point x="258" y="-151"/>
      <point x="247" y="-153"/>
      <point x="237" y="-153" type="curve" smooth="yes"/>
      <point x="207" y="-153"/>
      <point x="192" y="-131"/>
      <point x="192" y="-105" type="curve" smooth="yes"/>
      <point x="192" y="-70"/>
      <point x="228" y="-28"/>
      <point x="307" y="6" type="curve"/>
      <point x="229" y="26" type="line"/>
    </contour>
    <contour>
      <point x="307" y="6" type="move" name="_ogonek"/>
    </contour>
  </outline>
</glyph>
<glyph name="hungarumlaut" format="1">
  <advance width="360"/>
  <unicode hex="02DD"/>
  <outline>
    <contour>
      <point x="172" y="760" type="line"/>
      <point x="-21" y="617" type="line"/>
      <point x="22" y="565" type="line"/>
      <point x="220" y="693" type="line"/>
    </contour>
    <contour>
      <point x="372" y="760" type="line"/>
      <point x="179" y="617" type="line"/>
      <point x="222" y="565" type="line"/>
      <point x="420" y="693" type="line"/>
    </contour>
    <contour>
      <point x="160" y="494" type="move" name="_top"/>
    </contour>
  </outline>
</glyph>
<glyph name="circumflexcomb" format="1">
  <advance width="347"/>
  <unicode hex="0302"/>
  <outline>
    <contour>
      <point x="20" y="579" type="line"/>
      <point x="57" y="536" type="line"/>
      <point x="213" y="645" type="line"/>
      <point x="194" y="691" type="line"/>
      <point x="132" y="691" type="line"/>
    </contour>
    <contour>
      <point x="153" y="691" type="line"/>
      <point x="134" y="645" type="line"/>
      <point x="290" y="536" type="line"/>
      <point x="327" y="579" type="line"/>
      <point x="215" y="691" type="line"/>
    </contour>
  </outline>
</glyph>
<glyph name="tildecomb" format="1">
  <advance width="360"/>
  <unicode hex="0303"/>
  <outline>
    <contour>
      <point x="290" y="712" type="line"/>
      <point x="290" y="712"/>
      <point x="258" y="684"/>
      <point x="235" y="684" type="curve" smooth="yes"/>
      <point x="199" y="684"/>
      <point x="142" y="713"/>
      <point x="106" y="713" type="curve" smooth="yes"/>
      <point x="69" y="713"/>
      <point x="26" y="644"/>
      <point x="26" y="644" type="curve"/>
      <point x="60" y="619" type="line"/>
      <point x="60" y="619"/>
      <point x="94" y="650"/>
      <point x="117" y="650" type="curve" smooth="yes"/>
      <point x="154" y="650"/>
      <point x="210" y="620"/>
      <point x="246" y="620" type="curve" smooth="yes"/>
      <point x="282" y="620"/>
      <point x="322" y="686"/>
      <point x="322" y="686" type="curve"/>
    </contour>
  </outline>
</glyph>
<glyph name="brevecomb" format="1">
  <advance width="348"/>
  <unicode hex="0306"/>
  <outline>
    <contour>
      <point x="260" y="688" type="line"/>
      <point x="254" y="649"/>
      <point x="218" y="631"/>
      <point x="174" y="631" type="curve" smooth="yes"/>
      <point x="130" y="631"/>
      <point x="94" y="649"/>
      <point x="88" y="688" type="curve"/>
      <point x="20" y="688" type="line"/>
      <point x="26" y="610"/>
      <point x="92" y="562"/>
      <point x="174" y="562" type="curve" smooth="yes"/>
      <point x="256" y="562"/>
      <point x="322" y="610"/>
      <point x="328" y="688" type="curve"/>
    </contour>
  </outline>
</glyph>
<glyph name="hookabovecomb" format="1">
  <advance width="360"/>
  <unicode hex="0309"/>
  <outline>
    <contour>
      <point x="133" y="756"/>
      <point x="108" y="744"/>
      <point x="95" y="739" type="curve"/>
      <point x="112" y="689" type="line"/>
      <point x="123" y="694"/>
      <point x="133" y="699"/>
      <point x="150" y="699" type="curve" smooth="yes"/>
      <point x="166" y="699"/>
      <point x="181" y="692"/>
      <point x="181" y="673" type="curve" smooth="yes"/>
      <point x="181" y="640"/>
      <point x="127" y="642"/>
      <point x="127" y="600" type="curve" smooth="yes"/>
      <point x="127" y="572"/>
      <point x="147" y="560"/>
      <point x="176" y="560" type="curve" smooth="yes"/>
      <point x="187" y="560"/>
      <point x="199" y="562"/>
      <point x="204" y="567" type="curve"/>
      <point x="204" y="567"/>
      <point x="198" y="582"/>
      <point x="198" y="594" type="curve" smooth="yes"/>
      <point x="198" y="618"/>
      <point x="266" y="625"/>
      <point x="266" y="678" type="curve" smooth="yes"/>
      <point x="266" y="730"/>
      <point x="218" y="756"/>
      <point x="169" y="756" type="curve" smooth="yes"/>
    </contour>
    <contour>
      <point x="182" y="494" type="move" name="_top"/>
    </contour>
  </outline>
</glyph>
<glyph name="a-deva" format="1">
  <advance width="823"/>
  <unicode hex="0905"/>
  <outline>
    <contour>
      <point x="263" y="311" type="line"/>
      <point x="337" y="299"/>
      <point x="369" y="262"/>
      <point x="369" y="223" type="curve" smooth="yes"/>
      <point x="369" y="158"/>
      <point x="321" y="121"/>
      <point x="255" y="121" type="curve" smooth="yes"/>
      <point x="200" y="121"/>
      <point x="132" y="148"/>
      <point x="70" y="208" type="curve"/>
      <point x="25" y="159" type="line"/>
      <point x="98" y="73"/>
      <point x="193" y="30"/>
      <point x="288" y="30" type="curve" smooth="yes"/>
      <point x="398" y="30"/>
      <point x="493" y="92"/>
      <point x="493" y="202" type="curve" smooth="yes"/>
      <point x="493" y="286"/>
      <point x="396" y="341"/>
      <point x="288" y="381" type="curve"/>
    </contour>
    <contour>
      <point x="192" y="646"/>
      <point x="132" y="631"/>
      <point x="68" y="602" type="curve"/>
      <point x="102" y="502" type="line"/>
      <point x="141" y="484" type="line"/>
      <point x="191" y="527"/>
      <point x="246" y="550"/>
      <point x="294" y="550" type="curve" smooth="yes"/>
      <point x="329" y="550"/>
      <point x="351" y="537"/>
      <point x="351" y="502" type="curve" smooth="yes"/>
      <point x="351" y="455"/>
      <point x="304" y="415"/>
      <point x="173" y="397" type="curve"/>
      <point x="158" y="357" type="line"/>
      <point x="187" y="273" type="line"/>
      <point x="382" y="304"/>
      <point x="458" y="373"/>
      <point x="458" y="476" type="curve" smooth="yes"/>
      <point x="458" y="579"/>
      <point x="374" y="646"/>
      <point x="247" y="646" type="curve" smooth="yes"/>
    </contour>
    <contour>
      <point x="396" y="268" type="line"/>
      <point x="453" y="236"/>
      <point x="510" y="216"/>
      <point x="563" y="216" type="curve" smooth="yes"/>
      <point x="612" y="216"/>
      <point x="660" y="237"/>
      <point x="708" y="289" type="curve"/>
      <point x="688" y="396" type="line"/>
      <point x="645" y="340"/>
      <point x="592" y="314"/>
      <point x="530" y="314" type="curve" smooth="yes"/>
      <point x="485" y="314"/>
      <point x="433" y="325"/>
      <point x="369" y="346" type="curve"/>
    </contour>
    <component base="aaMatra-deva" xOffset="526"/>
    <contour>
      <point x="69" y="-15" type="move" name="nukta"/>
    </contour>
    <contour>
      <point x="682" y="0" type="move" name="bottom"/>
    </contour>
    <contour>
      <point x="682" y="641" type="move" name="top"/>
    </contour>
  </outline>
</glyph>
<glyph name="lVocalic-deva" format="1">
  <advance width="821"/>
  <unicode hex="090C"/>
  <outline>
    <contour>
      <point x="485" y="611" type="line"/>
      <point x="510" y="536" type="line"/>
      <point x="833" y="536" type="line"/>
      <point x="846" y="566" type="line"/>
      <point x="821" y="641" type="line"/>
      <point x="495" y="641" type="line"/>
    </contour>
    <contour>
      <point x="733" y="54" type="line"/>
      <point x="723" y="184" type="line"/>
      <point x="723" y="563" type="line"/>
      <point x="609" y="563" type="line"/>
      <point x="609" y="185" type="line"/>
      <point x="598" y="54" type="line"/>
    </contour>
    <component base="l-deva"/>
    <component base="rVocalicMatra-deva" xOffset="504" yOffset="100"/>
    <contour>
      <point x="666" y="641" type="move" name="top"/>
    </contour>
    <contour>
      <point x="507" y="0" type="move" name="bottom"/>
    </contour>
  </outline>
</glyph>
<glyph name="eShort-deva" format="1">
  <advance width="564"/>
  <unicode hex="090E"/>
  <outline>
    <component base="e-deva"/>
    <component base="eShortMatra-deva" xOffset="-12"/>
    <contour>
      <point x="529" y="705" type="move" name="top"/>
    </contour>
    <contour>
      <point x="350" y="-60" type="move" name="bottom"/>
    </contour>
  </outline>
</glyph>
<glyph name="ka-deva" format="1">
  <advance width="868"/>
  <unicode hex="0915"/>
  <outline>
    <contour>
      <point x="109" y="458"/>
      <point x="42" y="401"/>
      <point x="42" y="281" type="curve" smooth="yes"/>
      <point x="42" y="164"/>
      <point x="141" y="93"/>
      <point x="252" y="93" type="curve" smooth="yes"/>
      <point x="323" y="93"/>
      <point x="389" y="112"/>
      <point x="446" y="171" type="curve"/>
      <point x="401" y="323" type="line"/>
      <point x="351" y="218"/>
      <point x="287" y="183"/>
      <point x="229" y="183" type="curve" smooth="yes"/>
      <point x="169" y="183"/>
      <point x="158" y="221"/>
      <point x="158" y="251" type="curve" smooth="yes"/>
      <point x="158" y="304"/>
      <point x="184" y="362"/>
      <point x="276" y="362" type="curve" smooth="yes"/>
      <point x="298" y="362"/>
      <point x="331" y="358"/>
      <point x="399" y="336" type="curve"/>
      <point x="421" y="385" type="line"/>
      <point x="351" y="435"/>
      <point x="289" y="458"/>
      <point x="228" y="458" type="curve" smooth="yes"/>
    </contour>
    <contour>
      <point x="587" y="448"/>
      <point x="525" y="433"/>
      <point x="455" y="378" type="curve"/>
      <point x="488" y="199" type="line"/>
      <point x="542" y="284"/>
      <point x="608" y="351"/>
      <point x="667" y="351" type="curve" smooth="yes"/>
      <point x="705" y="351"/>
      <point x="730" y="328"/>
      <point x="730" y="288" type="curve" smooth="yes"/>
      <point x="730" y="238"/>
      <point x="679" y="190"/>
      <point x="608" y="137" type="curve"/>
      <point x="608" y="97" type="line"/>
      <point x="690" y="32" type="line"/>
      <point x="782" y="106"/>
      <point x="824" y="196"/>
      <point x="824" y="277" type="curve" smooth="yes"/>
      <point x="824" y="382"/>
      <point x="750" y="448"/>
      <point x="635" y="448" type="curve" smooth="yes"/>
    </contour>
    <contour>
      <point x="-15" y="641" type="line"/>
      <point x="-25" y="611" type="line"/>
      <point x="0" y="536" type="line"/>
      <point x="883" y="536" type="line"/>
      <point x="893" y="566" type="line"/>
      <point x="868" y="641" type="line"/>
    </contour>
    <component base="aaMatra-deva" xOffset="301"/>
    <contour>
      <point x="214" y="-15" type="move" name="nukta"/>
    </contour>
    <contour>
      <point x="457" y="0" type="move" name="bottom"/>
    </contour>
    <contour>
      <point x="457" y="641" type="move" name="top"/>
    </contour>
  </outline>
</glyph>
<glyph name="kha-deva" format="1">
  <advance width="898"/>
  <unicode hex="0916"/>
  <outline>
    <component base="kh-deva"/>
    <component base="aaMatra-deva" xOffset="587"/>
    <contour>
      <point x="87" y="0" type="move" name="nukta"/>
    </contour>
    <contour>
      <point x="744" y="0" type="move" name="bottom"/>
    </contour>
    <contour>
      <point x="743" y="641" type="move" name="top"/>
    </contour>
  </outline>
</glyph>
<glyph name="ttha-deva" format="1">
  <advance width="622"/>
  <unicode hex="0920"/>
  <outline>
    <contour>
      <point x="246" y="458" type="line" smooth="yes"/>
      <point x="123" y="458"/>
      <point x="44" y="389"/>
      <point x="44" y="276" type="curve" smooth="yes"/>
      <point x="44" y="125"/>
      <point x="173" y="10"/>
      <point x="312" y="10" type="curve" smooth="yes"/>
      <point x="474" y="10"/>
      <point x="578" y="91"/>
      <point x="578" y="221" type="curve" smooth="yes"/>
      <point x="578" y="313"/>
      <point x="519" y="386"/>
      <point x="453" y="447" type="curve"/>
      <point x="393" y="419" type="line"/>
      <point x="441" y="362"/>
      <point x="453" y="295"/>
      <point x="453" y="257" type="curve" smooth="yes"/>
      <point x="453" y="144"/>
      <point x="380" y="120"/>
      <point x="282" y="120" type="curve" smooth="yes"/>
      <point x="183" y="120"/>
      <point x="169" y="166"/>
      <point x="169" y="238" type="curve" smooth="yes"/>
      <point x="169" y="313"/>
      <point x="209" y="348"/>
      <point x="280" y="348" type="curve" smooth="yes"/>
      <point x="474" y="348" type="line"/>
      <point x="474" y="458" type="line"/>
    </contour>
    <contour>
      <point x="-20" y="641" type="line"/>
      <point x="-30" y="611" type="line"/>
      <point x="-5" y="536" type="line"/>
      <point x="642" y="536" type="line"/>
      <point x="652" y="566" type="line"/>
      <point x="627" y="641" type="line"/>
    </contour>
    <contour>
      <point x="360" y="551" type="line"/>
      <point x="360" y="452" type="line"/>
      <point x="474" y="452" type="line"/>
      <point x="474" y="551" type="line"/>
    </contour>
    <contour>
      <point x="360" y="551" type="line"/>
      <point x="360" y="452" type="line"/>
      <point x="474" y="452" type="line"/>
      <point x="474" y="551" type="line"/>
    </contour>
    <contour>
      <point x="417" y="641" type="move" name="top"/>
    </contour>
    <contour>
      <point x="311" y="41" type="move" name="bottom"/>
    </contour>
  </outline>
</glyph>
<glyph name="la-deva" format="1">
  <advance width="821"/>
  <unicode hex="0932"/>
  <outline>
    <component base="l-deva"/>
    <component base="aaMatra-deva" xOffset="510"/>
    <contour>
      <point x="666" y="641" type="move" name="top"/>
    </contour>
    <contour>
      <point x="655" y="0" type="move" name="bottom"/>
    </contour>
  </outline>
</glyph>
<glyph name="lla-deva" format="1">
  <advance width="742"/>
  <unicode hex="0933"/>
  <outline>
    <contour>
      <point x="491" y="562" type="line" smooth="yes"/>
      <point x="491" y="395" type="line" smooth="yes"/>
      <point x="605" y="395" type="line"/>
      <point x="605" y="562" type="line"/>
    </contour>
    <component base="ll-deva"/>
    <contour>
      <point x="548" y="641" type="move" name="top"/>
    </contour>
    <contour>
      <point x="393" y="128" type="move" name="bottom"/>
    </contour>
  </outline>
</glyph>
<glyph name="llla-deva" format="1">
  <advance width="742"/>
  <unicode hex="0934"/>
  <outline>
    <component base="lla-deva"/>
    <component base="nukta-deva" xOffset="315" yOffset="128"/>
    <contour>
      <point x="547" y="641" type="move" name="top"/>
    </contour>
    <contour>
      <point x="381" y="-90" type="move" name="bottom"/>
    </contour>
  </outline>
</glyph>
<glyph name="sha-deva" format="1">
  <advance width="767"/>
  <unicode hex="0936"/>
  <outline>
    <component base="aaMatra-deva" xOffset="476"/>
    <component base="sh-deva"/>
    <contour>
      <point x="632" y="641" type="move" name="top"/>
    </contour>
    <contour>
      <point x="616" y="0" type="move" name="bottom"/>
    </contour>
  </outline>
</glyph>
<glyph name="avagraha-deva" format="1">
  <advance width="485"/>
  <unicode hex="093D"/>
  <outline>
    <contour>
      <point x="403" y="536" type="line"/>
      <point x="413" y="566" type="line"/>
      <point x="388" y="641" type="line"/>
      <point x="200" y="641" type="line" smooth="yes"/>
      <point x="107" y="641"/>
      <point x="52" y="590"/>
      <point x="52" y="528" type="curve" smooth="yes"/>
      <point x="52" y="483"/>
      <point x="81" y="433"/>
      <point x="148" y="393" type="curve" smooth="yes"/>
      <point x="248" y="333" type="line" smooth="yes"/>
      <point x="301" y="300"/>
      <point x="345" y="266"/>
      <point x="345" y="223" type="curve" smooth="yes"/>
      <point x="345" y="158"/>
      <point x="297" y="121"/>
      <point x="231" y="121" type="curve" smooth="yes"/>
      <point x="176" y="121"/>
      <point x="108" y="148"/>
      <point x="46" y="208" type="curve"/>
      <point x="1" y="159" type="line"/>
      <point x="74" y="73"/>
      <point x="169" y="30"/>
      <point x="264" y="30" type="curve" smooth="yes"/>
      <point x="374" y="30"/>
      <point x="469" y="82"/>
      <point x="469" y="192" type="curve" smooth="yes"/>
      <point x="469" y="285"/>
      <point x="378" y="338"/>
      <point x="298" y="385" type="curve" smooth="yes"/>
      <point x="259" y="408"/>
      <point x="243" y="418"/>
      <point x="218" y="433" type="curve" smooth="yes"/>
      <point x="183" y="453"/>
      <point x="166" y="479"/>
      <point x="166" y="499" type="curve" smooth="yes"/>
      <point x="166" y="520"/>
      <point x="184" y="536"/>
      <point x="220" y="536" type="curve" smooth="yes"/>
    </contour>
    <contour>
      <point x="255" y="640" type="move" name="top"/>
    </contour>
  </outline>
</glyph>
<glyph name="eCandraMatra-deva" format="1">
  <advance width="423"/>
  <unicode hex="0945"/>
  <outline>
    <contour>
      <point x="23" y="799" type="line"/>
      <point x="57" y="716"/>
      <point x="135" y="671"/>
      <point x="215" y="671" type="curve" smooth="yes"/>
      <point x="295" y="671"/>
      <point x="372" y="714"/>
      <point x="406" y="797" type="curve"/>
      <point x="295" y="836" type="line"/>
      <point x="275" y="785"/>
      <point x="241" y="762"/>
      <point x="191" y="762" type="curve" smooth="yes"/>
      <point x="141" y="762"/>
      <point x="106" y="787"/>
      <point x="86" y="838" type="curve"/>
    </contour>
    <contour>
      <point x="211" y="641" type="move" name="_top"/>
    </contour>
  </outline>
</glyph>
<glyph name="om-deva" format="1">
  <advance width="1006"/>
  <unicode hex="0950"/>
  <outline>
    <contour>
      <point x="238" y="311" type="line"/>
      <point x="312" y="299"/>
      <point x="344" y="262"/>
      <point x="344" y="223" type="curve" smooth="yes"/>
      <point x="344" y="158"/>
      <point x="296" y="121"/>
      <point x="230" y="121" type="curve" smooth="yes"/>
      <point x="175" y="121"/>
      <point x="107" y="148"/>
      <point x="45" y="208" type="curve"/>
      <point x="0" y="159" type="line"/>
      <point x="73" y="73"/>
      <point x="168" y="30"/>
      <point x="263" y="30" type="curve" smooth="yes"/>
      <point x="373" y="30"/>
      <point x="468" y="92"/>
      <point x="468" y="202" type="curve" smooth="yes"/>
      <point x="468" y="286"/>
      <point x="371" y="341"/>
      <point x="263" y="381" type="curve"/>
    </contour>
    <contour>
      <point x="167" y="646"/>
      <point x="97" y="631"/>
      <point x="33" y="602" type="curve"/>
      <point x="67" y="502" type="line"/>
      <point x="106" y="484" type="line"/>
      <point x="156" y="527"/>
      <point x="221" y="550"/>
      <point x="269" y="550" type="curve" smooth="yes"/>
      <point x="304" y="550"/>
      <point x="326" y="537"/>
      <point x="326" y="502" type="curve" smooth="yes"/>
      <point x="326" y="455"/>
      <point x="279" y="410"/>
      <point x="148" y="392" type="curve"/>
      <point x="133" y="352" type="line"/>
      <point x="162" y="268" type="line"/>
      <point x="357" y="299"/>
      <point x="433" y="373"/>
      <point x="433" y="476" type="curve" smooth="yes"/>
      <point x="433" y="579"/>
      <point x="349" y="646"/>
      <point x="222" y="646" type="curve" smooth="yes"/>
    </contour>
    <contour>
      <point x="682" y="504"/>
      <point x="641" y="458"/>
      <point x="605" y="410" type="curve" smooth="yes"/>
      <point x="569" y="362"/>
      <point x="538" y="313"/>
      <point x="465" y="313" type="curve" smooth="yes"/>
      <point x="433" y="313"/>
      <point x="392" y="323"/>
      <point x="338" y="346" type="curve"/>
      <point x="361" y="288" type="line"/>
      <point x="428" y="245"/>
      <point x="480" y="228"/>
      <point x="522" y="228" type="curve" smooth="yes"/>
      <point x="608" y="228"/>
      <point x="654" y="296"/>
      <point x="703" y="349" type="curve" smooth="yes"/>
      <point x="734" y="383"/>
      <point x="767" y="410"/>
      <point x="812" y="410" type="curve" smooth="yes"/>
      <point x="854" y="410"/>
      <point x="873" y="378"/>
      <point x="873" y="342" type="curve" smooth="yes"/>
      <point x="873" y="278"/>
      <point x="822" y="230"/>
      <point x="770" y="230" type="curve" smooth="yes"/>
      <point x="745" y="230"/>
      <point x="721" y="241"/>
      <point x="701" y="264" type="curve"/>
      <point x="656" y="215" type="line"/>
      <point x="698" y="165"/>
      <point x="759" y="139"/>
      <point x="818" y="139" type="curve" smooth="yes"/>
      <point x="905" y="139"/>
      <point x="986" y="196"/>
      <point x="986" y="315" type="curve" smooth="yes"/>
      <point x="986" y="432"/>
      <point x="887" y="504"/>
      <point x="776" y="504" type="curve" smooth="yes"/>
    </contour>
    <component base="candraBindu-deva" xOffset="370" yOffset="-136"/>
  </outline>
</glyph>
<glyph name="grave-deva" format="1">
  <advance width="268"/>
  <unicode hex="0953"/>
  <outline>
    <contour>
      <point x="200" y="692" type="line"/>
      <point x="259" y="728" type="line"/>
      <point x="96" y="962" type="line"/>
      <point x="27" y="914" type="line"/>
    </contour>
  </outline>
</glyph>
<glyph name="rha-deva" format="1">
  <advance width="586"/>
  <unicode hex="095D"/>
  <outline>
    <component base="ddha-deva"/>
    <component base="nukta-deva" xOffset="260" yOffset="21"/>
    <contour>
      <point x="391" y="640" type="move" name="top"/>
    </contour>
    <contour>
      <point x="321" y="-125" type="move" name="bottom"/>
    </contour>
  </outline>
</glyph>
<glyph name="rrVocalic-deva" format="1">
  <advance width="898"/>
  <unicode hex="0960"/>
  <outline>
    <contour>
      <point x="619" y="297" type="line"/>
      <point x="643" y="241"/>
      <point x="676" y="177"/>
      <point x="720" y="139" type="curve"/>
      <point x="805" y="167" type="line"/>
      <point x="805" y="206" type="line"/>
      <point x="767" y="236"/>
      <point x="733" y="273"/>
      <point x="707" y="328" type="curve"/>
    </contour>
    <contour>
      <point x="525" y="641" type="line"/>
      <point x="515" y="611" type="line"/>
      <point x="540" y="536" type="line"/>
      <point x="913" y="536" type="line"/>
      <point x="923" y="566" type="line"/>
      <point x="898" y="641" type="line"/>
    </contour>
    <contour>
      <point x="429" y="191" type="line"/>
      <point x="552" y="210"/>
      <point x="730" y="276"/>
      <point x="797" y="368" type="curve"/>
      <point x="664" y="416" type="line"/>
      <point x="609" y="339"/>
      <point x="516" y="297"/>
      <point x="411" y="284" type="curve"/>
    </contour>
    <contour>
      <point x="593" y="410" type="line"/>
      <point x="597" y="378"/>
      <point x="606" y="331"/>
      <point x="621" y="294" type="curve"/>
      <point x="797" y="368" type="line"/>
      <point x="759" y="417"/>
      <point x="709" y="446"/>
      <point x="646" y="455" type="curve"/>
    </contour>
    <component base="t_ra-deva"/>
    <component base="rrVocalicMatra-deva" xOffset="547" yOffset="182"/>
    <contour>
      <point x="427" y="641" type="move" name="top"/>
    </contour>
    <contour>
      <point x="427" y="0" type="move" name="bottom"/>
    </contour>
  </outline>
</glyph>
<glyph name="llVocalic-deva" format="1">
  <advance width="821"/>
  <unicode hex="0961"/>
  <outline>
    <contour>
      <point x="485" y="611" type="line"/>
      <point x="510" y="536" type="line"/>
      <point x="833" y="536" type="line"/>
      <point x="846" y="566" type="line"/>
      <point x="821" y="641" type="line"/>
      <point x="495" y="641" type="line"/>
    </contour>
    <contour>
      <point x="728" y="119" type="line"/>
      <point x="723" y="184" type="line"/>
      <point x="723" y="563" type="line"/>
      <point x="609" y="563" type="line"/>
      <point x="609" y="185" type="line"/>
      <point x="603" y="119" type="line"/>
    </contour>
    <component base="l-deva"/>
    <component base="rrVocalicMatra-deva" xOffset="471" yOffset="134"/>
    <contour>
      <point x="666" y="641" type="move" name="top"/>
    </contour>
    <contour>
      <point x="399" y="0" type="move" name="bottom"/>
    </contour>
  </outline>
</glyph>
<glyph name="danda-deva" format="1">
  <advance width="311"/>
  <unicode hex="0964"/>
  <outline>
    <contour>
      <point x="89" y="635" type="line"/>
      <point x="99" y="442" type="line"/>
      <point x="99" y="114" type="line"/>
      <point x="89" y="-86" type="line"/>
      <point x="195" y="-105" type="line"/>
      <point x="223" y="-80" type="line"/>
      <point x="213" y="113" type="line"/>
      <point x="213" y="441" type="line"/>
      <point x="223" y="641" type="line"/>
      <point x="117" y="660" type="line"/>
    </contour>
  </outline>
</glyph>
<glyph name="six-deva" format="1">
  <advance width="532"/>
  <unicode hex="096C"/>
  <outline>
    <contour>
      <point x="316" y="665"/>
      <point x="276" y="671"/>
      <point x="235" y="671" type="curve" smooth="yes"/>
      <point x="143" y="671"/>
      <point x="49" y="638"/>
      <point x="49" y="537" type="curve" smooth="yes"/>
      <point x="49" y="460"/>
      <point x="115" y="397"/>
      <point x="229" y="367" type="curve"/>
      <point x="275" y="428" type="line"/>
      <point x="218" y="440"/>
      <point x="174" y="472"/>
      <point x="174" y="503" type="curve" smooth="yes"/>
      <point x="174" y="530"/>
      <point x="198" y="551"/>
      <point x="248" y="551" type="curve" smooth="yes"/>
      <point x="290" y="551"/>
      <point x="342" y="541"/>
      <point x="378" y="533" type="curve"/>
      <point x="396" y="556" type="line"/>
      <point x="349" y="655" type="line"/>
    </contour>
    <contour>
      <point x="325" y="216"/>
      <point x="274" y="187"/>
      <point x="232" y="187" type="curve" smooth="yes"/>
      <point x="201" y="187"/>
      <point x="177" y="199"/>
      <point x="177" y="239" type="curve" smooth="yes"/>
      <point x="177" y="315"/>
      <point x="281" y="344"/>
      <point x="423" y="344" type="curve"/>
      <point x="373" y="463" type="line"/>
      <point x="161" y="458"/>
      <point x="49" y="363"/>
      <point x="49" y="264" type="curve" smooth="yes"/>
      <point x="49" y="178"/>
      <point x="106" y="95"/>
      <point x="266" y="95" type="curve" smooth="yes"/>
      <point x="364" y="95"/>
      <point x="439" y="121"/>
      <point x="500" y="191" type="curve"/>
      <point x="356" y="261" type="line"/>
    </contour>
    <contour>
      <point x="307" y="265" type="line"/>
      <point x="286" y="130"/>
      <point x="324" y="44"/>
      <point x="391" y="-53" type="curve"/>
      <point x="499" y="8" type="line"/>
      <point x="441" y="63"/>
      <point x="406" y="101"/>
      <point x="386" y="179" type="curve"/>
      <point x="500" y="191" type="line"/>
      <point x="470" y="247"/>
      <point x="426" y="284"/>
      <point x="366" y="295" type="curve"/>
    </contour>
  </outline>
</glyph>
<glyph name="gga-deva" format="1">
  <advance width="625"/>
  <unicode hex="097B"/>
  <outline>
    <contour>
      <point x="57" y="11" type="line"/>
      <point x="82" y="-64" type="line"/>
      <point x="540" y="-64" type="line"/>
      <point x="553" y="-34" type="line"/>
      <point x="551" y="-9" type="line"/>
      <point x="522" y="41" type="line"/>
      <point x="67" y="41" type="line"/>
    </contour>
    <component base="ga-deva"/>
    <contour>
      <point x="490" y="641" type="move" name="top"/>
    </contour>
    <contour>
      <point x="470" y="-65" type="move" name="bottom"/>
    </contour>
  </outline>
</glyph>
<glyph name="glottalstop-deva" format="1">
  <advance width="457"/>
  <unicode hex="097D"/>
  <outline>
    <contour>
      <point x="100" y="275" type="line"/>
      <point x="100" y="185" type="line"/>
      <point x="83" y="-15" type="line"/>
      <point x="200" y="-34" type="line"/>
      <point x="228" y="-9" type="line"/>
      <point x="214" y="184" type="line"/>
      <point x="214" y="275" type="line"/>
    </contour>
    <contour>
      <point x="44" y="486" type="line"/>
      <point x="84" y="470" type="line"/>
      <point x="130" y="515"/>
      <point x="170" y="546"/>
      <point x="224" y="546" type="curve" smooth="yes"/>
      <point x="273" y="546"/>
      <point x="316" y="519"/>
      <point x="316" y="457" type="curve" smooth="yes"/>
      <point x="316" y="398"/>
      <point x="252" y="322"/>
      <point x="135" y="310" type="curve"/>
      <point x="100" y="275" type="line"/>
      <point x="181" y="180" type="line"/>
      <point x="301" y="220"/>
      <point x="421" y="323"/>
      <point x="417" y="443" type="curve" smooth="yes"/>
      <point x="414" y="540"/>
      <point x="333" y="641"/>
      <point x="180" y="639" type="curve" smooth="yes"/>
      <point x="125" y="638"/>
      <point x="66" y="625"/>
      <point x="4" y="584" type="curve"/>
    </contour>
  </outline>
</glyph>
<glyph name="Germandbls" format="1">
  <advance width="774"/>
  <unicode hex="1E9E"/>
  <outline>
    <contour>
      <point x="30" y="-5" type="line"/>
      <point x="30" y="-5"/>
      <point x="83" y="0"/>
      <point x="130" y="0" type="curve"/>
      <point x="263" y="0" type="line"/>
      <point x="259" y="70"/>
      <point x="255" y="142"/>
      <point x="255" y="193" type="curve" smooth="yes"/>
      <point x="255" y="444" type="line" smooth="yes"/>
      <point x="255" y="544"/>
      <point x="278" y="629"/>
      <point x="378" y="629" type="curve" smooth="yes"/>
      <point x="437" y="629"/>
      <point x="469" y="606"/>
      <point x="495" y="583" type="curve"/>
      <point x="344" y="334" type="line"/>
      <point x="462" y="300" type="line"/>
      <point x="678" y="643" type="line"/>
      <point x="596" y="689"/>
      <point x="489" y="725"/>
      <point x="367" y="725" type="curve" smooth="yes"/>
      <point x="189" y="725"/>
      <point x="100" y="630"/>
      <point x="100" y="444" type="curve" smooth="yes"/>
      <point x="100" y="163" type="line" smooth="yes"/>
      <point x="100" y="143"/>
      <point x="92" y="87"/>
      <point x="91" y="77" type="curve"/>
      <point x="25" y="65" type="line"/>
    </contour>
    <contour>
      <point x="309" y="33" type="line"/>
      <point x="309" y="33"/>
      <point x="407" y="-15"/>
      <point x="512" y="-15" type="curve" smooth="yes"/>
      <point x="646" y="-15"/>
      <point x="739" y="70"/>
      <point x="739" y="204" type="curve" smooth="yes"/>
      <point x="739" y="340"/>
      <point x="582" y="440"/>
      <point x="461" y="500" type="curve"/>
      <point x="344" y="334" type="line"/>
      <point x="436" y="293"/>
      <point x="574" y="236"/>
      <point x="574" y="166" type="curve" smooth="yes"/>
      <point x="574" y="116"/>
      <point x="547" y="82"/>
      <point x="492" y="82" type="curve" smooth="yes"/>
      <point x="452" y="82"/>
      <point x="431" y="94"/>
      <point x="417" y="106" type="curve"/>
      <point x="412" y="123"/>
      <point x="408" y="150"/>
      <point x="408" y="156" type="curve" smooth="yes"/>
      <point x="408" y="168"/>
      <point x="407" y="221"/>
      <point x="407" y="221" type="curve"/>
      <point x="324" y="226" type="line"/>
    </contour>
  </outline>
</glyph>
<glyph name="quoteright" format="1">
  <advance width="229"/>
  <unicode hex="2019"/>
  <outline>
    <contour>
      <point x="63" y="615"/>
      <point x="34" y="645"/>
      <point x="34" y="686" type="curve" smooth="yes"/>
      <point x="34" y="731"/>
      <point x="67" y="770"/>
      <point x="113" y="770" type="curve" smooth="yes"/>
      <point x="167" y="770"/>
      <point x="193" y="723"/>
      <point x="193" y="671" type="curve" smooth="yes"/>
      <point x="193" y="601"/>
      <point x="142" y="522"/>
      <point x="48" y="514" type="curve"/>
      <point x="39" y="543" type="line"/>
      <point x="67" y="556"/>
      <point x="96" y="575"/>
      <point x="105" y="615" type="curve"/>
    </contour>
  </outline>
</glyph>
<glyph name="guilsinglleft" format="1">
  <advance width="270"/>
  <unicode hex="2039"/>
  <outline>
    <contour>
      <point x="20" y="242" type="line"/>
      <point x="173" y="10" type="line"/>
      <point x="240" y="55" type="line"/>
      <point x="110" y="286" type="line"/>
    </contour>
    <contour>
      <point x="110" y="198" type="line"/>
      <point x="240" y="429" type="line"/>
      <point x="173" y="474" type="line"/>
      <point x="20" y="242" type="line"/>
    </contour>
  </outline>
</glyph>
<glyph name="minus" format="1">
  <advance width="581"/>
  <unicode hex="2212"/>
  <outline>
    <contour>
      <point x="63" y="203" type="line"/>
      <point x="63" y="309" type="line"/>
      <point x="518" y="309" type="line"/>
      <point x="518" y="208" type="line"/>
    </contour>
  </outline>
</glyph>
<glyph name="infinity" format="1">
  <advance width="750"/>
  <unicode hex="221E"/>
  <outline>
    <contour>
      <point x="682" y="575"/>
      <point x="732" y="457"/>
      <point x="732" y="335" type="curve" smooth="yes"/>
      <point x="732" y="213"/>
      <point x="680" y="95"/>
      <point x="558" y="95" type="curve" smooth="yes"/>
      <point x="479" y="95"/>
      <point x="419" y="163"/>
      <point x="380" y="225" type="curve"/>
      <point x="339" y="156"/>
      <point x="284" y="94"/>
      <point x="190" y="94" type="curve" smooth="yes"/>
      <point x="68" y="94"/>
      <point x="18" y="212"/>
      <point x="18" y="334" type="curve" smooth="yes"/>
      <point x="18" y="456"/>
      <point x="70" y="574"/>
      <point x="192" y="574" type="curve" smooth="yes"/>
      <point x="274" y="574"/>
      <point x="334" y="508"/>
      <point x="372" y="447" type="curve"/>
      <point x="412" y="514"/>
      <point x="467" y="575"/>
      <point x="560" y="575" type="curve" smooth="yes"/>
    </contour>
    <contour>
      <point x="613" y="251"/>
      <point x="655" y="280"/>
      <point x="655" y="335" type="curve" smooth="yes"/>
      <point x="655" y="390"/>
      <point x="617" y="419"/>
      <point x="562" y="419" type="curve" smooth="yes"/>
      <point x="498" y="419"/>
      <point x="466" y="372"/>
      <point x="433" y="314" type="curve"/>
      <point x="464" y="281"/>
      <point x="507" y="251"/>
      <point x="558" y="251" type="curve" smooth="yes"/>
    </contour>
    <contour>
      <point x="137" y="418"/>
      <point x="95" y="389"/>
      <point x="95" y="334" type="curve" smooth="yes"/>
      <point x="95" y="279"/>
      <point x="133" y="250"/>
      <point x="188" y="250" type="curve" smooth="yes"/>
      <point x="251" y="250"/>
      <point x="284" y="297"/>
      <point x="316" y="354" type="curve"/>
      <point x="285" y="387"/>
      <point x="243" y="418"/>
      <point x="192" y="418" type="curve" smooth="yes"/>
    </contour>
  </outline>
</glyph>
<glyph name="lessequal" format="1">
  <advance width="581"/>
  <unicode hex="2264"/>
  <outline>
    <contour>
      <point x="518" y="96" type="line"/>
      <point x="518" y="0" type="line"/>
      <point x="63" y="0" type="line"/>
      <point x="63" y="91" type="line"/>
    </contour>
    <contour>
      <point x="468" y="211" type="line"/>
      <point x="406" y="128" type="line"/>
      <point x="95" y="354" type="line"/>
      <point x="406" y="580" type="line"/>
      <point x="468" y="497" type="line"/>
      <point x="266" y="354" type="line"/>
    </contour>
  </outline>
</glyph>
<glyph name="uniA78B" format="1">
  <advance width="269"/>
  <unicode hex="A78B"/>
  <outline>
    <contour>
      <point x="181" y="720" type="line"/>
      <point x="199" y="703" type="line"/>
      <point x="176" y="341" type="line"/>
      <point x="80" y="346" type="line"/>
      <point x="88" y="536" type="line"/>
      <point x="88" y="551"/>
      <point x="67" y="720"/>
      <point x="67" y="720" type="curve" smooth="yes"/>
    </contour>
  </outline>
</glyph>
<glyph name="uniA78C" format="1">
  <advance width="270"/>
  <unicode hex="A78C"/>
  <outline>
    <contour>
      <point x="177" y="667" type="line"/>
      <point x="195" y="650" type="line"/>
      <point x="173" y="298" type="line"/>
      <point x="85" y="303" type="line"/>
      <point x="93" y="493" type="line"/>
      <point x="93" y="508"/>
      <point x="71" y="667"/>
      <point x="71" y="667" type="curve" smooth="yes"/>
    </contour>
  </outline>
</glyph>
<glyph name="two-deva.comb" format="1">
  <advance width="292"/>
  <unicode hex="A8E2"/>
  <outline>
    <contour>
      <point x="83" y="1010"/>
      <point x="38" y="1008"/>
      <point x="5" y="978" type="curve"/>
      <point x="58" y="905" type="line"/>
      <point x="75" y="925"/>
      <point x="99" y="943"/>
      <point x="123" y="943" type="curve" smooth="yes"/>
      <point x="154" y="943"/>
      <point x="171" y="924"/>
      <point x="171" y="903" type="curve" smooth="yes"/>
      <point x="171" y="880"/>
      <point x="151" y="855"/>
      <point x="109" y="851" type="curve"/>
      <point x="104" y="862"/>
      <point x="100" y="871"/>
      <point x="96" y="875" type="curve"/>
      <point x="85" y="878"/>
      <point x="80" y="879"/>
      <point x="73" y="879" type="curve" smooth="yes"/>
      <point x="55" y="879"/>
      <point x="42" y="878"/>
      <point x="29" y="865" type="curve"/>
      <point x="20" y="834" type="line"/>
      <point x="30" y="801"/>
      <point x="58" y="766"/>
      <point x="103" y="766" type="curve"/>
      <point x="138" y="709"/>
      <point x="159" y="684"/>
      <point x="228" y="649" type="curve"/>
      <point x="287" y="723" type="line"/>
      <point x="231" y="742"/>
      <point x="190" y="760"/>
      <point x="167" y="777" type="curve"/>
      <point x="216" y="801"/>
      <point x="240" y="844"/>
      <point x="240" y="887" type="curve" smooth="yes"/>
      <point x="240" y="959"/>
      <point x="179" y="1010"/>
      <point x="98" y="1010" type="curve" smooth="yes"/>
    </contour>
    <contour>
      <point x="153" y="640" type="move" name="_top"/>
    </contour>
  </outline>
</glyph>
<glyph name="three-deva.comb" format="1">
  <advance width="258"/>
  <unicode hex="A8E3"/>
  <outline>
    <contour>
      <point x="88" y="1010"/>
      <point x="48" y="1002"/>
      <point x="8" y="986" type="curve"/>
      <point x="46" y="900" type="line"/>
      <point x="74" y="922"/>
      <point x="112" y="947"/>
      <point x="147" y="947" type="curve" smooth="yes"/>
      <point x="154" y="947"/>
      <point x="169" y="949"/>
      <point x="169" y="937" type="curve" smooth="yes"/>
      <point x="169" y="928"/>
      <point x="142" y="909"/>
      <point x="71" y="906" type="curve"/>
      <point x="103" y="824" type="line"/>
      <point x="119" y="826"/>
      <point x="134" y="828"/>
      <point x="147" y="832" type="curve"/>
      <point x="161" y="827"/>
      <point x="166" y="824"/>
      <point x="166" y="814" type="curve" smooth="yes"/>
      <point x="166" y="791"/>
      <point x="135" y="782"/>
      <point x="108" y="781" type="curve"/>
      <point x="101" y="789"/>
      <point x="92" y="798"/>
      <point x="85" y="809" type="curve"/>
      <point x="75" y="811"/>
      <point x="57" y="814"/>
      <point x="47" y="814" type="curve" smooth="yes"/>
      <point x="33" y="814"/>
      <point x="22" y="809"/>
      <point x="12" y="801" type="curve"/>
      <point x="5" y="786" type="line"/>
      <point x="11" y="746"/>
      <point x="52" y="727"/>
      <point x="97" y="720" type="curve"/>
      <point x="133" y="677"/>
      <point x="161" y="650"/>
      <point x="194" y="634" type="curve"/>
      <point x="241" y="698" type="line"/>
      <point x="222" y="706"/>
      <point x="203" y="714"/>
      <point x="184" y="723" type="curve"/>
      <point x="226" y="731"/>
      <point x="253" y="750"/>
      <point x="253" y="798" type="curve" smooth="yes"/>
      <point x="253" y="827"/>
      <point x="235" y="848"/>
      <point x="210" y="863" type="curve"/>
      <point x="225" y="879"/>
      <point x="234" y="901"/>
      <point x="234" y="924" type="curve" smooth="yes"/>
      <point x="234" y="985"/>
      <point x="191" y="1010"/>
      <point x="113" y="1010" type="curve" smooth="yes"/>
    </contour>
    <contour>
      <point x="141" y="640" type="move" name="_top"/>
    </contour>
  </outline>
</glyph>
<glyph name="five-deva.comb" format="1">
  <advance width="260"/>
  <unicode hex="A8E5"/>
  <outline>
    <contour>
      <point x="20" y="982"/>
      <point x="5" y="920"/>
      <point x="5" y="891" type="curve" smooth="yes"/>
      <point x="5" y="799"/>
      <point x="56" y="763"/>
      <point x="127" y="763" type="curve" smooth="yes"/>
      <point x="138" y="763"/>
      <point x="148" y="764"/>
      <point x="155" y="766" type="curve"/>
      <point x="161" y="736"/>
      <point x="163" y="707"/>
      <point x="165" y="685" type="curve" smooth="yes"/>
      <point x="166" y="673"/>
      <point x="166" y="662"/>
      <point x="166" y="651" type="curve"/>
      <point x="251" y="670" type="line"/>
      <point x="242" y="712"/>
      <point x="226" y="752"/>
      <point x="214" y="780" type="curve"/>
      <point x="237" y="795"/>
      <point x="251" y="816"/>
      <point x="255" y="842" type="curve"/>
      <point x="222" y="871"/>
      <point x="202" y="881"/>
      <point x="165" y="881" type="curve"/>
      <point x="128" y="842" type="line"/>
      <point x="131" y="829" type="line"/>
      <point x="127" y="827"/>
      <point x="120" y="826"/>
      <point x="112" y="826" type="curve" smooth="yes"/>
      <point x="105" y="826"/>
      <point x="86" y="827"/>
      <point x="86" y="860" type="curve" smooth="yes"/>
      <point x="86" y="888"/>
      <point x="102" y="948"/>
      <point x="118" y="976" type="curve"/>
      <point x="44" y="1012" type="line"/>
    </contour>
    <contour>
      <point x="130" y="640" type="move" name="_top"/>
    </contour>
  </outline>
</glyph>
<glyph name="ka-deva.comb" format="1">
  <advance width="500"/>
  <unicode hex="A8EC"/>
  <outline>
    <contour>
      <point x="10" y="1012" type="line"/>
      <point x="5" y="987" type="line"/>
      <point x="23" y="942" type="line"/>
      <point x="241" y="942" type="line"/>
      <point x="241" y="876" type="line"/>
      <point x="201" y="903"/>
      <point x="170" y="915"/>
      <point x="138" y="915" type="curve" smooth="yes"/>
      <point x="70" y="915"/>
      <point x="36" y="882"/>
      <point x="36" y="816" type="curve" smooth="yes"/>
      <point x="36" y="755"/>
      <point x="85" y="713"/>
      <point x="156" y="713" type="curve" smooth="yes"/>
      <point x="189" y="713"/>
      <point x="214" y="719"/>
      <point x="236" y="732" type="curve"/>
      <point x="228" y="661" type="line"/>
      <point x="306" y="650" type="line"/>
      <point x="325" y="668" type="line"/>
      <point x="315" y="771" type="line"/>
      <point x="315" y="800" type="line"/>
      <point x="333" y="830"/>
      <point x="352" y="842"/>
      <point x="377" y="842" type="curve" smooth="yes"/>
      <point x="401" y="842"/>
      <point x="417" y="830"/>
      <point x="417" y="813" type="curve" smooth="yes"/>
      <point x="417" y="793"/>
      <point x="396" y="769"/>
      <point x="366" y="754" type="curve"/>
      <point x="366" y="723" type="line"/>
      <point x="421" y="684" type="line"/>
      <point x="464" y="713"/>
      <point x="493" y="763"/>
      <point x="493" y="806" type="curve" smooth="yes"/>
      <point x="493" y="875"/>
      <point x="428" y="908"/>
      <point x="369" y="908" type="curve" smooth="yes"/>
      <point x="349" y="908"/>
      <point x="330" y="904"/>
      <point x="315" y="895" type="curve"/>
      <point x="315" y="942" type="line"/>
      <point x="490" y="942" type="line"/>
      <point x="495" y="967" type="line"/>
      <point x="478" y="1012" type="line"/>
    </contour>
    <contour>
      <point x="194" y="850"/>
      <point x="216" y="846"/>
      <point x="232" y="839" type="curve"/>
      <point x="210" y="797"/>
      <point x="177" y="773"/>
      <point x="140" y="773" type="curve" smooth="yes"/>
      <point x="122" y="773"/>
      <point x="109" y="785"/>
      <point x="109" y="803" type="curve" smooth="yes"/>
      <point x="109" y="838"/>
      <point x="140" y="850"/>
      <point x="174" y="850" type="curve" smooth="yes"/>
    </contour>
    <contour>
      <point x="250" y="640" type="move" name="_top"/>
    </contour>
  </outline>
</glyph>
<glyph name="avagraha-deva.comb" format="1">
  <advance width="269"/>
  <unicode hex="A8F1"/>
  <outline>
    <contour>
      <point x="111" y="1012" type="line" smooth="yes"/>
      <point x="63" y="1012"/>
      <point x="32" y="986"/>
      <point x="32" y="953" type="curve" smooth="yes"/>
      <point x="32" y="893"/>
      <point x="82" y="864"/>
      <point x="124" y="839" type="curve" smooth="yes"/>
      <point x="155" y="820"/>
      <point x="182" y="805"/>
      <point x="182" y="782" type="curve" smooth="yes"/>
      <point x="182" y="754"/>
      <point x="154" y="738"/>
      <point x="120" y="738" type="curve" smooth="yes"/>
      <point x="89" y="738"/>
      <point x="59" y="752"/>
      <point x="30" y="774" type="curve"/>
      <point x="5" y="742" type="line"/>
      <point x="49" y="696"/>
      <point x="96" y="680"/>
      <point x="148" y="680" type="curve" smooth="yes"/>
      <point x="201" y="680"/>
      <point x="264" y="705"/>
      <point x="264" y="768" type="curve" smooth="yes"/>
      <point x="264" y="826"/>
      <point x="206" y="860"/>
      <point x="160" y="887" type="curve" smooth="yes"/>
      <point x="129" y="904"/>
      <point x="103" y="918"/>
      <point x="103" y="934" type="curve" smooth="yes"/>
      <point x="103" y="939"/>
      <point x="108" y="942"/>
      <point x="116" y="942" type="curve" smooth="yes"/>
      <point x="234" y="942" type="line"/>
      <point x="239" y="967" type="line"/>
      <point x="221" y="1012" type="line"/>
    </contour>
    <contour>
      <point x="175" y="640" type="move" name="_top"/>
    </contour>
  </outline>
</glyph>
<glyph name="acute.cap" format="1">
  <advance width="360"/>
  <outline>
    <contour>
      <point x="270" y="686" type="line"/>
      <point x="33" y="583" type="line"/>
      <point x="68" y="522" type="line"/>
      <point x="304" y="607" type="line"/>
    </contour>
    <contour>
      <point x="160" y="494" type="move" name="_top"/>
    </contour>
  </outline>
</glyph>
<glyph name="auMatra_reph-deva" format="1">
  <advance width="311"/>
  <outline>
    <component base="aaMatra-deva"/>
    <component base="aiMatra_reph-deva" xOffset="-249"/>
    <contour>
      <point x="57" y="909" type="move" name="top"/>
    </contour>
  </outline>
</glyph>
<glyph name="b_ra-deva" format="1">
  <advance width="610"/>
  <outline>
    <component base="b_r-deva"/>
    <component base="aaMatra-deva" xOffset="299"/>
    <contour>
      <point x="453" y="641" type="move" name="top"/>
    </contour>
    <contour>
      <point x="453" y="0" type="move" name="bottom"/>
    </contour>
  </outline>
</glyph>
<glyph name="breveacute.cap" format="1">
  <advance width="360"/>
  <outline>
    <contour>
      <point x="123" y="669" type="line"/>
      <point x="156" y="624" type="line"/>
      <point x="316" y="708" type="line"/>
      <point x="280" y="767" type="line"/>
    </contour>
    <component base="brevecomb" xOffset="6" yOffset="-30"/>
    <contour>
      <point x="180" y="494" type="move" name="_top"/>
    </contour>
  </outline>
</glyph>
<glyph name="breveacute" format="1">
  <advance width="360"/>
  <outline>
    <contour>
      <point x="123" y="702" type="line"/>
      <point x="156" y="657" type="line"/>
      <point x="316" y="741" type="line"/>
      <point x="280" y="800" type="line"/>
    </contour>
    <component base="brevecomb" xOffset="6" yOffset="3"/>
    <contour>
      <point x="180" y="494" type="move" name="_top"/>
    </contour>
  </outline>
</glyph>
<glyph name="brevegrave.cap" format="1">
  <advance width="360"/>
  <outline>
    <contour>
      <point x="48" y="707" type="line"/>
      <point x="208" y="623" type="line"/>
      <point x="241" y="668" type="line"/>
      <point x="84" y="766" type="line"/>
    </contour>
    <component base="brevecomb" xOffset="6" yOffset="-31"/>
    <contour>
      <point x="180" y="494" type="move" name="_top"/>
    </contour>
  </outline>
</glyph>
<glyph name="brevegrave" format="1">
  <advance width="360"/>
  <outline>
    <contour>
      <point x="48" y="741" type="line"/>
      <point x="208" y="657" type="line"/>
      <point x="241" y="702" type="line"/>
      <point x="84" y="800" type="line"/>
    </contour>
    <component base="brevecomb" xOffset="6" yOffset="3"/>
    <contour>
      <point x="180" y="494" type="move" name="_top"/>
    </contour>
  </outline>
</glyph>
<glyph name="brevetilde.cap" format="1">
  <advance width="360"/>
  <outline>
    <component base="brevecomb" xOffset="6" yOffset="-30"/>
    <component base="tildecomb" xOffset="4" yOffset="64"/>
    <contour>
      <point x="180" y="494" type="move" name="_top"/>
    </contour>
  </outline>
</glyph>
<glyph name="brevetilde" format="1">
  <advance width="360"/>
  <outline>
    <component base="brevecomb" xOffset="6" yOffset="3"/>
    <component base="tildecomb" yOffset="92"/>
    <contour>
      <point x="180" y="494" type="move" name="_top"/>
    </contour>
  </outline>
</glyph>
<glyph name="c_ra-deva" format="1">
  <advance width="723"/>
  <outline>
    <contour>
      <point x="567" y="186" type="line"/>
      <point x="507" y="247" type="line"/>
      <point x="416" y="172"/>
      <point x="316" y="100"/>
      <point x="224" y="43" type="curve"/>
      <point x="302" y="-35" type="line"/>
    </contour>
    <component base="c-deva"/>
    <component base="aaMatra-deva" xOffset="412"/>
    <contour>
      <point x="565" y="641" type="move" name="top"/>
    </contour>
    <contour>
      <point x="565" y="0" type="move" name="bottom"/>
    </contour>
  </outline>
</glyph>
<glyph name="caron.alt" format="1">
  <advance width="159"/>
  <outline>
    <contour>
      <point x="127" y="705" type="line"/>
      <point x="114" y="460" type="line"/>
      <point x="40" y="465" type="line"/>
      <point x="32" y="705" type="line"/>
    </contour>
  </outline>
</glyph>
<glyph name="caron.cap" format="1">
  <advance width="360"/>
  <outline>
    <contour>
      <point x="194" y="522" type="line"/>
      <point x="228" y="573" type="line"/>
      <point x="34" y="687" type="line"/>
      <point x="-8" y="639" type="line"/>
      <point x="131" y="522" type="line"/>
    </contour>
    <contour>
      <point x="229" y="522" type="line"/>
      <point x="368" y="639" type="line"/>
      <point x="326" y="687" type="line"/>
      <point x="132" y="573" type="line"/>
      <point x="166" y="522" type="line"/>
    </contour>
    <contour>
      <point x="180" y="185" type="move" name="_top_caps"/>
    </contour>
    <contour>
      <point x="180" y="494" type="move" name="_top"/>
    </contour>
  </outline>
</glyph>
<glyph name="circumflex.cap" format="1">
  <advance width="360"/>
  <outline>
    <component base="caron.cap" xOffset="360" yOffset="1208" xScale="-1" yScale="-1"/>
    <contour>
      <point x="180" y="494" type="move" name="_top"/>
    </contour>
  </outline>
</glyph>
<glyph name="circumflexacute.cap" format="1">
  <advance width="360"/>
  <outline>
    <contour>
      <point x="363" y="771" type="line"/>
      <point x="262" y="668" type="line"/>
      <point x="306" y="630" type="line"/>
      <point x="412" y="721" type="line"/>
    </contour>
    <component base="circumflexcomb" xOffset="10" yOffset="-20"/>
    <contour>
      <point x="180" y="494" type="move" name="_top"/>
    </contour>
  </outline>
</glyph>
<glyph name="circumflexacute" format="1">
  <advance width="360"/>
  <outline>
    <contour>
      <point x="314" y="645" type="line"/>
      <point x="412" y="729" type="line"/>
      <point x="363" y="779" type="line"/>
      <point x="270" y="685" type="line"/>
    </contour>
    <component base="circumflexcomb" xOffset="10" yOffset="15"/>
    <contour>
      <point x="180" y="494" type="move" name="_top"/>
    </contour>
  </outline>
</glyph>
<glyph name="circumflexcomb.flat" format="1">
  <advance width="367"/>
  <outline>
    <contour>
      <point x="20" y="579" type="line"/>
      <point x="54" y="526" type="line"/>
      <point x="254" y="620" type="line"/>
      <point x="184" y="656" type="line"/>
      <point x="142" y="656" type="line"/>
    </contour>
    <contour>
      <point x="183" y="656" type="line"/>
      <point x="113" y="620" type="line"/>
      <point x="313" y="526" type="line"/>
      <point x="347" y="579" type="line"/>
      <point x="225" y="656" type="line"/>
    </contour>
  </outline>
</glyph>
<glyph name="circumflexgrave.cap" format="1">
  <advance width="360"/>
  <outline>
    <contour>
      <point x="322" y="620" type="line"/>
      <point x="366" y="658" type="line"/>
      <point x="263" y="771" type="line"/>
      <point x="215" y="723" type="line"/>
    </contour>
    <component base="circumflexcomb" xOffset="10" yOffset="-20"/>
    <contour>
      <point x="180" y="494" type="move" name="_top"/>
    </contour>
  </outline>
</glyph>
<glyph name="circumflexgrave" format="1">
  <advance width="360"/>
  <outline>
    <contour>
      <point x="333" y="638" type="line"/>
      <point x="377" y="676" type="line"/>
      <point x="283" y="779" type="line"/>
      <point x="235" y="731" type="line"/>
    </contour>
    <component base="circumflexcomb" xOffset="10" yOffset="15"/>
    <contour>
      <point x="180" y="494" type="move" name="_top"/>
    </contour>
  </outline>
</glyph>
<glyph name="circumflexhookabove.cap" format="1">
  <advance width="360"/>
  <outline>
    <component base="circumflexcomb" xOffset="10" yOffset="-20"/>
    <component base="hookabovecomb.small" xOffset="250" yOffset="-48"/>
    <contour>
      <point x="180" y="494" type="move" name="_top"/>
    </contour>
  </outline>
</glyph>
<glyph name="circumflexhookabove" format="1">
  <advance width="360"/>
  <outline>
    <component base="circumflexcomb" xOffset="10" yOffset="15"/>
    <component base="hookabovecomb.small" xOffset="260" yOffset="-28"/>
    <contour>
      <point x="180" y="494" type="move" name="_top"/>
    </contour>
  </outline>
</glyph>
<glyph name="circumflextilde" format="1">
  <advance width="360"/>
  <outline>
    <component base="circumflexcomb.flat" xOffset="-3" yOffset="25"/>
    <component base="tildecomb" xOffset="7" yOffset="84"/>
    <contour>
      <point x="180" y="494" type="move" name="_top"/>
    </contour>
  </outline>
</glyph>
<glyph name="d_bha_uMatra-deva" format="1">
  <advance width="694"/>
  <outline>
    <contour>
      <point x="363" y="469" type="line" smooth="yes"/>
      <point x="217" y="469"/>
      <point x="133" y="403"/>
      <point x="133" y="286" type="curve" smooth="yes"/>
      <point x="133" y="150"/>
      <point x="259" y="42"/>
      <point x="418" y="42" type="curve" smooth="yes"/>
      <point x="534" y="42"/>
      <point x="621" y="99"/>
      <point x="646" y="191" type="curve"/>
      <point x="520" y="218" type="line"/>
      <point x="477" y="164"/>
      <point x="447" y="133"/>
      <point x="378" y="133" type="curve" smooth="yes"/>
      <point x="303" y="133"/>
      <point x="258" y="191"/>
      <point x="258" y="266" type="curve" smooth="yes"/>
      <point x="258" y="327"/>
      <point x="301" y="359"/>
      <point x="383" y="359" type="curve" smooth="yes"/>
      <point x="532" y="358" type="line"/>
      <point x="563" y="397" type="line"/>
      <point x="563" y="469" type="line"/>
    </contour>
    <contour>
      <point x="-20" y="641" type="line"/>
      <point x="-30" y="611" type="line"/>
      <point x="-5" y="536" type="line"/>
      <point x="714" y="536" type="line"/>
      <point x="724" y="566" type="line"/>
      <point x="699" y="641" type="line"/>
    </contour>
    <contour>
      <point x="449" y="579" type="line"/>
      <point x="449" y="397" type="line"/>
      <point x="563" y="397" type="line"/>
      <point x="563" y="579" type="line"/>
    </contour>
    <contour>
      <point x="430" y="203" type="line"/>
      <point x="452" y="123"/>
      <point x="492" y="7"/>
      <point x="540" y="-61" type="curve"/>
      <point x="680" y="-52" type="line"/>
      <point x="604" y="4"/>
      <point x="553" y="72"/>
      <point x="529" y="149" type="curve"/>
      <point x="646" y="191" type="line"/>
      <point x="601" y="235"/>
      <point x="547" y="256"/>
      <point x="483" y="256" type="curve"/>
    </contour>
    <contour>
      <point x="337" y="-147" type="line"/>
      <point x="398" y="-223"/>
      <point x="475" y="-282"/>
      <point x="586" y="-282" type="curve" smooth="yes"/>
      <point x="670" y="-282"/>
      <point x="738" y="-231"/>
      <point x="738" y="-147" type="curve" smooth="yes"/>
      <point x="738" y="-64"/>
      <point x="631" y="1"/>
      <point x="547" y="1" type="curve" smooth="yes"/>
      <point x="505" y="1"/>
      <point x="465" y="-11"/>
      <point x="423" y="-39" type="curve"/>
      <point x="487" y="-126" type="line"/>
      <point x="529" y="-94"/>
      <point x="564" y="-83"/>
      <point x="594" y="-83" type="curve" smooth="yes"/>
      <point x="623" y="-83"/>
      <point x="643" y="-100"/>
      <point x="643" y="-122" type="curve" smooth="yes"/>
      <point x="643" y="-154"/>
      <point x="624" y="-186"/>
      <point x="556" y="-186" type="curve" smooth="yes"/>
      <point x="504" y="-186"/>
      <point x="450" y="-170"/>
      <point x="383" y="-106" type="curve"/>
    </contour>
    <contour>
      <point x="372" y="62"/>
      <point x="188" y="-52"/>
      <point x="115" y="-125" type="curve"/>
      <point x="113" y="-159" type="line"/>
      <point x="135" y="-190"/>
      <point x="176" y="-211"/>
      <point x="227" y="-211" type="curve" smooth="yes"/>
      <point x="251" y="-211"/>
      <point x="276" y="-204"/>
      <point x="300" y="-187" type="curve"/>
      <point x="299" y="-151"/>
      <point x="286" y="-106"/>
      <point x="250" y="-32" type="curve"/>
      <point x="229" y="-155" type="line"/>
      <point x="288" y="-98"/>
      <point x="441" y="16"/>
      <point x="507" y="64" type="curve"/>
      <point x="464" y="116" type="line"/>
    </contour>
    <contour>
      <point x="-1" y="106"/>
      <point x="-40" y="54"/>
      <point x="-40" y="-5" type="curve" smooth="yes"/>
      <point x="-40" y="-19"/>
      <point x="-37" y="-33"/>
      <point x="-33" y="-47" type="curve"/>
      <point x="-10" y="-75"/>
      <point x="22" y="-93"/>
      <point x="62" y="-93" type="curve" smooth="yes"/>
      <point x="76" y="-93"/>
      <point x="98" y="-88"/>
      <point x="110" y="-80" type="curve"/>
      <point x="109" y="-37" type="line"/>
      <point x="74" y="-37"/>
      <point x="54" y="-16"/>
      <point x="54" y="9" type="curve" smooth="yes"/>
      <point x="54" y="29"/>
      <point x="71" y="45"/>
      <point x="88" y="45" type="curve" smooth="yes"/>
      <point x="133" y="45"/>
      <point x="168" y="-53"/>
      <point x="193" y="-142" type="curve"/>
      <point x="276" y="-93" type="line"/>
      <point x="260" y="-50"/>
      <point x="240" y="-2"/>
      <point x="212" y="39" type="curve" smooth="yes"/>
      <point x="195" y="63"/>
      <point x="136" y="106"/>
      <point x="73" y="106" type="curve" smooth="yes"/>
    </contour>
    <contour>
      <point x="504" y="641" type="move" name="top"/>
    </contour>
    <contour>
      <point x="353" y="-146" type="move" name="bottom"/>
    </contour>
  </outline>
</glyph>
<glyph name="d_ddh_r_ya-deva" format="1">
  <advance width="1266"/>
  <outline>
    <contour>
      <point x="573" y="-15" type="line"/>
      <point x="450" y="-140" type="line"/>
      <point x="522" y="-201" type="line"/>
      <point x="619" y="-58" type="line"/>
    </contour>
    <contour>
      <point x="374" y="469" type="line" smooth="yes"/>
      <point x="228" y="470"/>
      <point x="144" y="403"/>
      <point x="144" y="286" type="curve" smooth="yes"/>
      <point x="144" y="150"/>
      <point x="270" y="42"/>
      <point x="429" y="42" type="curve" smooth="yes"/>
      <point x="545" y="42"/>
      <point x="632" y="99"/>
      <point x="657" y="191" type="curve"/>
      <point x="531" y="218" type="line"/>
      <point x="488" y="164"/>
      <point x="458" y="133"/>
      <point x="389" y="133" type="curve" smooth="yes"/>
      <point x="314" y="133"/>
      <point x="269" y="191"/>
      <point x="269" y="266" type="curve" smooth="yes"/>
      <point x="269" y="327"/>
      <point x="312" y="359"/>
      <point x="394" y="359" type="curve" smooth="yes"/>
      <point x="543" y="359" type="line"/>
      <point x="574" y="397" type="line"/>
      <point x="574" y="468" type="line"/>
    </contour>
    <contour>
      <point x="441" y="203" type="line"/>
      <point x="472" y="88"/>
      <point x="529" y="-29"/>
      <point x="611" y="-119" type="curve"/>
      <point x="707" y="-41" type="line"/>
      <point x="637" y="10"/>
      <point x="566" y="62"/>
      <point x="540" y="149" type="curve"/>
      <point x="657" y="191" type="line"/>
      <point x="612" y="235"/>
      <point x="558" y="256"/>
      <point x="494" y="256" type="curve"/>
    </contour>
    <contour>
      <point x="460" y="579" type="line"/>
      <point x="460" y="397" type="line"/>
      <point x="574" y="397" type="line"/>
      <point x="574" y="579" type="line"/>
    </contour>
    <contour>
      <point x="492" y="468" type="line"/>
      <point x="492" y="359" type="line"/>
      <point x="735" y="359" type="line" smooth="yes"/>
      <point x="772" y="359"/>
      <point x="799" y="347"/>
      <point x="799" y="328" type="curve" smooth="yes"/>
      <point x="799" y="290"/>
      <point x="769" y="271"/>
      <point x="695" y="263" type="curve"/>
      <point x="676" y="225" type="line"/>
      <point x="699" y="122"/>
      <point x="805" y="42"/>
      <point x="923" y="42" type="curve" smooth="yes"/>
      <point x="989" y="42"/>
      <point x="1057" y="78"/>
      <point x="1114" y="142" type="curve"/>
      <point x="1058" y="247" type="line"/>
      <point x="1021" y="185"/>
      <point x="962" y="147"/>
      <point x="897" y="147" type="curve" smooth="yes"/>
      <point x="838" y="147"/>
      <point x="795" y="157"/>
      <point x="785" y="174" type="curve"/>
      <point x="870" y="191"/>
      <point x="916" y="243"/>
      <point x="916" y="300" type="curve" smooth="yes"/>
      <point x="916" y="408"/>
      <point x="801" y="468"/>
      <point x="669" y="468" type="curve" smooth="yes"/>
    </contour>
    <contour>
      <point x="1057" y="563" type="line"/>
      <point x="1057" y="185" type="line"/>
      <point x="1040" y="-15" type="line"/>
      <point x="1157" y="-34" type="line"/>
      <point x="1185" y="-9" type="line"/>
      <point x="1171" y="184" type="line"/>
      <point x="1171" y="563" type="line"/>
    </contour>
    <contour>
      <point x="1266" y="641" type="line"/>
      <point x="-29" y="641" type="line"/>
      <point x="-39" y="611" type="line"/>
      <point x="-14" y="536" type="line"/>
      <point x="1278" y="536" type="line"/>
      <point x="1291" y="566" type="line"/>
    </contour>
    <contour>
      <point x="214" y="84" type="line"/>
      <point x="156" y="56"/>
      <point x="126" y="17"/>
      <point x="125" y="-35" type="curve" smooth="yes"/>
      <point x="125" y="-106"/>
      <point x="196" y="-150"/>
      <point x="279" y="-150" type="curve" smooth="yes"/>
      <point x="392" y="-149"/>
      <point x="489" y="-73"/>
      <point x="543" y="33" type="curve"/>
      <point x="463" y="110" type="line"/>
      <point x="417" y="-4"/>
      <point x="343" y="-85"/>
      <point x="257" y="-86" type="curve" smooth="yes"/>
      <point x="230" y="-86"/>
      <point x="215" y="-75"/>
      <point x="215" y="-51" type="curve" smooth="yes"/>
      <point x="215" y="-31"/>
      <point x="235" y="-15"/>
      <point x="268" y="-5" type="curve"/>
    </contour>
    <contour>
      <point x="158" y="56"/>
      <point x="198" y="98"/>
      <point x="198" y="146" type="curve" smooth="yes"/>
      <point x="198" y="181"/>
      <point x="180" y="215"/>
      <point x="114" y="215" type="curve" smooth="yes"/>
      <point x="53" y="215"/>
      <point x="-2" y="175"/>
      <point x="-2" y="108" type="curve" smooth="yes"/>
      <point x="-2" y="42"/>
      <point x="53" y="-23"/>
      <point x="162" y="-23" type="curve"/>
      <point x="166" y="12" type="line"/>
      <point x="116" y="12"/>
      <point x="78" y="55"/>
      <point x="78" y="88" type="curve" smooth="yes"/>
      <point x="78" y="125"/>
      <point x="97" y="155"/>
      <point x="116" y="155" type="curve" smooth="yes"/>
      <point x="126" y="155"/>
      <point x="130" y="150"/>
      <point x="130" y="139" type="curve" smooth="yes"/>
      <point x="130" y="114"/>
      <point x="108" y="94"/>
      <point x="70" y="88" type="curve"/>
      <point x="69" y="56" type="line"/>
    </contour>
    <contour>
      <point x="799" y="-37" type="move" name="nukta"/>
    </contour>
    <contour>
      <point x="1111" y="0" type="move" name="bottom"/>
    </contour>
    <contour>
      <point x="1111" y="641" type="move" name="top"/>
    </contour>
  </outline>
</glyph>
<glyph name="d_na-deva" format="1">
  <advance width="603"/>
  <outline>
    <contour>
      <point x="211" y="-33"/>
      <point x="174" y="-80" type="curve"/>
      <point x="179" y="-115" type="line"/>
      <point x="198" y="-137"/>
      <point x="232" y="-154"/>
      <point x="271" y="-154" type="curve" smooth="yes"/>
      <point x="303" y="-154"/>
      <point x="339" y="-142"/>
      <point x="371" y="-110" type="curve"/>
      <point x="370" y="-97"/>
      <point x="338" y="-35"/>
      <point x="313" y="-10" type="curve"/>
      <point x="289" y="-98" type="line"/>
      <point x="316" y="-48"/>
      <point x="396" y="51"/>
      <point x="434" y="89" type="curve"/>
      <point x="385" y="138" type="line"/>
      <point x="264" y="21"/>
    </contour>
    <contour>
      <point x="-20" y="641" type="line"/>
      <point x="-30" y="611" type="line"/>
      <point x="-5" y="536" type="line"/>
      <point x="623" y="536" type="line"/>
      <point x="633" y="566" type="line"/>
      <point x="608" y="641" type="line"/>
    </contour>
    <component base="da.small"/>
    <contour>
      <point x="412" y="641" type="move" name="top"/>
    </contour>
    <contour>
      <point x="331" y="0" type="move" name="bottom"/>
    </contour>
  </outline>
</glyph>
<glyph name="d_na_uMatra-deva" format="1">
  <advance width="604"/>
  <outline>
    <contour>
      <point x="229" y="37"/>
      <point x="124" y="-28"/>
      <point x="76" y="-63" type="curve"/>
      <point x="71" y="-97" type="line"/>
      <point x="92" y="-142"/>
      <point x="136" y="-165"/>
      <point x="183" y="-165" type="curve" smooth="yes"/>
      <point x="208" y="-165"/>
      <point x="234" y="-158"/>
      <point x="258" y="-145" type="curve"/>
      <point x="260" y="-132"/>
      <point x="246" y="-64"/>
      <point x="228" y="-33" type="curve"/>
      <point x="182" y="-111" type="line"/>
      <point x="221" y="-70"/>
      <point x="364" y="30"/>
      <point x="411" y="57" type="curve"/>
      <point x="377" y="117" type="line"/>
    </contour>
    <contour>
      <point x="273" y="469" type="line" smooth="yes"/>
      <point x="127" y="469"/>
      <point x="43" y="403"/>
      <point x="43" y="286" type="curve" smooth="yes"/>
      <point x="43" y="150"/>
      <point x="169" y="42"/>
      <point x="328" y="42" type="curve" smooth="yes"/>
      <point x="444" y="42"/>
      <point x="531" y="99"/>
      <point x="556" y="191" type="curve"/>
      <point x="430" y="218" type="line"/>
      <point x="387" y="164"/>
      <point x="357" y="133"/>
      <point x="288" y="133" type="curve" smooth="yes"/>
      <point x="213" y="133"/>
      <point x="168" y="191"/>
      <point x="168" y="266" type="curve" smooth="yes"/>
      <point x="168" y="327"/>
      <point x="211" y="359"/>
      <point x="293" y="359" type="curve" smooth="yes"/>
      <point x="442" y="358" type="line"/>
      <point x="473" y="397" type="line"/>
      <point x="473" y="469" type="line"/>
    </contour>
    <contour>
      <point x="-20" y="641" type="line"/>
      <point x="-30" y="611" type="line"/>
      <point x="-5" y="536" type="line"/>
      <point x="624" y="536" type="line"/>
      <point x="634" y="566" type="line"/>
      <point x="609" y="641" type="line"/>
    </contour>
    <contour>
      <point x="359" y="579" type="line"/>
      <point x="359" y="397" type="line"/>
      <point x="473" y="397" type="line"/>
      <point x="473" y="579" type="line"/>
    </contour>
    <contour>
      <point x="340" y="203" type="line"/>
      <point x="362" y="123"/>
      <point x="402" y="7"/>
      <point x="450" y="-61" type="curve"/>
      <point x="590" y="-52" type="line"/>
      <point x="514" y="4"/>
      <point x="463" y="72"/>
      <point x="439" y="149" type="curve"/>
      <point x="556" y="191" type="line"/>
      <point x="511" y="235"/>
      <point x="457" y="256"/>
      <point x="393" y="256" type="curve"/>
    </contour>
    <contour>
      <point x="413" y="-115" type="line"/>
      <point x="448" y="-91"/>
      <point x="478" y="-83"/>
      <point x="504" y="-83" type="curve" smooth="yes"/>
      <point x="533" y="-83"/>
      <point x="553" y="-100"/>
      <point x="553" y="-122" type="curve" smooth="yes"/>
      <point x="553" y="-154"/>
      <point x="534" y="-186"/>
      <point x="466" y="-186" type="curve" smooth="yes"/>
      <point x="427" y="-186"/>
      <point x="373" y="-179"/>
      <point x="326" y="-144" type="curve"/>
      <point x="286" y="-191" type="line"/>
      <point x="343" y="-247"/>
      <point x="410" y="-282"/>
      <point x="496" y="-282" type="curve" smooth="yes"/>
      <point x="580" y="-282"/>
      <point x="648" y="-231"/>
      <point x="648" y="-147" type="curve" smooth="yes"/>
      <point x="648" y="-64"/>
      <point x="541" y="1"/>
      <point x="457" y="1" type="curve" smooth="yes"/>
      <point x="423" y="1"/>
      <point x="390" y="-7"/>
      <point x="356" y="-25" type="curve"/>
    </contour>
    <contour>
      <point x="414" y="640" type="move" name="top"/>
    </contour>
    <contour>
      <point x="334" y="0" type="move" name="bottom"/>
    </contour>
  </outline>
</glyph>
<glyph name="dd_ma-deva" format="1">
  <advance width="1166"/>
  <note>
    dDdMa
  </note>
  <outline>
    <contour>
      <point x="700" y="289"/>
      <point x="631" y="285"/>
      <point x="595" y="277" type="curve"/>
      <point x="570" y="244" type="line"/>
      <point x="570" y="150"/>
      <point x="645" y="70"/>
      <point x="733" y="70" type="curve"/>
      <point x="762" y="105"/>
      <point x="789" y="195"/>
      <point x="789" y="253" type="curve"/>
      <point x="691" y="162" type="line"/>
      <point x="764" y="178"/>
      <point x="892" y="190"/>
      <point x="990" y="191" type="curve"/>
      <point x="990" y="283" type="line"/>
      <point x="921" y="286"/>
      <point x="825" y="289"/>
      <point x="800" y="289" type="curve" smooth="yes"/>
    </contour>
    <contour>
      <point x="392" y="470" type="line"/>
      <point x="382" y="360" type="line"/>
      <point x="598" y="360" type="line" smooth="yes"/>
      <point x="650" y="360"/>
      <point x="676" y="342"/>
      <point x="676" y="306" type="curve" smooth="yes"/>
      <point x="676" y="247" type="line"/>
      <point x="788" y="261" type="line"/>
      <point x="788" y="307" type="line"/>
      <point x="788" y="419"/>
      <point x="704" y="470"/>
      <point x="514" y="470" type="curve"/>
    </contour>
    <contour>
      <point x="964" y="563" type="line"/>
      <point x="964" y="185" type="line"/>
      <point x="947" y="-20" type="line"/>
      <point x="1064" y="-39" type="line"/>
      <point x="1092" y="-14" type="line"/>
      <point x="1078" y="184" type="line"/>
      <point x="1078" y="563" type="line"/>
    </contour>
    <contour>
      <point x="522" y="641" type="line"/>
      <point x="512" y="611" type="line"/>
      <point x="537" y="536" type="line"/>
      <point x="1178" y="536" type="line"/>
      <point x="1191" y="566" type="line"/>
      <point x="1166" y="641" type="line"/>
    </contour>
    <component base="dda-deva"/>
    <contour>
      <point x="1023" y="641" type="move" name="top"/>
    </contour>
    <contour>
      <point x="1024" y="0" type="move" name="bottom"/>
    </contour>
  </outline>
</glyph>
<glyph name="dh-deva" format="1">
  <advance width="427"/>
  <outline>
    <contour>
      <point x="121" y="649"/>
      <point x="55" y="593"/>
      <point x="55" y="507" type="curve" smooth="yes"/>
      <point x="55" y="425"/>
      <point x="101" y="355"/>
      <point x="195" y="320" type="curve"/>
      <point x="248" y="358" type="line"/>
      <point x="202" y="385"/>
      <point x="166" y="421"/>
      <point x="166" y="467" type="curve" smooth="yes"/>
      <point x="166" y="517"/>
      <point x="206" y="554"/>
      <point x="245" y="554" type="curve" smooth="yes"/>
      <point x="268" y="554"/>
      <point x="280" y="545"/>
      <point x="280" y="533" type="curve" smooth="yes"/>
      <point x="280" y="513"/>
      <point x="246" y="486"/>
      <point x="182" y="486" type="curve" smooth="yes"/>
      <point x="173" y="486"/>
      <point x="159" y="487"/>
      <point x="150" y="491" type="curve"/>
      <point x="148" y="458" type="line"/>
      <point x="183" y="432"/>
      <point x="224" y="418"/>
      <point x="260" y="418" type="curve" smooth="yes"/>
      <point x="315" y="418"/>
      <point x="362" y="452"/>
      <point x="362" y="524" type="curve" smooth="yes"/>
      <point x="362" y="576"/>
      <point x="312" y="649"/>
      <point x="207" y="649" type="curve" smooth="yes"/>
    </contour>
    <contour>
      <point x="526" y="294" type="line"/>
      <point x="464" y="205"/>
      <point x="355" y="130"/>
      <point x="270" y="130" type="curve" smooth="yes"/>
      <point x="229" y="130"/>
      <point x="214" y="152"/>
      <point x="214" y="174" type="curve" smooth="yes"/>
      <point x="214" y="223"/>
      <point x="270" y="258"/>
      <point x="364" y="265" type="curve"/>
      <point x="384" y="297" type="line"/>
      <point x="349" y="387" type="line"/>
      <point x="173" y="369"/>
      <point x="94" y="286"/>
      <point x="94" y="199" type="curve" smooth="yes"/>
      <point x="94" y="122"/>
      <point x="160" y="50"/>
      <point x="300" y="50" type="curve" smooth="yes"/>
      <point x="395" y="50"/>
      <point x="498" y="87"/>
      <point x="554" y="159" type="curve"/>
    </contour>
  </outline>
</glyph>
<glyph name="dh_ra-deva" format="1">
  <advance width="702"/>
  <outline>
    <contour>
      <point x="535" y="146" type="line"/>
      <point x="475" y="207" type="line"/>
      <point x="384" y="132"/>
      <point x="284" y="60"/>
      <point x="192" y="3" type="curve"/>
      <point x="270" y="-75" type="line"/>
    </contour>
    <component base="dh-deva"/>
    <component base="aaMatra-deva" xOffset="391"/>
    <contour>
      <point x="539" y="641" type="move" name="top"/>
    </contour>
    <contour>
      <point x="539" y="0" type="move" name="bottom"/>
    </contour>
  </outline>
</glyph>
<glyph name="dieresis.i" format="1">
  <advance width="360"/>
  <outline>
    <contour>
      <point x="50" y="725"/>
      <point x="27" y="696"/>
      <point x="27" y="655" type="curve" smooth="yes"/>
      <point x="27" y="614"/>
      <point x="50" y="586"/>
      <point x="92" y="586" type="curve" smooth="yes"/>
      <point x="135" y="586"/>
      <point x="157" y="614"/>
      <point x="157" y="655" type="curve" smooth="yes"/>
      <point x="157" y="699"/>
      <point x="133" y="725"/>
      <point x="92" y="725" type="curve" smooth="yes"/>
    </contour>
    <contour>
      <point x="224" y="725"/>
      <point x="202" y="696"/>
      <point x="202" y="655" type="curve" smooth="yes"/>
      <point x="202" y="614"/>
      <point x="224" y="586"/>
      <point x="266" y="586" type="curve" smooth="yes"/>
      <point x="309" y="586"/>
      <point x="331" y="614"/>
      <point x="331" y="655" type="curve" smooth="yes"/>
      <point x="331" y="699"/>
      <point x="307" y="725"/>
      <point x="266" y="725" type="curve" smooth="yes"/>
    </contour>
    <contour>
      <point x="180" y="494" type="move" name="_top"/>
    </contour>
  </outline>
</glyph>
<glyph name="dieresisacute" format="1">
  <advance width="360"/>
  <outline>
    <contour>
      <point x="269" y="809" type="line"/>
      <point x="77" y="736" type="line"/>
      <point x="98" y="685" type="line"/>
      <point x="296" y="728" type="line"/>
    </contour>
    <component base="dieresiscomb" xOffset="2" yOffset="10"/>
    <contour>
      <point x="180" y="494" type="move" name="_top"/>
    </contour>
  </outline>
</glyph>
<glyph name="dieresiscaron" format="1">
  <advance width="360"/>
  <outline>
    <component base="circumflexcomb.flat" xOffset="364" yOffset="1325" xScale="-1" yScale="-1"/>
    <component base="dieresiscomb" xOffset="2" yOffset="10"/>
    <contour>
      <point x="180" y="494" type="move" name="_top"/>
    </contour>
  </outline>
</glyph>
<glyph name="dieresisgrave" format="1">
  <advance width="360"/>
  <outline>
    <contour>
      <point x="265" y="685" type="line"/>
      <point x="286" y="736" type="line"/>
      <point x="94" y="809" type="line"/>
      <point x="67" y="728" type="line"/>
    </contour>
    <component base="dieresiscomb" xOffset="2" yOffset="10"/>
    <contour>
      <point x="180" y="494" type="move" name="_top"/>
    </contour>
  </outline>
</glyph>
<glyph name="dieresismacron" format="1">
  <advance width="360"/>
  <outline>
    <contour>
      <point x="334" y="696" type="line"/>
      <point x="341" y="764" type="line"/>
      <point x="19" y="764" type="line"/>
      <point x="19" y="696" type="line"/>
    </contour>
    <component base="dieresiscomb" xOffset="2" yOffset="10"/>
    <contour>
      <point x="170" y="494" type="move" name="_top"/>
    </contour>
  </outline>
</glyph>
<glyph name="eMatra_reph-deva" format="1">
  <advance width="531"/>
  <outline>
    <component base="eMatra-deva"/>
    <component base="reph-deva" xOffset="226"/>
    <contour>
      <point x="449" y="719" type="move" name="anusvara"/>
    </contour>
    <contour>
      <point x="359" y="641" type="move" name="_top"/>
    </contour>
  </outline>
</glyph>
<glyph name="eight.tf" format="1">
  <advance width="510"/>
  <outline>
    <contour>
      <point x="41" y="628"/>
      <point x="150" y="682"/>
      <point x="255" y="682" type="curve" smooth="yes"/>
      <point x="360" y="682"/>
      <point x="468" y="626"/>
      <point x="468" y="519" type="curve" smooth="yes"/>
      <point x="468" y="389"/>
      <point x="298" y="307"/>
      <point x="298" y="307" type="curve"/>
      <point x="201" y="339" type="line"/>
      <point x="201" y="339"/>
      <point x="324" y="411"/>
      <point x="324" y="518" type="curve" smooth="yes"/>
      <point x="324" y="565"/>
      <point x="300" y="600"/>
      <point x="255" y="600" type="curve" smooth="yes"/>
      <point x="213" y="600"/>
      <point x="185" y="565"/>
      <point x="185" y="521" type="curve" smooth="yes"/>
      <point x="185" y="369"/>
      <point x="490" y="383"/>
      <point x="490" y="156" type="curve" smooth="yes"/>
      <point x="490" y="42"/>
      <point x="367" y="-10"/>
      <point x="254" y="-10" type="curve" smooth="yes"/>
      <point x="136" y="-10"/>
      <point x="19" y="43"/>
      <point x="19" y="164" type="curve" smooth="yes"/>
      <point x="19" y="309"/>
      <point x="228" y="383"/>
      <point x="228" y="391" type="curve"/>
      <point x="324" y="340" type="line"/>
      <point x="324" y="340"/>
      <point x="166" y="278"/>
      <point x="166" y="165" type="curve" smooth="yes"/>
      <point x="166" y="108"/>
      <point x="200" y="72"/>
      <point x="255" y="72" type="curve" smooth="yes"/>
      <point x="309" y="72"/>
      <point x="342" y="104"/>
      <point x="342" y="162" type="curve" smooth="yes"/>
      <point x="342" y="310"/>
      <point x="41" y="294"/>
      <point x="41" y="522" type="curve" smooth="yes"/>
    </contour>
  </outline>
</glyph>
<glyph name="f.f" format="1">
  <advance width="361"/>
  <outline>
    <contour>
      <point x="100" y="163" type="line" smooth="yes"/>
      <point x="100" y="143"/>
      <point x="91" y="77"/>
      <point x="91" y="77" type="curve"/>
      <point x="35" y="65" type="line"/>
      <point x="40" y="-5" type="line"/>
      <point x="40" y="-5"/>
      <point x="130" y="0"/>
      <point x="160" y="0" type="curve" smooth="yes"/>
      <point x="273" y="0"/>
      <point x="329" y="0"/>
      <point x="329" y="0" type="curve"/>
      <point x="334" y="71" type="line"/>
      <point x="249" y="77" type="line"/>
      <point x="249" y="77"/>
      <point x="240" y="143"/>
      <point x="240" y="193" type="curve" smooth="yes"/>
      <point x="240" y="419" type="line"/>
      <point x="442" y="419" type="line"/>
      <point x="451" y="494" type="line"/>
      <point x="240" y="494" type="line"/>
      <point x="240" y="556" type="line" smooth="yes"/>
      <point x="240" y="636"/>
      <point x="248" y="675"/>
      <point x="298" y="675" type="curve" smooth="yes"/>
      <point x="313" y="675"/>
      <point x="326" y="671"/>
      <point x="335" y="667" type="curve"/>
      <point x="337" y="652"/>
      <point x="339" y="632"/>
      <point x="339" y="623" type="curve"/>
      <point x="339" y="578" type="line"/>
      <point x="413" y="575" type="line"/>
      <point x="428" y="742" type="line"/>
      <point x="428" y="742"/>
      <point x="350" y="756"/>
      <point x="281" y="756" type="curve" smooth="yes"/>
      <point x="171" y="756"/>
      <point x="100" y="676"/>
      <point x="100" y="566" type="curve" smooth="yes"/>
      <point x="100" y="501" type="line"/>
      <point x="40" y="482" type="line"/>
      <point x="43" y="419" type="line"/>
      <point x="100" y="419" type="line"/>
    </contour>
  </outline>
</glyph>
<glyph name="fj" format="1">
  <advance width="687"/>
  <outline>
    <contour>
      <point x="479" y="735"/>
      <point x="451" y="702"/>
      <point x="451" y="655" type="curve" smooth="yes"/>
      <point x="451" y="608"/>
      <point x="479" y="576"/>
      <point x="530" y="576" type="curve" smooth="yes"/>
      <point x="581" y="576"/>
      <point x="609" y="608"/>
      <point x="609" y="655" type="curve" smooth="yes"/>
      <point x="609" y="705"/>
      <point x="579" y="735"/>
      <point x="530" y="735" type="curve" smooth="yes"/>
    </contour>
    <contour>
      <point x="100" y="163" type="line" smooth="yes"/>
      <point x="100" y="143"/>
      <point x="91" y="77"/>
      <point x="91" y="77" type="curve"/>
      <point x="35" y="65" type="line"/>
      <point x="40" y="-5" type="line"/>
      <point x="40" y="-5"/>
      <point x="130" y="0"/>
      <point x="160" y="0" type="curve" smooth="yes"/>
      <point x="273" y="0"/>
      <point x="329" y="0"/>
      <point x="329" y="0" type="curve"/>
      <point x="334" y="71" type="line"/>
      <point x="249" y="77" type="line"/>
      <point x="249" y="77"/>
      <point x="240" y="143"/>
      <point x="240" y="193" type="curve" smooth="yes"/>
      <point x="240" y="419" type="line"/>
      <point x="352" y="419" type="line"/>
      <point x="417" y="418"/>
      <point x="459" y="412"/>
      <point x="459" y="412" type="curve"/>
      <point x="459" y="412"/>
      <point x="469" y="345"/>
      <point x="469" y="325" type="curve"/>
      <point x="469" y="21" type="line" smooth="yes"/>
      <point x="469" y="-19"/>
      <point x="394" y="-209"/>
      <point x="394" y="-209" type="curve"/>
      <point x="441" y="-235" type="line"/>
      <point x="441" y="-235"/>
      <point x="609" y="-50"/>
      <point x="609" y="-10" type="curve" smooth="yes"/>
      <point x="609" y="295" type="line" smooth="yes"/>
      <point x="609" y="345"/>
      <point x="619" y="477"/>
      <point x="619" y="477" type="curve"/>
      <point x="598" y="496" type="line"/>
      <point x="510" y="494" type="line"/>
      <point x="240" y="494" type="line"/>
      <point x="240" y="570" type="line" smooth="yes"/>
      <point x="240" y="650"/>
      <point x="248" y="689"/>
      <point x="298" y="689" type="curve" smooth="yes"/>
      <point x="313" y="689"/>
      <point x="326" y="685"/>
      <point x="335" y="681" type="curve"/>
      <point x="336" y="666"/>
      <point x="339" y="652"/>
      <point x="339" y="637" type="curve" smooth="yes"/>
      <point x="339" y="592" type="line"/>
      <point x="413" y="589" type="line"/>
      <point x="428" y="756" type="line"/>
      <point x="428" y="756"/>
      <point x="350" y="770"/>
      <point x="281" y="770" type="curve" smooth="yes"/>
      <point x="171" y="770"/>
      <point x="100" y="690"/>
      <point x="100" y="580" type="curve" smooth="yes"/>
      <point x="100" y="501" type="line"/>
      <point x="40" y="482" type="line"/>
      <point x="43" y="419" type="line"/>
      <point x="100" y="419" type="line"/>
    </contour>
  </outline>
</glyph>
<glyph name="four.dnom" format="1">
  <advance width="412"/>
  <outline>
    <contour>
      <point x="261" y="495" type="line"/>
      <point x="17" y="186" type="line"/>
      <point x="72" y="120" type="line"/>
      <point x="211" y="120" type="line"/>
      <point x="211" y="111" type="line" smooth="yes"/>
      <point x="211" y="98"/>
      <point x="207" y="62"/>
      <point x="206" y="53" type="curve"/>
      <point x="140" y="45" type="line"/>
      <point x="143" y="-3" type="line"/>
      <point x="143" y="-3"/>
      <point x="187" y="0"/>
      <point x="221" y="0" type="curve" smooth="yes"/>
      <point x="301" y="0"/>
      <point x="363" y="0"/>
      <point x="363" y="0" type="curve"/>
      <point x="366" y="49" type="line"/>
      <point x="319" y="53" type="line"/>
      <point x="318" y="62"/>
      <point x="315" y="78"/>
      <point x="315" y="106" type="curve" smooth="yes"/>
      <point x="315" y="120" type="line"/>
      <point x="380" y="120" type="line"/>
      <point x="380" y="195" type="line"/>
      <point x="315" y="191" type="line"/>
      <point x="315" y="279" type="line"/>
      <point x="211" y="244" type="line"/>
      <point x="211" y="185" type="line"/>
      <point x="123" y="185" type="line"/>
      <point x="254" y="355" type="line" smooth="yes"/>
      <point x="264" y="370"/>
      <point x="334" y="435"/>
      <point x="334" y="435" type="curve"/>
    </contour>
  </outline>
</glyph>
<glyph name="gh_la-deva" format="1">
  <advance width="1536"/>
  <outline>
    <component base="ch-deva"/>
    <component base="la-deva" xOffset="715"/>
    <contour>
      <point x="1381" y="641" type="move" name="top"/>
    </contour>
    <contour>
      <point x="1381" y="0" type="move" name="bottom"/>
    </contour>
  </outline>
</glyph>
<glyph name="grave.cap" format="1">
  <advance width="360"/>
  <outline>
    <contour>
      <point x="279" y="522" type="line"/>
      <point x="314" y="583" type="line"/>
      <point x="77" y="686" type="line"/>
      <point x="43" y="607" type="line"/>
    </contour>
    <contour>
      <point x="197" y="494" type="move" name="_top"/>
    </contour>
  </outline>
</glyph>
<glyph name="h_ra-deva" format="1">
  <advance width="624"/>
  <outline>
    <contour>
      <point x="447" y="192" type="line"/>
      <point x="385" y="135"/>
      <point x="321" y="80"/>
      <point x="253" y="25" type="curve"/>
      <point x="318" y="-38" type="line"/>
      <point x="495" y="140" type="line"/>
    </contour>
    <component base="h_compo"/>
    <contour>
      <point x="420" y="641" type="move" name="top"/>
    </contour>
    <contour>
      <point x="338" y="-176" type="move" name="bottom"/>
    </contour>
  </outline>
</glyph>
